<svg viewBox="0 0 32 32" fill="none" xmlns="http://www.w3.org/2000/svg">
    <path d="M15.7334 11.4666C16.1752 10.8775 16.0559 10.0417 15.4667 9.59992C14.8776 9.15809 14.0419 9.27748 13.6001 9.86658L8.00008 17.3332H13.3334L10.9334 20.5332C10.4916 21.1224 10.611 21.9581 11.2001 22.3999C11.7892 22.8417 12.6249 22.7224 13.0667 22.1332L18.6667 14.6666H13.3334L15.7334 11.4666Z" fill="currentColor"/>
    <path fill-rule="evenodd" clip-rule="evenodd" d="M2.66675 13.3333C2.66675 8.91497 6.24847 5.33325 10.6667 5.33325H22.6667C23.4031 5.33325 24.0001 5.93021 24.0001 6.66659V14.6666H26.6667V9.33325C26.6667 8.59687 27.2637 7.99992 28.0001 7.99992C28.7365 7.99992 29.3334 8.59687 29.3334 9.33325V22.6666C29.3334 23.403 28.7365 23.9999 28.0001 23.9999C27.2637 23.9999 26.6667 23.403 26.6667 22.6666V17.3333H24.0001V25.3333C24.0001 26.0696 23.4031 26.6666 22.6667 26.6666H10.6667C6.24847 26.6666 2.66675 23.0849 2.66675 18.6666V13.3333ZM10.6667 7.99992H21.3334V23.9999H10.6667C7.72123 23.9999 5.33341 21.6121 5.33341 18.6666V13.3333C5.33341 10.3877 7.72123 7.99992 10.6667 7.99992Z" fill="currentColor"/>
</svg>
