<svg viewBox="0 0 33 32" fill="none" xmlns="http://www.w3.org/2000/svg">
    <path d="M19.2 9.84008C19.6971 9.22152 19.5627 8.344 18.9 7.88008C18.2373 7.41616 17.2971 7.54152 16.8 8.16008L10.5 16.0001H16.5L13.8 19.3601C13.3029 19.9786 13.4373 20.8562 14.1 21.3201C14.7627 21.784 15.7029 21.6586 16.2 21.0401L22.5 13.2001H16.5L19.2 9.84008Z" fill="currentColor"/>
    <path fill-rule="evenodd" clip-rule="evenodd" d="M4.5 3.4C4.5 2.6268 5.17157 2 6 2H27C27.8284 2 28.5 2.6268 28.5 3.4V28.6C28.5 29.3732 27.8284 30 27 30C26.1716 30 25.5 29.3732 25.5 28.6V27.2H7.5V28.6C7.5 29.3732 6.82843 30 6 30C5.17157 30 4.5 29.3732 4.5 28.6V3.4ZM7.5 24.4V4.8H25.5V24.4H7.5Z" fill="currentColor"/>
</svg>
