<svg viewBox="0 0 32 32" fill="none" xmlns="http://www.w3.org/2000/svg">
    <path fill-rule="evenodd" clip-rule="evenodd" d="M29.3334 16C29.3334 23.3638 23.3638 29.3333 16 29.3333C8.63622 29.3333 2.66669 23.3638 2.66669 16C2.66669 8.63616 8.63622 2.66663 16 2.66663C23.3638 2.66663 29.3334 8.63616 29.3334 16ZM22.541 24.4263C20.7348 25.8305 18.465 26.6666 16 26.6666C10.109 26.6666 5.33335 21.891 5.33335 16C5.33335 13.5349 6.16951 11.2652 7.57367 9.45894L22.541 24.4263ZM24.4266 22.5407L9.45932 7.57336C11.2655 6.16935 13.5351 5.33329 16 5.33329C21.8911 5.33329 26.6667 10.1089 26.6667 16C26.6667 18.4648 25.8306 20.7344 24.4266 22.5407Z" fill="currentColor"/>
</svg>
