<?xml version="1.0" encoding="UTF-8"?>
<svg width="56px" height="56px" viewBox="0 0 56 56" version="1.1" xmlns="http://www.w3.org/2000/svg" xmlns:xlink="http://www.w3.org/1999/xlink">
    <!-- Generator: Sketch 52.2 (67145) - http://www.bohemiancoding.com/sketch -->
    <title>icon_dc@1x</title>
    <desc>Created with Sketch.</desc>
    <g id="Zeplin" stroke="none" stroke-width="1" fill="none" fill-rule="evenodd">
        <g id="Style-Guide" transform="translate(-1197.000000, -4136.000000)" fill="#FFFFFF">
            <path d="M1221.64,4192 C1207.7602,4190.32817 1197,4178.42969 1197,4164 C1197,4149.57031 1207.7602,4137.67183 1221.64,4136 L1221.64,4144.82335 L1228.92,4144.82335 L1228.92,4136.07322 C1242.52816,4137.99331 1253,4149.76496 1253,4164 C1253,4178.23504 1242.52816,4190.00669 1228.92,4191.92678 L1228.92,4183.74067 L1221.64,4183.74067 L1221.64,4192 Z M1224.44,4163.89756 C1224.44,4163.24049 1224.43253,4162.63943 1224.4176,4162.09436 C1224.40267,4161.54929 1224.36533,4161.04903 1224.3056,4160.59356 C1224.24587,4160.13809 1224.14507,4159.71996 1224.0032,4159.33916 C1223.86133,4158.95836 1223.67093,4158.59623 1223.432,4158.25276 C1222.86453,4157.44636 1222.19254,4156.8565 1221.416,4156.48316 C1220.63946,4156.10983 1219.70614,4155.92316 1218.616,4155.92316 L1212.8592,4155.92316 L1212.8592,4171.87196 L1218.616,4171.87196 C1219.70614,4171.87196 1220.63946,4171.6853 1221.416,4171.31196 C1222.19254,4170.93863 1222.86453,4170.34877 1223.432,4169.54236 C1223.67093,4169.19889 1223.86133,4168.83676 1224.0032,4168.45596 C1224.14507,4168.07516 1224.24587,4167.65703 1224.3056,4167.20156 C1224.36533,4166.74609 1224.40267,4166.24583 1224.4176,4165.70076 C1224.43253,4165.15569 1224.44,4164.55463 1224.44,4163.89756 Z M1221.3264,4163.89756 C1221.3264,4164.52476 1221.31893,4165.06609 1221.304,4165.52156 C1221.28907,4165.97703 1221.2592,4166.36529 1221.2144,4166.68636 C1221.1696,4167.00743 1221.10613,4167.27996 1221.024,4167.50396 C1220.94187,4167.72796 1220.82613,4167.92956 1220.6768,4168.10876 C1220.15413,4168.76583 1219.37761,4169.09436 1218.3472,4169.09436 L1215.9728,4169.09436 L1215.9728,4158.70076 L1218.3472,4158.70076 C1219.37761,4158.70076 1220.15413,4159.02929 1220.6768,4159.68636 C1220.82613,4159.86556 1220.94187,4160.06716 1221.024,4160.29116 C1221.10613,4160.51516 1221.1696,4160.78769 1221.2144,4161.10876 C1221.2592,4161.42983 1221.28907,4161.81809 1221.304,4162.27356 C1221.31893,4162.72903 1221.3264,4163.27036 1221.3264,4163.89756 Z M1238.8208,4166.96636 L1235.6624,4166.96636 C1235.49813,4167.62343 1235.2032,4168.16476 1234.7776,4168.59036 C1234.352,4169.01596 1233.75094,4169.22876 1232.9744,4169.22876 C1232.54133,4169.22876 1232.1568,4169.1541 1231.8208,4169.00476 C1231.4848,4168.85543 1231.2048,4168.65383 1230.9808,4168.39996 C1230.83147,4168.23569 1230.70827,4168.04903 1230.6112,4167.83996 C1230.51413,4167.63089 1230.43573,4167.3621 1230.376,4167.03356 C1230.31627,4166.70503 1230.27147,4166.29063 1230.2416,4165.79036 C1230.21173,4165.29009 1230.1968,4164.65917 1230.1968,4163.89756 C1230.1968,4163.13596 1230.21173,4162.50503 1230.2416,4162.00476 C1230.27147,4161.50449 1230.31627,4161.0901 1230.376,4160.76156 C1230.43573,4160.43303 1230.51413,4160.16423 1230.6112,4159.95516 C1230.70827,4159.74609 1230.83147,4159.55943 1230.9808,4159.39516 C1231.2048,4159.14129 1231.4848,4158.9397 1231.8208,4158.79036 C1232.1568,4158.64103 1232.54133,4158.56636 1232.9744,4158.56636 C1233.75094,4158.56636 1234.34826,4158.77916 1234.7664,4159.20476 C1235.18454,4159.63036 1235.47573,4160.17169 1235.64,4160.82876 L1238.8208,4160.82876 C1238.52213,4159.15622 1237.84641,4157.8981 1236.7936,4157.05436 C1235.74079,4156.21062 1234.46774,4155.78876 1232.9744,4155.78876 C1232.04853,4155.78876 1231.24214,4155.93436 1230.5552,4156.22556 C1229.86826,4156.51676 1229.24854,4156.93116 1228.696,4157.46876 C1228.2928,4157.87196 1227.98293,4158.29009 1227.7664,4158.72316 C1227.54987,4159.15623 1227.39307,4159.63036 1227.296,4160.14556 C1227.19893,4160.66076 1227.1392,4161.22449 1227.1168,4161.83676 C1227.0944,4162.44903 1227.0832,4163.13596 1227.0832,4163.89756 C1227.0832,4164.65917 1227.0944,4165.34609 1227.1168,4165.95836 C1227.1392,4166.57063 1227.19893,4167.13436 1227.296,4167.64956 C1227.39307,4168.16476 1227.54987,4168.63889 1227.7664,4169.07196 C1227.98293,4169.50503 1228.2928,4169.92316 1228.696,4170.32636 C1229.24854,4170.86396 1229.86826,4171.27836 1230.5552,4171.56956 C1231.24214,4171.86076 1232.04853,4172.00636 1232.9744,4172.00636 C1234.46774,4172.00636 1235.74079,4171.5845 1236.7936,4170.74076 C1237.84641,4169.89702 1238.52213,4168.6389 1238.8208,4166.96636 Z" id="icon_dc"></path>
        </g>
    </g>
</svg>