<?xml version="1.0" encoding="UTF-8"?>
<svg width="56px" height="56px" viewBox="0 0 56 56" version="1.1" xmlns="http://www.w3.org/2000/svg" xmlns:xlink="http://www.w3.org/1999/xlink">
    <!-- Generator: Sketch 52.2 (67145) - http://www.bohemiancoding.com/sketch -->
    <title>Oval 2</title>
    <desc>Created with Sketch.</desc>
    <g id="Zeplin" stroke="none" stroke-width="1" fill="none" fill-rule="evenodd">
        <g id="Style-Guide" transform="translate(-704.000000, -4136.000000)" fill="#FFFFFF">
            <path d="M732,4192 C716.536027,4192 704,4179.46397 704,4164 C704,4148.53603 716.536027,4136 732,4136 C747.463973,4136 760,4148.53603 760,4164 C760,4179.46397 747.463973,4192 732,4192 Z M721,4152.22798 C721,4152.22798 718.965529,4151.2815 716.90401,4153.24552 C716.90401,4153.24552 714.455487,4155.19374 714.006064,4163.40855 C714.006064,4163.40855 713.869989,4164.77546 714.887016,4164.9768 C714.887016,4164.9768 715.912366,4165.21169 716.047193,4164.18675 C716.182436,4163.16231 716.157052,4157.97988 718.0929,4155.32155 C718.0929,4155.32155 718.281408,4154.9855 718.796996,4154.72396 C719.226444,4154.40912 719.566008,4153.83472 719.819849,4153.38023 C719.819849,4153.38023 720.198113,4152.78462 721,4152.22798 Z M725,4152.1281 C725,4152.1281 723.118001,4151.45254 721.093597,4153.2042 C721.093597,4153.2042 718.688724,4154.86957 718.127328,4161.48547 C718.127328,4161.48547 717.921295,4163.11897 718.033401,4163.94651 C718.033401,4163.94651 718.126029,4164.91328 719.005998,4164.99809 C719.005998,4164.99809 720.066895,4165.09173 720.133119,4163.96612 C720.198912,4162.841 720.223584,4162.38409 720.223584,4162.38409 C720.223584,4162.38409 720.390661,4157.98608 721.966207,4155.75545 L722.347541,4156.0795 C722.347541,4156.0795 722.884266,4153.76994 725,4152.1281 Z M729,4152.09233 C729,4152.09233 726.462444,4151.42573 724.625234,4153.67478 C724.625234,4153.67478 722.801978,4155.50943 722.26429,4160.06113 C722.26429,4160.06113 722.037964,4162.50732 722.000025,4163.69846 C722.000025,4163.69846 721.981274,4164.85224 722.965945,4164.99923 C722.965945,4164.99923 723.980706,4165.07002 724.046118,4163.85675 C724.046118,4163.85675 724.113275,4158.28155 725.943071,4155.72966 L726.396159,4156.04871 C726.396159,4156.04871 727.188519,4153.47175 729,4152.09233 Z M733.368425,4152.00473 C733.368425,4152.00473 730.555815,4151.89534 728.904163,4154.59844 C728.904163,4154.59844 726.996121,4157.24754 727.003803,4162.67618 C727.003803,4162.67572 726.887131,4163.96045 727.946301,4164.07945 C727.946301,4164.07945 729.199444,4164.15359 729.199444,4162.78739 C729.199444,4162.78739 729.255139,4157.43336 731.399886,4155.26896 C731.399886,4155.26896 733.297365,4157.44023 733.452928,4162.5494 C733.452928,4162.5494 733.518706,4166.05208 734.204334,4167.98261 C734.204334,4167.98215 734.824183,4165.81729 734.948537,4162.81714 C734.948537,4162.81714 734.897163,4162.26883 735.39602,4161.88254 C735.39602,4161.88254 735.72443,4161.72876 735.660572,4161.1832 C735.660572,4161.1832 735.201567,4156.72486 733.64354,4154.1998 C733.64354,4154.1998 736.944924,4153.99475 737.599343,4160.29208 C737.599343,4160.29208 737.606545,4161.21295 738.141891,4161.78597 C738.141891,4161.78597 738.533199,4162.05189 738.573049,4162.69814 C738.573049,4162.69814 738.669556,4163.58926 738.389159,4166.47087 C738.389159,4166.47087 738.322901,4167.10202 738.613861,4168 C738.613861,4168 739.429124,4165.84658 739.214985,4163.73801 C739.214985,4163.73801 739.106956,4162.02489 740,4161.44728 C740,4161.44728 739.925099,4156.66765 737.930634,4154.05334 C737.930634,4154.05334 736.351961,4151.88573 733.368425,4152.00473 Z M743,4174.77184 C743,4174.77184 745.034067,4175.7188 747.096016,4173.75432 C747.096016,4173.75432 749.544554,4171.80612 749.99398,4163.59094 C749.99398,4163.59094 750.12964,4162.22503 749.113022,4162.0232 C749.113022,4162.0232 748.087666,4161.78831 747.952838,4162.81324 C747.817594,4163.83767 747.842978,4169.01953 745.906702,4171.67832 C745.906702,4171.67832 745.718193,4172.01436 745.202602,4172.2759 C744.773151,4172.59073 744.433585,4173.16562 744.180159,4173.6196 C744.180159,4173.6196 743.801476,4174.21571 743,4174.77184 Z M739,4174.8719 C739,4174.8719 740.881939,4175.54746 742.906712,4173.7958 C742.906712,4173.7958 745.311508,4172.13043 745.872887,4165.51404 C745.872887,4165.51404 746.078913,4163.88103 745.966378,4163.05398 C745.966378,4163.05398 745.873752,4162.08623 744.993811,4162.00191 C744.993811,4162.00191 743.932948,4161.90827 743.867158,4163.03388 C743.800936,4164.159 743.776697,4164.61542 743.776697,4164.61542 C743.776697,4164.61542 743.609193,4169.01441 742.033696,4171.24455 L741.652374,4170.92099 C741.652374,4170.92099 741.116099,4173.23006 739,4174.8719 Z M735,4174.90754 C735,4174.90754 737.537714,4175.57461 739.375038,4173.32517 C739.375038,4173.32517 741.19797,4171.49061 741.736128,4166.93912 C741.736128,4166.93912 741.962468,4164.49304 741.999973,4163.30196 C741.999973,4163.30196 742.019162,4162.14823 741.034429,4162.00076 C741.034429,4162.00076 740.019169,4161.93046 739.954189,4163.14367 C739.954189,4163.14367 739.887029,4168.71813 738.056682,4171.27038 L737.604002,4170.95135 C737.604002,4170.95135 736.811594,4173.52819 735,4174.90754 Z M731.632036,4174.99527 C731.632036,4174.99527 734.444157,4175.10466 736.095804,4172.40148 C736.095804,4172.40148 738.004321,4169.75231 737.996159,4164.32398 C737.996159,4164.32398 738.11331,4163.03875 737.053664,4162.91975 C737.053664,4162.91975 735.800524,4162.8456 735.800524,4164.2123 C735.800524,4164.2123 735.744829,4169.56694 733.600569,4171.73049 C733.600569,4171.73049 731.702615,4169.55962 731.547053,4164.4503 C731.547053,4164.4503 731.481755,4160.94798 730.795649,4159.01693 C730.795649,4159.01693 730.176282,4161.18232 730.051448,4164.18209 C730.051448,4164.18209 730.102822,4164.73087 729.604447,4165.11671 C729.604447,4165.11671 729.275558,4165.2705 729.339415,4165.817 C729.339415,4165.817 729.798899,4170.27546 731.356921,4172.80014 C731.356921,4172.80014 728.055067,4173.00519 727.40113,4166.70768 C727.40113,4166.70768 727.393928,4165.78679 726.858583,4165.21329 C726.858583,4165.21329 726.466797,4164.94737 726.426946,4164.30201 C726.426946,4164.30201 726.33044,4163.41041 726.610836,4160.52872 C726.610836,4160.52872 726.677094,4159.89755 726.386615,4159 C726.386615,4159 725.570875,4161.15257 725.785493,4163.26211 C725.785493,4163.26211 725.893042,4164.97483 725,4165.55199 C725,4165.55199 725.0749,4170.33267 727.06936,4172.9466 C727.06936,4172.9466 728.648028,4175.11428 731.632036,4174.99527 Z" id="Oval-2"></path>
        </g>
    </g>
</svg>