<?xml version="1.0" encoding="UTF-8"?>
<svg width="56px" height="56px" viewBox="0 0 56 56" version="1.1" xmlns="http://www.w3.org/2000/svg" xmlns:xlink="http://www.w3.org/1999/xlink">
    <!-- Generator: Sketch 52.2 (67145) - http://www.bohemiancoding.com/sketch -->
    <title>icon_ShorePower</title>
    <desc>Created with Sketch.</desc>
    <g id="Zeplin" stroke="none" stroke-width="1" fill="none" fill-rule="evenodd">
        <g id="Style-Guide" transform="translate(-535.000000, -4136.000000)" fill="#FFFFFF">
            <path d="M543.114705,4183.71231 L543.711111,4183.91111 L549.311111,4177.68889 L550.796902,4179.55556 L557.192593,4173.05993 C559.879422,4174.41165 562.544293,4174.91131 565.187205,4174.55892 C567.830118,4174.20653 570.16188,4173.04065 572.182492,4171.06128 L554.694276,4153.57306 C552.772728,4155.29056 551.606847,4157.68761 551.196633,4160.76422 C550.786419,4163.84082 551.286082,4166.44041 552.695623,4168.56296 C548.365208,4172.89338 546.2,4175.05859 546.2,4175.05859 L548.066667,4176.44444 C547.544037,4176.98027 545.610881,4179.10519 542.267198,4182.8192 C537.751778,4177.8476 535,4171.24516 535,4164 C535,4148.53603 547.536027,4136 563,4136 C578.463973,4136 591,4148.53603 591,4164 C591,4179.46397 578.463973,4192 563,4192 C555.224019,4192 548.188378,4188.83023 543.114705,4183.71231 Z M556.206955,4152.07407 L573.681481,4169.56229 L576.679461,4166.56431 L573.681481,4163.56633 L577.616429,4159.63138 L577.92862,4159.31919 C578.618511,4158.6293 578.618511,4157.51077 577.92862,4156.82088 C577.238728,4156.13098 576.120194,4156.13098 575.430303,4156.82088 L575.131249,4157.11993 L571.183165,4161.06801 L564.687542,4154.57239 L568.66745,4150.59248 L568.93468,4150.32525 C569.624571,4149.63536 569.624571,4148.51683 568.93468,4147.82694 C568.244789,4147.13704 567.126255,4147.13704 566.436364,4147.82694 L566.171881,4148.09142 L562.032482,4152.23082 L559.041347,4149.23968 L556.206955,4152.07407 Z" id="icon_ShorePower"></path>
        </g>
    </g>
</svg>