<svg viewBox="0 0 32 32" fill="none" xmlns="http://www.w3.org/2000/svg">
<path d="M2.49058 0.634422C1.97802 0.121859 1.14699 0.121859 0.634424 0.634422C0.121861 1.14699 0.121861 1.97801 0.634424 2.49058L14.1438 16L0.634422 29.5094C0.12186 30.022 0.121859 30.853 0.634422 31.3656C1.14699 31.8781 1.97801 31.8781 2.49058 31.3656L16 17.8562L29.5094 31.3656C30.022 31.8781 30.853 31.8781 31.3656 31.3656C31.8781 30.853 31.8781 30.022 31.3656 29.5094L17.8562 16L31.3656 2.49058C31.8781 1.97802 31.8781 1.14699 31.3656 0.634425C30.853 0.121862 30.022 0.121862 29.5094 0.634425L16 14.1438L2.49058 0.634422Z" fill="currentColor"/>
</svg>
