<svg viewBox="0 0 17 28" fill="none" xmlns="http://www.w3.org/2000/svg">
<path fill-rule="evenodd" clip-rule="evenodd" d="M6.99965 0C9.20879 0 10.9997 1.79086 10.9997 4V15.2543C12.8131 16.5192 13.9997 18.6208 13.9997 20.9995C13.9997 24.8654 10.8657 27.9993 6.99983 27.9993C3.13393 27.9993 0 24.8654 0 20.9995C0 18.6209 1.18637 16.5194 2.99965 15.2545V4C2.99965 1.79086 4.79051 0 6.99965 0ZM9.85548 16.8946L8.99965 16.2977V4C8.99965 2.89543 8.10422 2 6.99965 2C5.89508 2 4.99965 2.89543 4.99965 4V16.2979L4.14392 16.8948C2.84385 17.8017 2 19.3022 2 20.9995C2 23.7608 4.2385 25.9993 6.99983 25.9993C9.76115 25.9993 11.9997 23.7608 11.9997 20.9995C11.9997 19.3021 11.1557 17.8015 9.85548 16.8946Z" fill="currentColor"/>
<path d="M15.9997 4C16.5519 4 16.9997 4.44772 16.9997 5C16.9997 5.55228 16.5519 6 15.9997 6H13.9997C13.4474 6 12.9997 5.55228 12.9997 5C12.9997 4.44772 13.4474 4 13.9997 4H15.9997Z" fill="currentColor"/>
<path d="M16.9997 9C16.9997 8.44772 16.5519 8 15.9997 8H13.9997C13.4474 8 12.9997 8.44772 12.9997 9C12.9997 9.55228 13.4474 10 13.9997 10H15.9997C16.5519 10 16.9997 9.55228 16.9997 9Z" fill="currentColor"/>
<path d="M15.9997 12C16.5519 12 16.9997 12.4477 16.9997 13C16.9997 13.5523 16.5519 14 15.9997 14H13.9997C13.4474 14 12.9997 13.5523 12.9997 13C12.9997 12.4477 13.4474 12 13.9997 12H15.9997Z" fill="currentColor"/>
</svg>
