<svg viewBox="0 0 20 28" fill="none" xmlns="http://www.w3.org/2000/svg">
<path fill-rule="evenodd" clip-rule="evenodd" d="M10 3.06757C9.18129 4.06323 8.16716 5.36912 7.02601 7.00825C5.70532 8.90528 4.42682 11.0304 3.48607 13.0967C2.52917 15.1984 2 17.071 2 18.5136C2 22.5611 5.46534 25.9997 10 25.9997C14.5347 25.9997 18 22.5611 18 18.5136C18 17.071 17.4708 15.1984 16.5139 13.0967C15.5732 11.0304 14.2947 8.90528 12.974 7.00825C11.8328 5.36912 10.8187 4.06323 10 3.06757ZM10.7359 0.836187C10.3474 0.385333 9.65264 0.385333 9.26412 0.836187C8.31744 1.93474 6.96709 3.59248 5.38461 5.86553C2.64738 9.79728 0 14.7908 0 18.5136C0 23.7631 4.4608 27.9997 10 27.9997C15.5392 27.9997 20 23.7631 20 18.5136C20 14.7908 17.3526 9.79728 14.6154 5.86553C13.0329 3.59248 11.6826 1.93474 10.7359 0.836187Z" fill="currentColor"/>
<path d="M9 13.9997C9 15.1043 8.10457 15.9997 7 15.9997C5.89543 15.9997 5 15.1043 5 13.9997C5 12.8952 5.89543 11.9997 7 11.9997C8.10457 11.9997 9 12.8952 9 13.9997Z" fill="currentColor"/>
<path d="M15 20.9997C15 22.1043 14.1046 22.9997 13 22.9997C11.8954 22.9997 11 22.1043 11 20.9997C11 19.8952 11.8954 18.9997 13 18.9997C14.1046 18.9997 15 19.8952 15 20.9997Z" fill="currentColor"/>
<path fill-rule="evenodd" clip-rule="evenodd" d="M6.4453 22.8318C5.98577 22.5254 5.8616 21.9046 6.16795 21.445L12.1679 12.445C12.4743 11.9855 13.0952 11.8613 13.5547 12.1677C14.0142 12.474 14.1384 13.0949 13.8321 13.5544L7.83205 22.5544C7.5257 23.014 6.90483 23.1381 6.4453 22.8318Z" fill="currentColor"/>
</svg>
