<svg viewBox="0 0 32 33" fill="none" xmlns="http://www.w3.org/2000/svg">
    <path d="M15 23.5C15 24.0523 15.4477 24.5 16 24.5C16.5523 24.5 17 24.0523 17 23.5V13.5C17 12.9477 16.5523 12.5 16 12.5C15.4477 12.5 15 12.9477 15 13.5V23.5Z" fill="currentColor"/>
    <path d="M16 10.5C16.5523 10.5 17 10.0523 17 9.5C17 8.94772 16.5523 8.5 16 8.5C15.4477 8.5 15 8.94772 15 9.5C15 10.0523 15.4477 10.5 16 10.5Z" fill="currentColor"/>
    <path fill-rule="evenodd" clip-rule="evenodd" d="M16 30.5C23.732 30.5 30 24.232 30 16.5C30 8.76801 23.732 2.5 16 2.5C8.26801 2.5 2 8.76801 2 16.5C2 24.232 8.26801 30.5 16 30.5ZM16 28.5C22.6274 28.5 28 23.1274 28 16.5C28 9.87258 22.6274 4.5 16 4.5C9.37258 4.5 4 9.87258 4 16.5C4 23.1274 9.37258 28.5 16 28.5Z" fill="currentColor"/>
</svg>
