<svg viewBox="0 0 33 32" fill="none" xmlns="http://www.w3.org/2000/svg">
    <path d="M14.25 14.6C14.1515 14.6 14.054 14.6181 13.963 14.6533C13.872 14.6885 13.7893 14.74 13.7197 14.805C13.65 14.87 13.5948 14.9472 13.5571 15.0321C13.5194 15.117 13.5 15.2081 13.5 15.3C13.5 16.0732 12.8284 16.7 12 16.7C11.1716 16.7 10.5 16.0732 10.5 15.3C10.5 14.8404 10.597 14.3852 10.7855 13.9606C10.9739 13.536 11.2501 13.1501 11.5983 12.8251C11.9466 12.5001 12.36 12.2423 12.8149 12.0664C13.2699 11.8905 13.7575 11.8 14.25 11.8C14.7425 11.8 15.2301 11.8905 15.6851 12.0664C16.14 12.2423 16.5534 12.5001 16.9017 12.8251C17.2499 13.1501 17.5261 13.536 17.7145 13.9606C17.903 14.3852 18 14.8404 18 15.3C18 15.3919 18.0194 15.4829 18.0571 15.5679C18.0948 15.6528 18.15 15.73 18.2197 15.795C18.2893 15.86 18.372 15.9115 18.463 15.9467C18.554 15.9819 18.6515 16 18.75 16C18.8485 16 18.946 15.9819 19.037 15.9467C19.128 15.9115 19.2107 15.86 19.2803 15.795C19.35 15.73 19.4052 15.6528 19.4429 15.5679C19.4806 15.483 19.5 15.3919 19.5 15.3C19.5 14.5268 20.1716 13.9 21 13.9C21.8284 13.9 22.5 14.5268 22.5 15.3C22.5 15.7596 22.403 16.2148 22.2145 16.6394C22.0261 17.064 21.7499 17.4499 21.4016 17.7749C21.0534 18.0999 20.64 18.3577 20.1851 18.5336C19.7301 18.7095 19.2425 18.8 18.75 18.8C18.2575 18.8 17.7699 18.7095 17.3149 18.5336C16.86 18.3577 16.4466 18.0999 16.0983 17.7749C15.7501 17.4499 15.4739 17.064 15.2855 16.6394C15.097 16.2148 15 15.7596 15 15.3C15 15.2081 14.9806 15.117 14.9429 15.0321C14.9052 14.9472 14.85 14.87 14.7803 14.805C14.7107 14.74 14.628 14.6885 14.537 14.6533C14.446 14.6181 14.3485 14.6 14.25 14.6Z" fill="currentColor"/>
    <path fill-rule="evenodd" clip-rule="evenodd" d="M6 2C5.17157 2 4.5 2.6268 4.5 3.4V28.6C4.5 29.3732 5.17157 30 6 30H27C27.8284 30 28.5 29.3732 28.5 28.6V3.4C28.5 2.6268 27.8284 2 27 2H6ZM7.5 4.8V27.2H25.5V4.8H7.5Z" fill="currentColor"/>
</svg>
