<svg viewBox="0 0 25 24" fill="none" xmlns="http://www.w3.org/2000/svg">
    <path d="M3.5 4C2.94772 4 2.5 4.44772 2.5 5C2.5 5.55228 2.94772 6 3.5 6H21.5C22.0523 6 22.5 5.55228 22.5 5C22.5 4.44772 22.0523 4 21.5 4H3.5Z" fill="currentColor"/>
    <path d="M3.5 14C2.94772 14 2.5 14.4477 2.5 15C2.5 15.5523 2.94772 16 3.5 16H21.5C22.0523 16 22.5 15.5523 22.5 15C22.5 14.4477 22.0523 14 21.5 14H3.5Z" fill="currentColor"/>
    <path d="M2.5 10C2.5 9.44772 2.94772 9 3.5 9H15.7857C16.338 9 16.7857 9.44772 16.7857 10C16.7857 10.5523 16.338 11 15.7857 11H3.5C2.94772 11 2.5 10.5523 2.5 10Z" fill="currentColor"/>
    <path d="M3.5 19C2.94772 19 2.5 19.4477 2.5 20C2.5 20.5523 2.94772 21 3.5 21H18.6428C19.1951 21 19.6428 20.5523 19.6428 20C19.6428 19.4477 19.1951 19 18.6428 19H3.5Z" fill="currentColor"/>
</svg>
