<svg viewBox="0 0 28 28" fill="none" xmlns="http://www.w3.org/2000/svg">
<path d="M20 7C20 6.44772 19.5523 6 19 6C18.4477 6 18 6.44772 18 7V9.83772C18 11.8247 17.6797 13.7987 17.0513 15.6838C16.355 17.7727 16 19.9603 16 22.1623V22.5858L14.7071 21.2929C14.3166 20.9024 13.6834 20.9024 13.2929 21.2929C12.9024 21.6834 12.9024 22.3166 13.2929 22.7071L16.2929 25.7071C16.3417 25.7559 16.3943 25.7986 16.4498 25.8352C16.8379 26.0915 17.3654 26.0488 17.7071 25.7071L20.7071 22.7071C21.0976 22.3166 21.0976 21.6834 20.7071 21.2929C20.3166 20.9024 19.6834 20.9024 19.2929 21.2929L18 22.5858V22.1623C18 20.1753 18.3203 18.2013 18.9487 16.3162C19.645 14.2273 20 12.0397 20 9.83772V7Z" fill="currentColor"/>
<path d="M11 7C11 6.44772 10.5523 6 10 6C9.44772 6 9 6.44772 9 7V9.83772C9 11.8247 8.67966 13.7987 8.05132 15.6838C7.35499 17.7727 7 19.9603 7 22.1623V22.5858L5.70711 21.2929C5.31658 20.9024 4.68342 20.9024 4.29289 21.2929C3.90237 21.6834 3.90237 22.3166 4.29289 22.7071L7.29289 25.7071C7.34171 25.7559 7.39431 25.7986 7.44976 25.8352C7.83792 26.0915 8.3654 26.0488 8.70711 25.7071L11.7071 22.7071C12.0976 22.3166 12.0976 21.6834 11.7071 21.2929C11.3166 20.9024 10.6834 20.9024 10.2929 21.2929L9 22.5858V22.1623C9 20.1753 9.32034 18.2013 9.94868 16.3162C10.645 14.2273 11 12.0397 11 9.83772V7Z" fill="currentColor"/>
<path d="M23 3C22.4477 3 22 3.44772 22 4C22 4.55228 22.4477 5 23 5H26V9H25C24.4477 9 24 9.44772 24 10C24 10.5523 24.4477 11 25 11H26V15H23C22.4477 15 22 15.4477 22 16C22 16.5523 22.4477 17 23 17H26V21H25C24.4477 21 24 21.4477 24 22C24 22.5523 24.4477 23 25 23H26V27H23C22.4477 27 22 27.4477 22 28C22 28.5523 22.4477 29 23 29H27C27.5523 29 28 28.5523 28 28V4C28 3.44772 27.5523 3 27 3H23Z" fill="currentColor"/>
</svg>