<svg viewBox="0 0 20 20" fill="none" xmlns="http://www.w3.org/2000/svg">
<path fill-rule="evenodd" clip-rule="evenodd" d="M20 10C20 15.5228 15.5228 20 10 20C4.47715 20 0 15.5228 0 10C0 4.47715 4.47715 0 10 0C15.5228 0 20 4.47715 20 10ZM15.6025 16.6125C14.0918 17.8938 12.1361 18.6667 10 18.6667C5.21353 18.6667 1.33333 14.7865 1.33333 10C1.33333 7.86389 2.10614 5.90828 3.38742 4.3975L15.6025 16.6125ZM16.6127 15.6024L4.39758 3.38735C5.90834 2.10611 7.86393 1.33333 10 1.33333C14.7865 1.33333 18.6667 5.21353 18.6667 10C18.6667 12.1361 17.8939 14.0916 16.6127 15.6024Z" fill="white"/>
</svg>
