<svg viewBox="0 0 32 32" fill="none" xmlns="http://www.w3.org/2000/svg">
    <path d="M14.6665 4.00008C14.6665 3.2637 15.2635 2.66675 15.9998 2.66675C16.7362 2.66675 17.3332 3.2637 17.3332 4.00008C17.3332 4.73646 16.7362 5.33341 15.9998 5.33341C15.2635 5.33341 14.6665 4.73646 14.6665 4.00008Z" fill="currentColor"/>
    <path fill-rule="evenodd" clip-rule="evenodd" d="M15.9998 24.0001C20.4181 24.0001 23.9998 20.4184 23.9998 16.0001C23.9998 11.5818 20.4181 8.00008 15.9998 8.00008C11.5816 8.00008 7.99984 11.5818 7.99984 16.0001C7.99984 20.4184 11.5816 24.0001 15.9998 24.0001ZM15.9998 21.3334C18.9454 21.3334 21.3332 18.9456 21.3332 16.0001C21.3332 13.0546 18.9454 10.6667 15.9998 10.6667C13.0543 10.6667 10.6665 13.0546 10.6665 16.0001C10.6665 18.9456 13.0543 21.3334 15.9998 21.3334Z" fill="currentColor"/>
    <path d="M15.9998 26.6667C15.2635 26.6667 14.6665 27.2637 14.6665 28.0001C14.6665 28.7365 15.2635 29.3334 15.9998 29.3334C16.7362 29.3334 17.3332 28.7365 17.3332 28.0001C17.3332 27.2637 16.7362 26.6667 15.9998 26.6667Z" fill="currentColor"/>
    <path d="M27.9998 14.6667C28.7362 14.6667 29.3332 15.2637 29.3332 16.0001C29.3332 16.7365 28.7362 17.3334 27.9998 17.3334C27.2635 17.3334 26.6665 16.7365 26.6665 16.0001C26.6665 15.2637 27.2635 14.6667 27.9998 14.6667Z" fill="currentColor"/>
    <path d="M5.33317 16.0001C5.33317 15.2637 4.73622 14.6667 3.99984 14.6667C3.26346 14.6667 2.6665 15.2637 2.6665 16.0001C2.6665 16.7365 3.26346 17.3334 3.99984 17.3334C4.73622 17.3334 5.33317 16.7365 5.33317 16.0001Z" fill="currentColor"/>
    <path d="M23.5424 6.57196C24.0631 6.05126 24.9073 6.05126 25.428 6.57196C25.9487 7.09266 25.9487 7.93688 25.428 8.45758C24.9073 8.97828 24.0631 8.97828 23.5424 8.45758C23.0217 7.93688 23.0217 7.09266 23.5424 6.57196Z" fill="currentColor"/>
    <path d="M8.45729 23.5425C7.9366 23.0218 7.09238 23.0218 6.57168 23.5425C6.05098 24.0632 6.05098 24.9074 6.57168 25.4281C7.09238 25.9488 7.9366 25.9488 8.45729 25.4281C8.97799 24.9074 8.97799 24.0632 8.45729 23.5425Z" fill="currentColor"/>
    <path d="M25.4278 23.5426C25.9485 24.0633 25.9485 24.9075 25.4278 25.4282C24.9071 25.9489 24.0629 25.9489 23.5422 25.4282C23.0215 24.9075 23.0215 24.0633 23.5422 23.5426C24.0629 23.0219 24.9071 23.0219 25.4278 23.5426Z" fill="currentColor"/>
    <path d="M8.45742 8.45754C8.97812 7.93684 8.97812 7.09262 8.45742 6.57192C7.93672 6.05122 7.0925 6.05122 6.5718 6.57192C6.0511 7.09262 6.0511 7.93684 6.5718 8.45754C7.0925 8.97824 7.93672 8.97824 8.45742 8.45754Z" fill="currentColor"/>
</svg>
