<?xml version="1.0" encoding="UTF-8"?>
<svg width="38px" height="36px" viewBox="0 0 38 36" version="1.1" xmlns="http://www.w3.org/2000/svg" xmlns:xlink="http://www.w3.org/1999/xlink">
    <!-- Generator: Sketch 52.2 (67145) - http://www.bohemiancoding.com/sketch -->
    <title>icon_connected</title>
    <desc>Created with Sketch.</desc>
    <g id="Zeplin" stroke="none" stroke-width="1" fill="none" fill-rule="evenodd">
        <g id="Style-Guide" transform="translate(-1467.000000, -4159.000000)" fill="#FFFFFF">
            <path d="M1482.2,4177.94737 C1482.2,4180.03158 1483.91,4181.73684 1486,4181.73684 C1488.09,4181.73684 1489.8,4180.03158 1489.8,4177.94737 C1489.8,4175.86316 1488.09,4174.15789 1486,4174.15789 C1483.91,4174.15789 1482.2,4175.86316 1482.2,4177.94737 Z M1486,4166.57895 C1479.73,4166.57895 1474.6,4171.69474 1474.6,4177.94737 C1474.6,4182.11579 1476.88,4185.71579 1480.3,4187.8 L1482.2,4184.57895 C1479.92,4183.25263 1478.4,4180.78947 1478.4,4178.13684 C1478.4,4173.96842 1481.82,4170.55789 1486,4170.55789 C1490.18,4170.55789 1493.6,4173.96842 1493.6,4178.13684 C1493.6,4180.97895 1492.08,4183.44211 1489.8,4184.57895 L1491.7,4187.8 C1495.12,4185.71579 1497.4,4182.11579 1497.4,4177.94737 C1497.4,4171.69474 1492.27,4166.57895 1486,4166.57895 Z M1467,4177.94737 C1467,4184.95789 1470.8,4191.02105 1476.5,4194.24211 L1478.4,4191.02105 C1473.84,4188.36842 1470.8,4183.44211 1470.8,4177.94737 C1470.8,4169.61053 1477.64,4162.78947 1486,4162.78947 C1494.36,4162.78947 1501.2,4169.61053 1501.2,4177.94737 C1501.2,4183.63158 1498.16,4188.36842 1493.6,4191.02105 L1495.5,4194.24211 C1501.2,4191.02105 1505,4184.76842 1505,4177.94737 C1505,4167.52632 1496.45,4159 1486,4159 C1475.55,4159 1467,4167.52632 1467,4177.94737 Z" id="icon_connected"></path>
        </g>
    </g>
</svg>