<svg viewBox="0 0 32 32" fill="none" xmlns="http://www.w3.org/2000/svg">
    <path d="M7.99984 13.3334C7.99984 12.597 8.59679 12.0001 9.33317 12.0001H22.6665C23.4029 12.0001 23.9998 12.597 23.9998 13.3334C23.9998 14.0698 23.4029 14.6667 22.6665 14.6667H9.33317C8.59679 14.6667 7.99984 14.0698 7.99984 13.3334Z" fill="currentColor"/>
    <path d="M9.33317 17.3334C8.59679 17.3334 7.99984 17.9304 7.99984 18.6667C7.99984 19.4031 8.59679 20.0001 9.33317 20.0001H10.6665C11.4029 20.0001 11.9998 19.4031 11.9998 18.6667C11.9998 17.9304 11.4029 17.3334 10.6665 17.3334H9.33317Z" fill="currentColor"/>
    <path d="M13.3332 18.6667C13.3332 17.9304 13.9301 17.3334 14.6665 17.3334H17.3332C18.0695 17.3334 18.6665 17.9304 18.6665 18.6667C18.6665 19.4031 18.0695 20.0001 17.3332 20.0001H14.6665C13.9301 20.0001 13.3332 19.4031 13.3332 18.6667Z" fill="currentColor"/>
    <path d="M21.3332 17.3334C20.5968 17.3334 19.9998 17.9304 19.9998 18.6667C19.9998 19.4031 20.5968 20.0001 21.3332 20.0001H22.6665C23.4029 20.0001 23.9998 19.4031 23.9998 18.6667C23.9998 17.9304 23.4029 17.3334 22.6665 17.3334H21.3332Z" fill="currentColor"/>
    <path fill-rule="evenodd" clip-rule="evenodd" d="M15.9998 29.3334C23.3636 29.3334 29.3332 23.3639 29.3332 16.0001C29.3332 8.63628 23.3636 2.66675 15.9998 2.66675C8.63604 2.66675 2.6665 8.63628 2.6665 16.0001C2.6665 23.3639 8.63604 29.3334 15.9998 29.3334ZM15.9998 26.6667C21.8909 26.6667 26.6665 21.8911 26.6665 16.0001C26.6665 10.109 21.8909 5.33341 15.9998 5.33341C10.1088 5.33341 5.33317 10.109 5.33317 16.0001C5.33317 21.8911 10.1088 26.6667 15.9998 26.6667Z" fill="currentColor"/>
</svg>
