<svg viewBox="0 0 25 24" fill="none" xmlns="http://www.w3.org/2000/svg">
    <path fill-rule="evenodd" clip-rule="evenodd" d="M10.5 20V19L10.5 12H12.5H14.5L20.5 12L20.5 20L10.5 20ZM9.5 10L10.5 10L12.5 10V8L12.5 6V4L10.5 4L6.5 4L4.5 4L4.5 6L4.5 17V19H6.5H8.5V17L8.5 11C8.5 10.4477 8.94772 10 9.5 10ZM14.5 10H16.5L21.5 10C22.0523 10 22.5 10.4477 22.5 11L22.5 21C22.5 21.5523 22.0523 22 21.5 22L9.5 22C8.94772 22 8.5 21.5523 8.5 21L6.5 21L4.5 21L3.5 21C2.94771 21 2.5 20.5523 2.5 20V19V4V3C2.5 2.44771 2.94772 2 3.5 2H4.5H12.5H13.5C14.0523 2 14.5 2.44772 14.5 3V4L14.5 8V10ZM14.5 18C15.0523 18 15.5 17.5523 15.5 17C15.5 16.4477 15.0523 16 14.5 16C13.9477 16 13.5 16.4477 13.5 17C13.5 17.5523 13.9477 18 14.5 18ZM18.5 17C18.5 17.5523 18.0523 18 17.5 18C16.9477 18 16.5 17.5523 16.5 17C16.5 16.4477 16.9477 16 17.5 16C18.0523 16 18.5 16.4477 18.5 17ZM10.5 6H6.5V8H10.5V6Z" fill="currentColor"/>
</svg>
