<svg viewBox="0 0 33 32" fill="none" xmlns="http://www.w3.org/2000/svg">
    <path fill-rule="evenodd" clip-rule="evenodd" d="M22.5 14V17H23.5C25.1569 17 26.5 18.3431 26.5 20V25C26.5 25.5523 26.9477 26 27.5 26C28.0523 26 28.5 25.5523 28.5 25V10.3472L26.7151 8.08632L28.2849 6.84703L30.5 9.65285V25C30.5 26.6569 29.1569 28 27.5 28C25.8431 28 24.5 26.6569 24.5 25V20C24.5 19.4477 24.0523 19 23.5 19H22.5V29C22.5 29.5523 22.0523 30 21.5 30H8.5C7.94772 30 7.5 29.5523 7.5 29V14H5.5C4.94772 14 4.5 13.5523 4.5 13V3C4.5 2.44772 4.94772 2 5.5 2H24.5C25.0523 2 25.5 2.44772 25.5 3V13C25.5 13.5523 25.0523 14 24.5 14H22.5ZM9.5 14V28H20.5V14H9.5ZM23.5 12V4H6.5V12H23.5Z" fill="currentColor"/>
</svg>
