<svg viewBox="0 0 32 32" fill="none" xmlns="http://www.w3.org/2000/svg">
    <path d="M16 2.6665C16.7364 2.6665 17.3333 3.26346 17.3333 3.99984V10.8347C16.9072 10.725 16.4604 10.6666 16 10.6666C15.5396 10.6666 15.0928 10.725 14.6667 10.8347V3.99984C14.6667 3.26346 15.2636 2.6665 16 2.6665Z" fill="currentColor"/>
    <path d="M19.8055 19.7366C20.4293 19.1013 20.8953 18.3106 21.14 17.4279L27.0591 20.8453C27.6969 21.2134 27.9154 22.0289 27.5472 22.6666C27.179 23.3043 26.3635 23.5228 25.7258 23.1547L19.8055 19.7366Z" fill="currentColor"/>
    <path d="M10.8599 17.4275C11.1045 18.3103 11.5704 19.101 12.1942 19.7363L6.27366 23.1545C5.63594 23.5227 4.82048 23.3042 4.45229 22.6665C4.0841 22.0288 4.3026 21.2133 4.94033 20.8451L10.8599 17.4275Z" fill="currentColor"/>
    <path d="M16 18.6666C17.4728 18.6666 18.6667 17.4727 18.6667 16C18.6667 14.5272 17.4728 13.3333 16 13.3333C14.5272 13.3333 13.3333 14.5272 13.3333 16C13.3333 17.4727 14.5272 18.6666 16 18.6666Z" fill="currentColor"/>
</svg>
