<svg viewBox="0 0 24 24" fill="none" xmlns="http://www.w3.org/2000/svg">
    <path d="M12 15.0858L14.2071 17.2929C14.5976 17.6834 14.5976 18.3166 14.2071 18.7071C13.8166 19.0976 13.1834 19.0976 12.7929 18.7071L12 17.9142L11.2071 18.7071C10.8166 19.0976 10.1834 19.0976 9.79289 18.7071C9.40237 18.3166 9.40237 17.6834 9.79289 17.2929L12 15.0858Z" fill="currentColor"/>
    <path d="M14.2071 13.2929L12 11.0858L9.79289 13.2929C9.40237 13.6834 9.40237 14.3166 9.79289 14.7071C10.1834 15.0976 10.8166 15.0976 11.2071 14.7071L12 13.9142L12.7929 14.7071C13.1834 15.0976 13.8166 15.0976 14.2071 14.7071C14.5976 14.3166 14.5976 13.6834 14.2071 13.2929Z" fill="currentColor"/>
    <path d="M12 7.08578L14.2071 9.29289C14.5976 9.68342 14.5976 10.3166 14.2071 10.7071C13.8166 11.0976 13.1834 11.0976 12.7929 10.7071L12 9.91421L11.2071 10.7071C10.8166 11.0976 10.1834 11.0976 9.79289 10.7071C9.40237 10.3166 9.40237 9.68342 9.79289 9.29289L12 7.08578Z" fill="currentColor"/>
    <path fill-rule="evenodd" clip-rule="evenodd" d="M10 3C10 2.44772 10.4477 2 11 2H13C13.5523 2 14 2.44772 14 3V4H17C17.5523 4 18 4.44772 18 5V21C18 21.5523 17.5523 22 17 22H7C6.44772 22 6 21.5523 6 21V5C6 4.44772 6.44772 4 7 4H10V3ZM8 20V6H16V20H8Z" fill="currentColor"/>
</svg>
