<svg viewBox="0 0 24 24" fill="none" xmlns="http://www.w3.org/2000/svg">
    <path d="M10 3C10 2.44772 10.4477 2 11 2H13C13.5523 2 14 2.44772 14 3V4H17C17.5523 4 18 4.44772 18 5V10.0001H16V9.03504C16.0002 9.01325 16.0002 8.99146 16 8.96968V6H13.0294C13.0113 5.99984 12.9933 5.99984 12.9752 6H8V10.6667L6 13.3334V5C6 4.44772 6.44772 4 7 4H10V3Z" fill="currentColor"/>
    <path d="M6 16.0001V21C6 21.5523 6.44772 22 7 22H17C17.5523 22 18 21.5523 18 21V12.6667L16 15.3334V20H11.0349C11.0101 20.0003 10.9853 20.0003 10.9605 20H8V17.0303C7.99976 17.0086 7.99976 16.9869 8 16.9651V16.0001H6Z" fill="currentColor"/>
    <path d="M13.8 9.60006C14.1314 9.15823 14.0418 8.53143 13.6 8.20006C13.1582 7.86869 12.5314 7.95823 12.2 8.40006L8 14.0001H12L10.2 16.4001C9.86863 16.8419 9.95817 17.4687 10.4 17.8001C10.8418 18.1314 11.4686 18.0419 11.8 17.6001L16 12.0001H12L13.8 9.60006Z" fill="currentColor"/>
</svg>
