<svg viewBox="0 0 33 32" fill="none" xmlns="http://www.w3.org/2000/svg">
    <path d="M19.5 23C21.1569 23 22.5 21.6568 22.5 20C22.5 18.3431 21.1569 17 19.5 17C17.8431 17 16.5 18.3431 16.5 20C16.5 21.6568 17.8431 23 19.5 23Z" fill="currentColor"/>
    <path d="M14.5 17C14.5 17.5523 14.0523 18 13.5 18C12.9477 18 12.5 17.5523 12.5 17C12.5 16.4477 12.9477 16 13.5 16C14.0523 16 14.5 16.4477 14.5 17Z" fill="currentColor"/>
    <path d="M12.5 24C13.6046 24 14.5 23.1046 14.5 22C14.5 20.8954 13.6046 20 12.5 20C11.3954 20 10.5 20.8954 10.5 22C10.5 23.1046 11.3954 24 12.5 24Z" fill="currentColor"/>
    <path fill-rule="evenodd" clip-rule="evenodd" d="M15.7641 2.83643C16.1526 2.38558 16.8474 2.38558 17.2359 2.83643C18.1826 3.93499 19.5329 5.59272 21.1154 7.86577C23.8526 11.7975 26.5 16.7911 26.5 20.5139C26.5 25.7634 22.0392 30 16.5 30C10.9608 30 6.5 25.7634 6.5 20.5139C6.5 16.7911 9.14738 11.7975 11.8846 7.86577C13.4671 5.59272 14.8174 3.93499 15.7641 2.83643ZM13.526 9.0085C14.6672 7.36936 15.6813 6.06348 16.5 5.06782C17.3187 6.06348 18.3328 7.36936 19.474 9.0085C20.7947 10.9055 22.0732 13.0306 23.0139 15.0969C23.9708 17.1987 24.5 19.0713 24.5 20.5139C24.5 24.5614 21.0347 28 16.5 28C11.9653 28 8.5 24.5614 8.5 20.5139C8.5 19.0713 9.02917 17.1987 9.98607 15.0969C10.9268 13.0306 12.2053 10.9055 13.526 9.0085Z" fill="currentColor"/>
</svg>
