<svg viewBox="0 0 33 32" fill="none" xmlns="http://www.w3.org/2000/svg">
    <path d="M12.5 21C12.5 20.4477 12.0523 20 11.5 20C10.9477 20 10.5 20.4477 10.5 21C10.5 21.6566 10.6552 22.3067 10.9567 22.9134C11.2582 23.52 11.7002 24.0712 12.2574 24.5355C12.8145 24.9998 13.4759 25.3681 14.2039 25.6194C14.9318 25.8707 15.7121 26 16.5 26C17.0523 26 17.5 25.5523 17.5 25C17.5 24.4477 17.0523 24 16.5 24C15.9289 24 15.3696 23.906 14.8565 23.7288C14.3432 23.5517 13.8975 23.2989 13.5377 22.9991C13.1785 22.6997 12.9172 22.3641 12.7477 22.0232C12.5792 21.6841 12.5 21.3378 12.5 21Z" fill="currentColor"/>
    <path fill-rule="evenodd" clip-rule="evenodd" d="M15.7641 2.83643C16.1526 2.38558 16.8474 2.38558 17.2359 2.83643C18.1826 3.93499 19.5329 5.59272 21.1154 7.86577C23.8526 11.7975 26.5 16.7911 26.5 20.5139C26.5 25.7634 22.0392 30 16.5 30C10.9608 30 6.5 25.7634 6.5 20.5139C6.5 16.7911 9.14738 11.7975 11.8846 7.86577C13.4671 5.59272 14.8174 3.93499 15.7641 2.83643ZM13.526 9.0085C14.6672 7.36936 15.6813 6.06348 16.5 5.06782C17.3187 6.06348 18.3328 7.36936 19.474 9.0085C20.7947 10.9055 22.0732 13.0306 23.0139 15.0969C23.9708 17.1987 24.5 19.0713 24.5 20.5139C24.5 24.5614 21.0347 28 16.5 28C11.9653 28 8.5 24.5614 8.5 20.5139C8.5 19.0713 9.02917 17.1987 9.98607 15.0969C10.9268 13.0306 12.2053 10.9055 13.526 9.0085Z" fill="currentColor"/>
</svg>
