<svg viewBox="0 0 28 25" fill="none" xmlns="http://www.w3.org/2000/svg">
<path d="M1.4 0C0.626801 0 0 0.658405 0 1.47059C0 2.28277 0.626801 2.94118 1.4 2.94118H26.6C27.3732 2.94118 28 2.28277 28 1.47059C28 0.658405 27.3732 0 26.6 0H1.4Z" fill="#969591"/>
<path d="M1.4 14.7059C0.626801 14.7059 0 15.3643 0 16.1765C0 16.9887 0.626801 17.6471 1.4 17.6471H26.6C27.3732 17.6471 28 16.9887 28 16.1765C28 15.3643 27.3732 14.7059 26.6 14.7059H1.4Z" fill="#969591"/>
<path d="M0 8.82353C0 8.01135 0.626801 7.35294 1.4 7.35294H18.6C19.3732 7.35294 20 8.01135 20 8.82353C20 9.63571 19.3732 10.2941 18.6 10.2941H1.4C0.626802 10.2941 0 9.63571 0 8.82353Z" fill="#969591"/>
<path d="M1.4 22.0588C0.626801 22.0588 0 22.7172 0 23.5294C0 24.3416 0.626804 25 1.4 25H22.6C23.3732 25 24 24.3416 24 23.5294C24 22.7172 23.3732 22.0588 22.6 22.0588H1.4Z" fill="#969591"/>
</svg>
