<svg viewBox="0 0 32 32" fill="none" xmlns="http://www.w3.org/2000/svg">
    <path d="M13 5.13489C12.2976 6.02638 11.4495 7.16432 10.504 8.56548C9.3188 10.322 8.17219 12.2886 7.32903 14.1993C6.47088 16.144 6 17.869 6 19.1915C6 22.9218 9.07922 26 13 26C14.8708 26 16.5501 25.2991 17.7946 24.161C18.4548 24.478 19.1625 24.7127 19.9042 24.852C18.2557 26.7779 15.7786 28 13 28C8.01472 28 4 24.066 4 19.1915C4 15.7346 6.38264 11.0977 8.84615 7.4468C10.2249 5.40344 11.4079 3.89558 12.2551 2.87591C12.6433 2.40855 13.3567 2.40855 13.7449 2.87591C14.5185 3.807 15.572 5.14514 16.799 6.92634C16.4086 7.51418 16.0181 8.13918 15.6442 8.78664C15.5949 8.71256 15.5455 8.63884 15.496 8.56548C14.5505 7.16432 13.7024 6.02638 13 5.13489Z" fill="currentColor"/>
    <path fill-rule="evenodd" clip-rule="evenodd" d="M20.7555 4.89393C21.1397 4.41721 21.8603 4.41721 22.2445 4.89393C22.836 5.6277 23.6117 6.64833 24.5 7.98034C26.2792 10.6483 28 14.0368 28 16.563C28 20.1251 25.1005 23 21.5 23C17.8995 23 15 20.1251 15 16.563C15 14.0368 16.7208 10.6483 18.5 7.98034C19.3883 6.64833 20.164 5.6277 20.7555 4.89393ZM20.1639 9.08998C20.6501 8.36099 21.0998 7.73126 21.5 7.19621C21.9002 7.73126 22.3499 8.36099 22.8361 9.08998C23.6797 10.355 24.4908 11.7641 25.084 13.1243C25.6917 14.5179 26 15.7012 26 16.563C26 19.0029 24.0136 21 21.5 21C18.9864 21 17 19.0029 17 16.563C17 15.7012 17.3083 14.5179 17.916 13.1243C18.5092 11.7641 19.3203 10.355 20.1639 9.08998Z" fill="currentColor"/>
</svg>
