<?xml version="1.0" encoding="UTF-8"?>
<svg width="20px" height="20px" viewBox="0 0 20 20" version="1.1" xmlns="http://www.w3.org/2000/svg" xmlns:xlink="http://www.w3.org/1999/xlink">
    <title></title>
    <g id="Symbols" stroke="none" stroke-width="1" fill="none" fill-rule="evenodd">
        <g id="UI/Theme-switcher" transform="translate(-38.000000, -6.000000)" fill="#F7AB3E" fill-rule="nonzero">
            <path d="M48.82,8.92 L48.82,6.46 L47.18,6.46 L47.18,8.92 L48.82,8.92 Z M53.54,11.2 L55.04,9.7 L53.86,8.54 L52.38,10.02 L53.54,11.2 Z M42.46,11.2 L43.62,10.02 L42.14,8.54 L40.96,9.7 L42.46,11.2 Z M48,20.56 C48.9066667,20.56 49.7433333,20.3366667 50.51,19.89 C51.2766667,19.4433333 51.8833333,18.8366667 52.33,18.07 C52.7766667,17.3033333 53,16.4666667 53,15.56 C53,14.6533333 52.7766667,13.8166667 52.33,13.05 C51.8833333,12.2833333 51.2766667,11.6766667 50.51,11.23 C49.7433333,10.7833333 48.9066667,10.56 48,10.56 C47.0933333,10.56 46.2566667,10.7833333 45.49,11.23 C44.7233333,11.6766667 44.1166667,12.2833333 43.67,13.05 C43.2233333,13.8166667 43,14.6533333 43,15.56 C43,16.4666667 43.2233333,17.3033333 43.67,18.07 C44.1166667,18.8366667 44.7233333,19.4433333 45.49,19.89 C46.2566667,20.3366667 47.0933333,20.56 48,20.56 Z M57.18,16.42 L57.18,14.74 L54.68,14.74 L54.68,16.42 L57.18,16.42 Z M41.32,16.42 L41.32,14.74 L38.82,14.74 L38.82,16.42 L41.32,16.42 Z M42.14,22.64 L43.62,21.12 L42.46,19.94 L40.96,21.46 L42.14,22.64 Z M53.86,22.64 L55.04,21.46 L53.54,19.98 L52.38,21.12 L53.86,22.64 Z M48.82,24.72 L48.82,22.24 L47.18,22.24 L47.18,24.72 L48.82,24.72 Z" id=""></path>
        </g>
    </g>
</svg>
