<?xml version="1.0" standalone="no"?>
<!DOCTYPE svg PUBLIC "-//W3C//DTD SVG 20010904//EN"
 "http://www.w3.org/TR/2001/REC-SVG-20010904/DTD/svg10.dtd">
<svg version="1.0" xmlns="http://www.w3.org/2000/svg"
 width="844.000000pt" height="844.000000pt" viewBox="0 0 844.000000 844.000000"
 preserveAspectRatio="xMidYMid meet">
<metadata>
Created by potrace 1.14, written by Peter Selinger 2001-2017
</metadata>
<g transform="translate(0.000000,844.000000) scale(0.100000,-0.100000)"
fill="#000000" stroke="none">
<path d="M2345 6800 c-22 -5 -53 -10 -70 -13 -97 -17 -342 -120 -391 -165 -10
-10 -41 -33 -67 -51 -131 -89 -310 -304 -401 -481 -33 -64 -63 -124 -80 -165
-10 -22 -23 -51 -30 -65 -7 -14 -23 -54 -35 -90 -13 -36 -26 -72 -29 -80 -3
-8 -6 -17 -7 -20 -1 -3 -4 -12 -8 -20 -17 -44 -82 -279 -91 -330 -2 -14 -5
-25 -6 -25 -1 0 -3 -7 -5 -15 -1 -8 -8 -40 -14 -70 -17 -85 -21 -103 -25 -135
-2 -16 -9 -59 -15 -95 -6 -36 -13 -87 -16 -115 -3 -27 -8 -68 -12 -90 -3 -22
-7 -51 -8 -65 -2 -14 -7 -61 -11 -105 -5 -44 -9 -165 -9 -270 0 -178 1 -193
22 -230 56 -100 124 -139 243 -138 89 1 136 19 188 71 45 45 59 88 67 202 3
47 8 112 10 145 3 33 7 94 10 136 11 174 20 253 50 444 62 386 177 722 325
942 49 72 60 81 81 60 41 -40 81 -54 85 -29 8 56 195 400 233 432 4 3 26 30
49 60 79 101 243 260 327 317 36 25 44 39 23 41 -7 0 -29 4 -48 7 -51 11 -288
14 -335 5z"/>
<path d="M3457 6804 c-2 -2 -37 -6 -78 -9 -41 -2 -89 -9 -107 -14 -18 -5 -35
-10 -37 -10 -20 0 -117 -26 -121 -33 -3 -4 -13 -8 -23 -8 -21 0 -168 -70 -236
-113 -209 -131 -397 -355 -530 -632 -26 -55 -52 -108 -57 -119 -57 -110 -167
-493 -193 -671 -3 -23 -7 -51 -10 -64 -4 -22 -10 -73 -20 -166 -3 -22 -7 -76
-10 -120 -3 -44 -8 -90 -10 -103 -2 -13 -7 -64 -10 -115 -4 -51 -8 -108 -10
-127 -12 -129 -18 -223 -17 -273 5 -175 173 -307 327 -257 45 14 124 69 125
86 0 6 6 17 14 23 21 17 35 92 41 211 6 119 12 207 19 265 3 22 8 65 11 95 3
30 8 66 10 80 2 14 6 43 10 65 3 23 7 52 10 65 3 13 7 40 10 60 6 40 10 64 25
135 6 28 12 60 15 73 2 13 7 32 10 42 3 10 8 27 10 37 18 77 35 143 45 168 7
17 14 41 16 54 3 14 8 29 12 35 4 6 7 13 7 16 7 57 131 318 200 421 56 84 51
82 104 52 25 -15 49 -31 52 -35 3 -5 17 17 30 48 70 167 164 328 268 459 98
124 170 198 299 304 29 24 50 46 47 49 -8 9 -31 12 -115 18 -41 3 -87 6 -102
8 -15 2 -29 2 -31 0z"/>
<path d="M4447 6794 c-1 -1 -38 -5 -82 -8 -44 -3 -91 -7 -105 -10 -14 -3 -36
-8 -49 -11 -114 -22 -237 -72 -358 -144 -110 -65 -143 -91 -245 -193 -72 -73
-188 -231 -188 -257 0 -6 -4 -11 -8 -11 -10 0 -99 -177 -145 -290 -89 -217
-182 -554 -212 -770 -3 -25 -8 -52 -10 -60 -2 -8 -7 -37 -10 -65 -3 -27 -7
-66 -10 -85 -27 -208 -41 -669 -21 -744 30 -118 130 -199 235 -191 144 12 240
114 246 264 9 190 17 329 20 356 2 17 6 59 9 95 4 36 8 75 10 86 2 11 7 47 10
79 4 32 8 61 10 64 2 3 7 29 10 56 4 28 12 70 17 95 6 25 12 54 14 65 16 123
116 436 185 582 61 129 182 313 207 313 24 0 213 -340 213 -383 0 -7 4 -17 9
-22 9 -10 87 -233 94 -270 2 -11 7 -27 10 -35 7 -19 53 -212 61 -260 3 -19 8
-46 11 -60 8 -37 13 -70 19 -120 3 -25 8 -54 10 -65 2 -12 7 -52 10 -90 4 -39
9 -90 12 -115 5 -53 12 -184 19 -400 3 -85 7 -175 10 -200 2 -25 7 -81 10
-125 8 -100 11 -126 19 -195 4 -30 9 -71 11 -90 4 -32 9 -69 21 -141 4 -25 28
-152 38 -196 17 -81 62 -217 67 -203 1 3 3 14 4 25 1 11 14 73 29 137 14 65
28 135 31 155 3 21 9 61 15 88 9 47 14 78 25 170 3 22 7 56 10 75 16 115 29
287 40 526 2 55 10 114 16 130 7 16 12 32 11 36 -1 3 25 34 58 69 63 66 78
106 67 180 -3 19 -9 57 -12 84 -10 72 -14 103 -25 165 -5 30 -12 71 -15 90 -7
46 -24 138 -30 170 -3 14 -8 39 -10 55 -3 17 -8 37 -10 45 -2 8 -6 26 -9 40
-8 38 -13 60 -30 126 -8 33 -17 69 -19 80 -2 10 -9 39 -16 64 -46 162 -63 217
-71 235 -4 11 -20 56 -35 100 -33 97 -73 191 -130 306 l-44 86 32 -3 c69 -8
94 -14 152 -37 162 -65 283 -171 398 -348 98 -151 212 -460 241 -653 4 -21 8
-41 10 -45 2 -3 6 -28 10 -56 3 -27 8 -61 11 -75 2 -14 7 -45 9 -70 3 -25 7
-55 10 -67 2 -12 6 -50 7 -85 6 -148 55 -282 136 -372 20 -21 45 -59 57 -85
20 -44 21 -61 21 -331 -1 -248 -5 -362 -20 -485 -2 -16 -7 -57 -11 -90 -19
-153 -1 -357 36 -425 8 -13 28 41 46 121 9 40 12 54 14 54 2 0 1 -3 28 126 12
53 24 121 27 150 11 88 13 102 20 149 4 25 9 153 10 285 4 270 8 321 37 414
27 89 52 135 99 186 l40 44 -6 103 c-8 132 -13 203 -20 253 -2 22 -7 60 -10
85 -11 97 -38 267 -50 325 -55 252 -82 350 -145 520 -60 160 -136 311 -215
423 -80 115 -233 255 -365 333 -121 71 -312 141 -425 155 -60 8 -206 20 -208
18z"/>
<path d="M1428 6785 c-2 -2 -32 -6 -67 -9 -230 -24 -432 -114 -620 -276 -72
-62 -188 -197 -218 -255 -9 -16 -19 -32 -22 -35 -16 -11 -126 -220 -123 -232
1 -3 -5 -12 -13 -18 -8 -7 -15 -18 -15 -25 0 -11 -19 -60 -56 -142 -8 -17 -14
-37 -14 -45 0 -8 -4 -18 -8 -23 -12 -14 -108 -324 -118 -381 -3 -16 -9 -45
-14 -64 -5 -19 -12 -50 -15 -69 -3 -19 -8 -38 -10 -42 -3 -4 -7 -26 -10 -50
-3 -23 -10 -61 -15 -83 -10 -47 -21 -111 -35 -216 -21 -154 -19 -141 -30 -240
-4 -41 -9 -86 -11 -100 -2 -14 -6 -82 -9 -151 -7 -163 12 -233 84 -311 13 -16
31 -28 38 -28 7 0 13 -4 13 -9 0 -16 94 -35 163 -34 74 2 133 25 175 69 36 38
46 77 57 209 2 33 7 92 10 130 3 39 8 93 10 120 3 28 8 75 11 105 13 142 25
232 58 425 8 50 33 160 55 245 50 192 45 174 71 245 12 33 25 71 29 85 13 40
83 191 113 243 15 26 28 52 28 57 0 6 4 10 9 10 5 0 12 9 16 20 9 28 110 158
156 201 22 20 66 51 99 67 88 45 221 173 283 272 57 91 174 202 276 263 l45
26 -30 6 c-16 4 -37 9 -46 11 -63 17 -289 39 -300 29z"/>
<path d="M2829 5353 c-7 -21 -14 -42 -15 -48 -1 -5 -14 -57 -28 -115 -26 -104
-51 -245 -62 -350 -3 -30 -7 -176 -9 -325 -4 -274 -7 -325 -24 -382 -5 -18 -8
-33 -6 -33 2 0 -7 -28 -20 -61 -25 -62 -60 -116 -101 -156 -20 -19 -22 -28
-19 -90 9 -140 14 -199 19 -233 3 -19 8 -57 10 -85 10 -89 17 -149 22 -175 3
-14 11 -64 19 -111 8 -47 22 -117 31 -155 9 -38 18 -80 20 -94 3 -14 8 -34 11
-45 4 -11 8 -24 9 -30 37 -191 180 -533 293 -702 184 -275 517 -473 861 -510
119 -13 309 -4 364 17 14 5 26 8 26 5 0 -4 90 20 120 32 8 3 20 7 27 8 35 8
216 104 277 148 93 66 185 152 236 218 8 12 25 33 36 47 29 36 128 200 163
270 109 217 231 602 275 872 3 19 8 46 11 60 4 23 9 53 21 143 3 23 7 53 9 67
3 23 14 136 21 220 2 19 6 116 9 214 3 98 8 183 11 187 3 5 2 9 -3 9 -4 0 -8
21 -8 48 0 26 -8 70 -18 98 -53 145 -179 202 -316 144 -96 -42 -152 -128 -156
-243 -5 -140 -17 -342 -21 -362 -2 -11 -6 -49 -10 -85 -3 -36 -7 -76 -9 -90
-13 -88 -16 -109 -20 -142 -2 -21 -11 -70 -19 -110 -12 -61 -27 -139 -30 -158
-1 -3 -5 -11 -9 -17 -5 -7 -6 -13 -3 -13 5 0 -22 -106 -51 -200 -10 -30 -18
-57 -18 -60 -1 -3 -5 -14 -9 -25 -16 -42 -19 -50 -22 -65 -2 -8 -7 -23 -13
-35 -5 -11 -30 -64 -54 -117 -50 -107 -139 -248 -185 -291 l-29 -28 -38 58
c-165 248 -316 687 -370 1073 -3 25 -8 56 -10 70 -2 14 -6 48 -9 75 -21 189
-24 237 -31 435 -5 167 -14 335 -20 400 -2 25 -7 74 -10 110 -3 36 -8 83 -11
105 -2 22 -7 60 -10 85 -5 47 -6 53 -25 165 -6 39 -12 77 -14 85 -8 58 -32
157 -72 294 -5 18 -6 18 -15 2 -5 -9 -12 -29 -14 -44 -3 -15 -10 -45 -16 -67
-5 -22 -12 -51 -13 -65 -2 -14 -10 -56 -19 -95 -12 -60 -28 -154 -41 -255 -2
-14 -7 -45 -11 -70 -4 -25 -8 -58 -9 -75 -4 -40 -15 -160 -20 -215 -3 -25 -7
-92 -11 -150 -3 -58 -7 -127 -8 -155 -6 -100 -33 -158 -100 -215 -53 -46 -59
-77 -41 -233 3 -32 8 -68 11 -80 2 -11 6 -39 9 -62 3 -22 13 -78 21 -125 8
-47 17 -98 19 -115 3 -16 7 -41 11 -55 3 -14 8 -38 11 -55 6 -34 7 -40 16 -75
4 -14 9 -36 11 -50 11 -67 92 -361 137 -495 54 -161 87 -239 155 -378 l44 -88
-53 6 c-100 12 -230 69 -314 138 -24 20 -127 124 -147 149 -65 82 -178 291
-202 373 -1 6 -12 35 -23 65 -19 53 -53 164 -56 185 -1 6 -3 12 -4 15 -2 3 -4
14 -6 25 -7 34 -24 119 -29 145 -3 13 -8 42 -11 65 -3 22 -8 51 -10 65 -9 54
-14 98 -20 175 -14 192 -66 340 -145 410 -33 30 -58 85 -69 152 -9 55 -6 497
3 613 9 105 16 177 22 201 16 75 11 264 -10 349 -3 14 -9 40 -12 58 -9 46 -20
48 -35 5z"/>
<path d="M6143 4475 c-28 -7 -63 -19 -77 -28 -34 -23 -86 -79 -86 -94 0 -7 -5
-13 -12 -13 -6 0 -8 -3 -5 -6 3 -4 2 -15 -4 -25 -5 -11 -12 -72 -14 -137 -2
-64 -7 -148 -10 -187 -3 -38 -7 -97 -10 -130 -2 -33 -6 -71 -9 -85 -3 -14 -7
-50 -10 -80 -3 -30 -11 -82 -16 -115 -6 -33 -13 -76 -16 -95 -3 -19 -12 -66
-21 -105 -8 -38 -17 -81 -19 -95 -3 -14 -7 -33 -10 -42 -3 -10 -7 -28 -10 -41
-8 -50 -66 -233 -101 -321 -64 -166 -157 -337 -220 -405 -21 -24 -22 -24 -50
-5 -73 49 -72 49 -100 -14 -33 -76 -114 -236 -122 -242 -3 -3 -15 -21 -25 -40
-66 -120 -303 -388 -419 -474 -21 -16 -35 -32 -30 -36 15 -15 227 -29 240 -16
3 3 15 1 28 -4 13 -5 26 -6 29 -3 3 4 20 8 38 10 17 2 41 5 52 7 12 2 39 7 61
11 107 19 311 103 392 162 17 13 35 23 38 23 4 0 12 6 20 13 7 6 30 26 50 42
56 45 167 156 201 201 16 21 32 41 35 44 30 24 202 324 192 334 -4 3 -1 6 5 6
7 0 12 4 12 10 0 8 24 66 60 145 12 25 71 204 76 229 2 11 10 40 18 65 9 25
17 57 20 71 3 14 7 34 10 45 14 62 25 114 30 145 3 19 8 46 10 60 11 62 23
156 31 243 3 31 7 81 10 110 10 97 14 151 20 242 4 50 8 101 11 115 2 14 6 81
10 150 5 103 3 134 -11 175 -44 128 -171 207 -292 180z"/>
<path d="M8050 4475 c-94 -30 -133 -99 -145 -260 -9 -115 -13 -170 -20 -255
-3 -41 -8 -86 -10 -100 -2 -14 -7 -59 -10 -100 -4 -41 -8 -77 -10 -80 -2 -4
-6 -31 -9 -61 -3 -30 -8 -65 -11 -79 -3 -14 -7 -38 -9 -55 -7 -51 -44 -227
-61 -290 -9 -33 -18 -69 -20 -80 -8 -33 -61 -196 -89 -270 -67 -176 -186 -379
-285 -487 -30 -33 -78 -69 -122 -93 -85 -46 -214 -167 -276 -260 -63 -93 -160
-186 -281 -268 -29 -20 -49 -38 -45 -40 33 -19 177 -40 293 -43 200 -4 360 33
526 120 172 92 309 212 415 366 24 36 47 67 50 70 4 3 16 23 28 45 12 22 35
65 52 95 29 55 119 246 123 265 2 6 9 24 16 40 22 53 107 319 116 363 3 13 11
49 20 80 15 57 42 176 50 222 2 14 9 48 14 75 5 28 12 68 15 90 4 22 10 65 15
95 5 30 12 78 15 105 3 28 7 60 9 73 3 12 8 55 11 95 3 39 8 88 10 107 13 110
14 269 1 317 -27 101 -87 172 -171 200 -45 15 -154 14 -205 -2z"/>
<path d="M7053 4461 c-127 -43 -163 -113 -167 -323 -1 -32 -3 -58 -6 -58 -3 0
-5 -21 -6 -48 -1 -56 -12 -234 -18 -277 -2 -16 -7 -57 -11 -90 -10 -93 -39
-279 -50 -315 -2 -8 -6 -32 -10 -54 -3 -21 -7 -42 -10 -46 -2 -3 -7 -22 -10
-41 -18 -103 -104 -357 -164 -483 -51 -110 -148 -266 -164 -266 -5 0 -27 14
-49 32 -39 30 -41 31 -54 13 -8 -10 -14 -25 -14 -32 0 -7 -4 -21 -9 -31 -6 -9
-31 -61 -56 -114 -47 -101 -156 -271 -222 -347 -72 -84 -177 -184 -266 -252
-50 -39 -83 -71 -75 -73 91 -28 335 -30 453 -3 276 63 527 223 698 447 31 41
61 80 65 85 4 6 25 39 46 75 21 36 46 76 55 90 8 14 16 27 16 30 2 9 30 65 35
70 3 3 10 19 17 35 6 17 28 71 48 120 54 131 62 152 99 271 21 70 75 282 82
323 3 18 8 43 10 55 13 61 25 124 29 156 3 19 6 44 9 55 4 24 18 120 21 155 1
14 5 48 9 75 22 168 27 252 27 415 0 160 -2 184 -14 196 -4 4 -7 15 -7 24 0
27 -67 97 -115 120 -59 28 -157 33 -222 11z"/>
</g>
</svg>
