<svg viewBox="0 0 125 25" fill="none" xmlns="http://www.w3.org/2000/svg">
    <path d="M8.05513 1.40958C8.05513 1.40958 5.70569 0.498573 3.35624 2.41649C3.35624 2.41649 0.527321 4.28645 -0.000105626 12.2937C-0.000105626 12.2937 -0.143949 13.6363 1.0068 13.8281C1.0068 13.8281 2.20549 14.0678 2.34934 13.0609C2.49318 12.054 2.49318 7.01948 4.69878 4.4303C4.69878 4.4303 4.93852 4.09466 5.5139 3.85492C5.99337 3.56723 6.37696 2.99186 6.71259 2.56033C6.71259 2.51238 7.14412 1.93701 8.05513 1.40958Z" fill="currentColor"/>
    <path d="M12.2734 1.21784C12.2734 1.21784 10.2116 0.546571 7.95807 2.27269C7.95807 2.27269 5.27299 3.90292 4.64967 10.3759C4.64967 10.3759 4.40993 11.9582 4.55377 12.7733C4.55377 12.7733 4.64967 13.7322 5.60863 13.7802C5.60863 13.7802 6.80732 13.8761 6.85527 12.7733C6.95117 11.6705 6.95117 11.2389 6.95117 11.2389C6.95117 11.2389 7.14296 6.92363 8.86908 4.76598L9.30061 5.10161C9.34856 5.10161 9.97188 2.84807 12.2734 1.21784Z" fill="currentColor"/>
    <path d="M16.5408 1.21818C16.5408 1.21818 13.7598 0.546907 11.746 2.75251C11.746 2.75251 9.7322 4.52658 9.15683 8.98572C9.15683 8.98572 8.91709 11.3831 8.86914 12.5339C8.86914 12.5339 8.86914 13.6367 9.92399 13.7805C9.92399 13.7805 11.0268 13.8285 11.1227 12.6777C11.1227 12.6777 11.2186 7.2596 13.2324 4.76632L13.7119 5.054C13.6639 5.10195 14.527 2.56072 16.5408 1.21818Z" fill="currentColor"/>
    <path d="M19.7534 1.17005C19.7534 1.17005 16.9244 1.07415 15.2942 3.90307C15.2942 3.90307 13.3763 6.68405 13.3763 12.3419C13.3763 12.3419 13.2804 13.6844 14.3352 13.8283C14.3352 13.8283 15.5819 13.9242 15.5819 12.4857C15.5819 12.4857 15.6298 6.87584 17.7875 4.62229C17.7875 4.62229 19.7054 6.87584 19.8493 12.246C19.8493 12.246 19.8972 15.938 20.6164 17.9518C20.6164 17.9518 21.2397 15.6982 21.3836 12.5337C21.3836 12.5337 21.3356 11.9583 21.8151 11.5747C21.8151 11.5747 22.1507 11.4309 22.1028 10.8555C22.1028 10.8555 21.6233 6.20457 20.089 3.51949C20.089 3.51949 23.3974 3.3277 24.0207 9.89655C24.0207 9.89655 24.0207 10.8555 24.5481 11.4788C24.5481 11.4788 24.9317 11.7665 24.9797 12.4378C24.9797 12.4378 25.0756 13.3488 24.7879 16.3695C24.7879 16.3695 24.7399 17.0408 25.0276 17.9518C25.0276 17.9518 25.8427 15.6982 25.6509 13.4926C25.6509 13.4926 25.555 11.7186 26.4181 11.0952C26.4181 11.0952 26.3222 6.10867 24.3563 3.3277C24.3084 3.3277 22.7261 1.0262 19.7534 1.17005Z" fill="currentColor"/>
    <path d="M29.583 23.8492C29.583 23.8492 31.9325 24.7602 34.2819 22.8423C34.2819 22.8423 37.1108 20.9723 37.6382 12.965C37.6382 12.965 37.7821 11.6225 36.6313 11.4307C36.6313 11.4307 35.4326 11.191 35.2888 12.1979C35.145 13.2048 35.145 18.2393 32.9394 20.8285C32.9394 20.8285 32.6996 21.1641 32.1242 21.4039C31.6448 21.6915 31.2612 22.2669 30.9255 22.6985C30.9255 22.6985 30.494 23.2738 29.583 23.8492Z" fill="currentColor"/>
    <path d="M25.3154 24.041C25.3154 24.041 27.3772 24.7123 29.6307 22.9861C29.6307 22.9861 32.3158 21.3559 32.9391 14.883C32.9391 14.883 33.1789 13.3007 33.035 12.4856C33.035 12.4856 32.9391 11.5266 31.9802 11.4787C31.9802 11.4787 30.7815 11.3828 30.7335 12.4856C30.6376 13.5884 30.6376 14.0199 30.6376 14.0199C30.6376 14.0199 30.4458 18.3352 28.7197 20.4929L28.2882 20.1572C28.2882 20.1572 27.6649 22.4108 25.3154 24.041Z" fill="currentColor"/>
    <path d="M21.0967 24.0411C21.0967 24.0411 23.8777 24.7124 25.8915 22.5068C25.8915 22.5068 27.9053 20.7327 28.4806 16.2736C28.4806 16.2736 28.7204 13.8762 28.7683 12.7254C28.7683 12.7254 28.7683 11.6226 27.7135 11.4788C27.7135 11.4788 26.6107 11.4309 26.5148 12.5816C26.5148 12.5816 26.4189 17.9997 24.4051 20.493L23.9256 20.2053C23.9736 20.1574 23.1105 22.6986 21.0967 24.0411Z" fill="currentColor"/>
    <path d="M17.8825 24.0889C17.8825 24.0889 20.7114 24.1848 22.3417 21.3558C22.3417 21.3558 24.2596 18.5749 24.2596 12.917C24.2596 12.917 24.3555 11.5745 23.3006 11.4306C23.3006 11.4306 22.054 11.3347 22.054 12.7732C22.054 12.7732 22.006 18.3831 19.8484 20.6366C19.8484 20.6366 17.9305 18.3831 17.7866 13.0129C17.7866 13.0129 17.7387 9.32094 17.0195 7.30713C17.0195 7.30713 16.3961 9.56068 16.2523 12.7252C16.2523 12.7252 16.3002 13.3006 15.8208 13.6842C15.8208 13.6842 15.4851 13.828 15.5331 14.4034C15.5331 14.4034 16.0126 19.0543 17.5469 21.7394C17.5469 21.7394 14.2385 21.9312 13.6152 15.3624C13.6152 15.3624 13.6152 14.4034 13.0877 13.7801C13.0877 13.7801 12.7042 13.4924 12.6562 12.8211C12.6562 12.8211 12.5603 11.9101 12.848 8.88941C12.848 8.88941 12.8959 8.21814 12.6083 7.30713C12.6083 7.30713 11.7931 9.56068 11.9849 11.7663C11.9849 11.7663 12.0808 13.5403 11.2178 14.1637C11.2178 14.1637 11.3137 19.1502 13.2795 21.9312C13.3275 21.9312 14.9098 24.1848 17.8825 24.0889Z" fill="currentColor"/>
    <path d="M41.4744 7.64308L42.6731 3.99905C42.8649 3.37572 43.5362 3.08804 44.1116 3.37572C44.639 3.61546 44.8308 4.19084 44.591 4.76621L42.5772 9.80073C42.2895 10.5679 41.7621 10.8556 41.0429 10.5679C40.7552 10.472 40.5155 10.2802 40.3237 9.80073L38.3099 4.71826C38.0701 4.14289 38.3099 3.56752 38.7893 3.32778C39.3647 3.04009 40.036 3.32778 40.2278 3.9511L41.4744 7.64308Z" fill="currentColor"/>
    <path d="M45.2602 4.28655C45.2602 3.99886 45.356 3.75913 45.5478 3.56733C45.9314 3.1358 46.6027 3.18375 47.0342 3.56733C47.226 3.75913 47.3219 4.04681 47.3219 4.28655V9.65671C47.3219 10.2321 46.8904 10.7116 46.315 10.7116C45.7396 10.7116 45.2602 10.2321 45.2602 9.65671V4.28655ZM45.404 0.54662C45.8835 0.0671421 46.6027 0.0671421 47.0822 0.54662C47.5616 1.0261 47.5616 1.74532 47.0822 2.22479C46.6027 2.70427 45.8835 2.70427 45.404 2.22479C45.2122 2.033 45.0684 1.74532 45.0684 1.40968C45.0684 1.07405 45.2122 0.78636 45.404 0.54662Z" fill="currentColor"/>
    <path d="M52.3588 3.23152C53.8932 3.42331 54.4206 4.09458 54.2288 4.76585C54.1329 5.24533 53.7973 5.48506 53.3657 5.48506C53.3178 5.48506 53.2219 5.48506 53.174 5.43712L53.0781 5.38917L52.8863 5.34122L52.7424 5.29327L52.5506 5.24533C51.304 4.86174 50.2971 5.58096 50.2971 6.97145C50.345 8.36194 51.3519 9.08115 52.6945 8.60167L52.9342 8.50578L53.0301 8.45783C53.6534 8.26604 54.1809 8.55373 54.2767 9.17705C54.3726 9.70447 53.9891 10.184 53.0301 10.4716C52.7904 10.5675 52.5506 10.6155 52.2629 10.6155C49.9614 10.8073 48.1874 9.225 48.2353 6.8276C48.2353 4.57406 50.0094 2.99178 52.3588 3.23152Z" fill="currentColor"/>
    <path d="M55.7633 3.32777V2.12907C55.7633 1.5537 56.2428 1.07422 56.8182 1.07422C57.3936 1.07422 57.873 1.5537 57.8251 2.12907V3.32777H58.4484C58.6882 3.32777 58.9279 3.42366 59.1197 3.61545C59.5033 3.95109 59.5033 4.57441 59.1197 4.91005C58.9279 5.10184 58.6882 5.19773 58.4484 5.19773H57.8251V9.65688C57.8251 9.94457 57.7292 10.1843 57.5374 10.3761C57.1538 10.7597 56.4826 10.7597 56.099 10.3761C55.9072 10.1843 55.8113 9.89662 55.8113 9.65688V5.19773H55.4277C55.188 5.19773 54.9482 5.10184 54.7564 4.91005C54.3729 4.57441 54.3729 3.99904 54.7564 3.61545C54.9482 3.42366 55.188 3.32777 55.4277 3.32777H55.7633Z" fill="currentColor"/>
    <path d="M59.7402 4.2388C59.7402 3.75932 60.1718 3.27985 60.7951 3.2319C61.4184 3.18395 61.8499 3.56753 61.802 3.95112V4.04701C61.8499 3.99906 61.8979 3.90317 61.9938 3.85522C62.8089 2.99216 63.672 2.99216 64.1035 3.61548C64.4871 4.14291 64.2953 4.76623 63.7199 5.00597L63.624 5.05392L63.3363 5.14981C63.0486 5.24571 62.8568 5.3416 62.713 5.4375C62.0417 5.82108 61.8499 6.15672 61.8499 6.49235V9.56101C61.8499 10.1364 61.3705 10.6159 60.7951 10.6159C60.2197 10.6159 59.7402 10.1364 59.7402 9.60896V4.2388Z" fill="currentColor"/>
    <path d="M64.6827 4.95766C65.354 3.85486 66.5047 3.18359 67.7034 3.18359C69.6693 3.18359 71.2516 4.81382 71.2516 6.92352C71.2516 9.08118 69.6693 10.7114 67.7034 10.7114C65.7375 10.7114 64.1553 9.08118 64.1553 6.92352C64.1553 6.20431 64.3471 5.53304 64.6827 4.95766ZM66.265 7.25916C66.4568 8.5058 67.176 9.03323 68.039 8.84144C68.6144 8.69759 69.0939 8.17017 69.1898 7.25916C69.2377 7.06737 69.2377 6.82763 69.1898 6.63584C69.046 5.77278 68.6144 5.24535 68.039 5.10151C67.176 4.90972 66.4088 5.43714 66.265 6.63584C66.265 6.73173 66.265 6.82763 66.265 6.97147C66.265 7.11532 66.265 7.21121 66.265 7.25916Z" fill="currentColor"/>
    <path d="M72.1602 4.28661C72.1602 3.75919 72.5917 3.27971 73.215 3.23176C73.7424 3.18381 74.126 3.51945 74.126 3.90303V3.99893C74.4617 3.61534 74.8932 3.37561 75.5165 3.23176C75.8521 3.18381 76.1878 3.18381 76.5234 3.23176C77.9618 3.4715 78.729 4.38251 78.729 5.82094V9.65677C78.729 10.2321 78.2495 10.7116 77.7221 10.7116C77.1467 10.7116 76.6672 10.2321 76.6672 9.65677V6.15658C76.6672 5.82094 76.5234 5.53326 76.2837 5.29352C75.8042 4.81404 75.037 4.81404 74.5575 5.29352C74.3178 5.53326 74.2219 5.82094 74.2219 6.15658V9.65677C74.2219 10.2321 73.7424 10.7116 73.1671 10.6637C72.5917 10.6637 72.1602 10.1842 72.1602 9.60882V4.28661Z" fill="currentColor"/>
    <path d="M85.4434 7.59523C85.4914 7.83496 85.6352 8.12265 85.7791 8.31444C86.3065 8.98571 87.3134 9.12956 88.4641 8.50623C89.1354 8.12265 89.3272 8.12265 89.6628 8.2665C89.8546 8.36239 90.0464 8.50624 90.0944 8.69803C90.3821 9.41724 89.4711 10.6639 86.9778 10.6639C84.4365 10.6639 82.7104 8.55418 83.2858 6.01295C83.6214 4.52656 84.7242 3.47171 86.1147 3.23197C87.7449 2.94429 89.2793 3.7594 89.9505 5.29373C90.1423 5.72526 90.2382 6.15679 90.2382 6.44448C90.3341 7.25959 90.0464 7.59523 89.3752 7.59523H85.4434ZM88.2724 6.30063C88.2724 6.25269 88.2724 6.20474 88.2244 6.15679C88.0326 5.19783 87.3134 4.71836 86.4983 4.91015C86.0188 5.05399 85.5873 5.43757 85.3955 6.10884C85.3955 6.15679 85.3955 6.20474 85.3475 6.25269H88.2724V6.30063Z" fill="currentColor"/>
    <path d="M91.0537 4.28661C91.0537 3.75919 91.4852 3.27971 92.1086 3.23176C92.636 3.18381 93.0196 3.51945 93.0196 3.90303V3.99893C93.3552 3.61534 93.7867 3.37561 94.4101 3.23176C94.7457 3.18381 95.0813 3.18381 95.417 3.23176C96.8554 3.4715 97.6226 4.38251 97.6226 5.82094V9.65677C97.6226 10.2321 97.1431 10.7116 96.6157 10.7116C96.0403 10.7116 95.5608 10.2321 95.5608 9.65677V6.15658C95.5608 5.82094 95.417 5.53326 95.1772 5.29352C94.6977 4.81404 93.9306 4.81404 93.4511 5.29352C93.2114 5.53326 93.1155 5.82094 93.1155 6.15658V9.65677C93.1155 10.2321 92.636 10.7116 92.0606 10.6637C91.4852 10.6637 91.0537 10.1842 91.0537 9.60882V4.28661Z" fill="currentColor"/>
    <path d="M100.736 7.59523C100.784 7.83496 100.928 8.12265 101.072 8.31444C101.599 8.98571 102.606 9.12956 103.757 8.50623C104.428 8.12265 104.62 8.12265 104.956 8.2665C105.148 8.36239 105.339 8.50624 105.387 8.69803C105.675 9.41724 104.764 10.6639 102.271 10.6639C99.7295 10.6639 98.0034 8.55418 98.5788 6.01295C98.9144 4.52656 100.017 3.47171 101.408 3.23197C103.038 2.94429 104.572 3.7594 105.243 5.29373C105.435 5.72526 105.531 6.15679 105.531 6.44448C105.627 7.25959 105.339 7.59523 104.668 7.59523H100.736ZM103.517 6.30063C103.517 6.25269 103.517 6.20474 103.469 6.15679C103.278 5.19783 102.558 4.71836 101.743 4.91015C101.264 5.05399 100.832 5.43757 100.641 6.10884C100.641 6.15679 100.641 6.20474 100.593 6.25269H103.517V6.30063Z" fill="currentColor"/>
    <path d="M106.347 4.2388C106.347 3.75932 106.778 3.27985 107.402 3.2319C108.025 3.18395 108.456 3.56753 108.408 3.95112V4.04701C108.456 3.99906 108.504 3.90317 108.6 3.85522C109.415 2.99216 110.278 2.99216 110.71 3.61548C111.094 4.14291 110.902 4.76623 110.326 5.00597L110.23 5.05392L109.943 5.14981C109.655 5.24571 109.463 5.3416 109.319 5.4375C108.648 5.82108 108.456 6.15672 108.456 6.49235V9.56101C108.456 10.1364 107.977 10.6159 107.402 10.6159C106.826 10.6159 106.347 10.1364 106.347 9.60896V4.2388Z" fill="currentColor"/>
    <path d="M115.84 3.95074C115.84 3.56716 116.224 3.23153 116.799 3.27947C117.423 3.32742 117.854 3.8069 117.854 4.33433V9.70448C117.854 12.3896 116.272 13.8759 113.491 13.5403C112.915 13.4924 112.436 13.3485 111.956 13.1088C110.95 12.6293 110.806 11.958 111.285 11.4306C111.573 11.1429 111.909 11.047 112.34 11.2388L112.772 11.4306C112.867 11.4786 112.963 11.5265 113.059 11.5265C114.833 12.1498 115.84 11.4306 115.888 10.0881C115.888 9.99217 115.888 9.89628 115.888 9.80038C115.121 10.9032 113.251 11.095 111.909 9.80038C111.093 8.98527 110.662 7.59478 110.95 6.1084C111.045 5.58097 111.237 5.10149 111.477 4.71791C112.628 2.89589 114.929 2.7041 115.984 3.99869V3.95074H115.84ZM113.251 8.36195C113.826 9.08116 114.881 9.03321 115.409 8.314C115.648 7.97836 115.792 7.59478 115.792 7.01941C115.792 6.1084 115.457 5.53302 114.929 5.24534C114.018 4.81381 113.011 5.38918 112.867 6.63582C112.867 6.77967 112.82 6.87556 112.82 7.01941C112.82 7.59478 113.011 8.02631 113.251 8.36195Z" fill="currentColor"/>
    <path d="M119.005 3.32748C119.581 3.08774 120.156 3.37543 120.396 3.99875L121.69 7.451L122.985 3.99875C123.225 3.32748 123.848 3.08774 124.423 3.32748C124.951 3.56722 125.143 4.1426 124.951 4.67002L121.594 12.8691C121.307 13.5404 120.731 13.8281 120.204 13.5883C119.677 13.3486 119.437 12.7732 119.677 12.2458L120.635 10.0402L118.43 4.67002C118.238 4.1426 118.478 3.56722 119.005 3.32748Z" fill="currentColor"/>
</svg>
