<svg width="20" height="28" viewBox="0 0 20 28" fill="none" xmlns="http://www.w3.org/2000/svg">
<path d="M13 21C14.6569 21 16 19.6568 16 18C16 16.3431 14.6569 15 13 15C11.3431 15 10 16.3431 10 18C10 19.6568 11.3431 21 13 21Z" fill="currentColor"/>
<path d="M8 15C8 15.5523 7.55228 16 7 16C6.44772 16 6 15.5523 6 15C6 14.4477 6.44772 14 7 14C7.55228 14 8 14.4477 8 15Z" fill="currentColor"/>
<path d="M6 22C7.10457 22 8 21.1046 8 20C8 18.8954 7.10457 18 6 18C4.89543 18 4 18.8954 4 20C4 21.1046 4.89543 22 6 22Z" fill="currentColor"/>
<path fill-rule="evenodd" clip-rule="evenodd" d="M9.26412 0.836431C9.65264 0.385577 10.3474 0.385578 10.7359 0.836432C11.6826 1.93499 13.0329 3.59272 14.6154 5.86577C17.3526 9.79753 20 14.7911 20 18.5139C20 23.7634 15.5392 28 10 28C4.4608 28 0 23.7634 0 18.5139C0 14.7911 2.64738 9.79753 5.38461 5.86577C6.96709 3.59272 8.31744 1.93499 9.26412 0.836431ZM7.02601 7.0085C8.16716 5.36936 9.18129 4.06348 10 3.06782C10.8187 4.06348 11.8328 5.36936 12.974 7.0085C14.2947 8.90553 15.5732 11.0306 16.5139 13.0969C17.4708 15.1987 18 17.0713 18 18.5139C18 22.5614 14.5347 26 10 26C5.46534 26 2 22.5614 2 18.5139C2 17.0713 2.52917 15.1987 3.48607 13.0969C4.42682 11.0306 5.70532 8.90553 7.02601 7.0085Z" fill="currentColor"/>
</svg>
