<svg width="21" height="20" viewBox="0 0 21 20" fill="none" xmlns="http://www.w3.org/2000/svg">
<path fill-rule="evenodd" clip-rule="evenodd" d="M14.5 9V11C16.1569 11 17.5 12.3431 17.5 14V16.5C17.5 16.7761 17.7239 17 18 17C18.2761 17 18.5 16.7761 18.5 16.5V5.41421L17.5 4.41421C17.1095 4.02369 17.1095 3.39052 17.5 3C17.8905 2.60947 18.5237 2.60948 18.9142 3L20.5 4.58579V16.5C20.5 17.8807 19.3807 19 18 19C16.6193 19 15.5 17.8807 15.5 16.5V14C15.5 13.4477 15.0523 13 14.5 13V19C14.5 19.5523 14.0523 20 13.5 20H3.5C2.94771 20 2.5 19.5523 2.5 19V9H1.5C0.947715 9 0.5 8.55229 0.5 8V1C0.5 0.447715 0.947715 0 1.5 0H15.5C16.0523 0 16.5 0.447715 16.5 1V8C16.5 8.55229 16.0523 9 15.5 9H14.5ZM2.5 2V7H14.5V2H2.5ZM12.5 9H4.5V18H12.5V9Z" fill="currentColor"/>
</svg>
