<svg width="24" height="26" viewBox="0 0 24 26" fill="none" xmlns="http://www.w3.org/2000/svg">
<path d="M9 3.13489C8.29758 4.02638 7.44949 5.16432 6.50403 6.56548C5.3188 8.32199 4.17219 10.2886 3.32903 12.1993C2.47088 14.144 2 15.869 2 17.1915C2 20.9218 5.07922 24 9 24C10.8708 24 12.5501 23.2991 13.7946 22.161C14.4548 22.478 15.1625 22.7127 15.9042 22.852C14.2557 24.7779 11.7786 26 9 26C4.01472 26 0 22.066 0 17.1915C0 13.7346 2.38264 9.09771 4.84615 5.4468C6.22494 3.40344 7.40794 1.89558 8.25506 0.87591C8.64333 0.40855 9.35667 0.408551 9.74494 0.875911C10.5185 1.807 11.572 3.14514 12.799 4.92634C12.4086 5.51418 12.0181 6.13918 11.6442 6.78664C11.5949 6.71256 11.5455 6.63884 11.496 6.56548C10.5505 5.16432 9.70242 4.02638 9 3.13489Z" fill="currentColor"/>
<path fill-rule="evenodd" clip-rule="evenodd" d="M16.7555 2.89393C17.1397 2.41721 17.8603 2.41721 18.2445 2.89393C18.836 3.6277 19.6117 4.64833 20.5 5.98034C22.2792 8.64831 24 12.0368 24 14.563C24 18.1251 21.1005 21 17.5 21C13.8995 21 11 18.1251 11 14.563C11 12.0368 12.7208 8.64831 14.5 5.98034C15.3883 4.64833 16.164 3.6277 16.7555 2.89393ZM16.1639 7.08998C16.6501 6.36099 17.0998 5.73126 17.5 5.19621C17.9002 5.73126 18.3499 6.36099 18.8361 7.08998C19.6797 8.355 20.4908 9.76414 21.084 11.1243C21.6917 12.5179 22 13.7012 22 14.563C22 17.0029 20.0136 19 17.5 19C14.9864 19 13 17.0029 13 14.563C13 13.7012 13.3083 12.5179 13.916 11.1243C14.5092 9.76414 15.3203 8.355 16.1639 7.08998Z" fill="currentColor"/>
</svg>
