<svg width="20" height="27" viewBox="0 0 20 27" fill="none" xmlns="http://www.w3.org/2000/svg">
<path fill-rule="evenodd" clip-rule="evenodd" d="M9.01465 0.819864C9.52792 0.20067 10.4718 0.20067 10.985 0.819864C11.8442 1.85634 12.9896 3.32142 14.3075 5.25311C16.8623 8.99764 19.3332 13.7534 19.3332 17.2989C19.3332 22.2984 15.1698 26.3333 9.99984 26.3333C4.82992 26.3333 0.666504 22.2984 0.666504 17.2989C0.666504 13.7534 3.13739 8.99764 5.69214 5.25311C7.01006 3.32142 8.15549 1.85634 9.01465 0.819864ZM7.89496 6.75601C8.66907 5.6214 9.3791 4.65745 9.99984 3.85549C10.6206 4.65745 11.3306 5.6214 12.1047 6.75601C13.3194 8.53638 14.488 10.5206 15.3431 12.4372C16.2188 14.3998 16.6665 16.0735 16.6665 17.2989C16.6665 20.7454 13.7786 23.6666 9.99984 23.6666C6.22112 23.6666 3.33317 20.7454 3.33317 17.2989C3.33317 16.0735 3.78087 14.3998 4.65655 12.4372C5.51172 10.5206 6.68028 8.53638 7.89496 6.75601Z" fill="currentColor"/>
</svg>
