<svg viewBox="0 0 24 24" fill="none" xmlns="http://www.w3.org/2000/svg">
    <path d="M8.25065 12.2802C8.98108 11.6958 10.019 11.6958 10.7494 12.2802L12.0013 13.2816C13.4621 14.4503 15.5379 14.4503 16.9988 13.2816L17.6247 12.7809C18.056 12.4359 18.1259 11.8066 17.7809 11.3753C17.4359 10.9441 16.8066 10.8742 16.3753 11.2192L15.7494 11.7199C15.019 12.3043 13.9811 12.3043 13.2506 11.7199L11.9988 10.7184C10.5379 9.54974 8.46213 9.54974 7.00126 10.7184L6.37534 11.2192C5.94408 11.5642 5.87416 12.1935 6.21917 12.6247C6.56418 13.056 7.19347 13.1259 7.62473 12.7809L8.25065 12.2802Z" fill="currentColor"/>
    <path fill-rule="evenodd" clip-rule="evenodd" d="M12 22C17.5228 22 22 17.5228 22 12C22 6.47715 17.5228 2 12 2C6.47715 2 2 6.47715 2 12C2 17.5228 6.47715 22 12 22ZM12 20C16.4183 20 20 16.4183 20 12C20 7.58172 16.4183 4 12 4C7.58172 4 4 7.58172 4 12C4 16.4183 7.58172 20 12 20Z" fill="currentColor"/>
</svg>
