<?xml version="1.0" encoding="UTF-8"?>
<svg width="56px" height="56px" viewBox="0 0 56 56" version="1.1" xmlns="http://www.w3.org/2000/svg" xmlns:xlink="http://www.w3.org/1999/xlink">
    <!-- Generator: Sketch 52.2 (67145) - http://www.bohemiancoding.com/sketch -->
    <title>icon_ac</title>
    <desc>Created with Sketch.</desc>
    <g id="Zeplin" stroke="none" stroke-width="1" fill="none" fill-rule="evenodd">
        <g id="Style-Guide" transform="translate(-1017.000000, -4136.000000)" fill="#FFFFFF">
            <path d="M1041.64,4136 L1041.64,4144.82335 L1048.92,4144.82335 L1048.92,4136.07322 C1062.52816,4137.99331 1073,4149.76496 1073,4164 C1073,4178.23504 1062.52816,4190.00669 1048.92,4191.92678 L1048.92,4183.74067 L1041.64,4183.74067 L1041.64,4192 C1027.7602,4190.32817 1017,4178.42969 1017,4164 C1017,4149.57031 1027.7602,4137.67183 1041.64,4136 Z M1041.9312,4171.30794 L1045.1792,4171.30794 L1039.3552,4155.35914 L1036.9136,4155.35914 L1031.112,4171.30794 L1034.36,4171.30794 L1035.3232,4168.48554 L1040.9904,4168.48554 L1041.9312,4171.30794 Z M1038.2128,4160.06314 L1040.1616,4165.86474 L1036.1968,4165.86474 L1038.2128,4160.06314 Z M1058.3504,4166.40234 L1055.192,4166.40234 C1055.02773,4167.05941 1054.7328,4167.60074 1054.3072,4168.02634 C1053.8816,4168.45194 1053.28054,4168.66474 1052.504,4168.66474 C1052.07093,4168.66474 1051.6864,4168.59008 1051.3504,4168.44074 C1051.0144,4168.29141 1050.7344,4168.08981 1050.5104,4167.83594 C1050.36107,4167.67167 1050.23787,4167.48501 1050.1408,4167.27594 C1050.04373,4167.06687 1049.96533,4166.79808 1049.9056,4166.46954 C1049.84587,4166.14101 1049.80107,4165.72661 1049.7712,4165.22634 C1049.74133,4164.72607 1049.7264,4164.09515 1049.7264,4163.33354 C1049.7264,4162.57194 1049.74133,4161.94101 1049.7712,4161.44074 C1049.80107,4160.94047 1049.84587,4160.52608 1049.9056,4160.19754 C1049.96533,4159.86901 1050.04373,4159.60021 1050.1408,4159.39114 C1050.23787,4159.18207 1050.36107,4158.99541 1050.5104,4158.83114 C1050.7344,4158.57727 1051.0144,4158.37568 1051.3504,4158.22634 C1051.6864,4158.07701 1052.07093,4158.00234 1052.504,4158.00234 C1053.28054,4158.00234 1053.87786,4158.21514 1054.296,4158.64074 C1054.71414,4159.06634 1055.00533,4159.60767 1055.1696,4160.26474 L1058.3504,4160.26474 C1058.05173,4158.5922 1057.37601,4157.33408 1056.3232,4156.49034 C1055.27039,4155.6466 1053.99734,4155.22474 1052.504,4155.22474 C1051.57813,4155.22474 1050.77174,4155.37034 1050.0848,4155.66154 C1049.39786,4155.95274 1048.77814,4156.36714 1048.2256,4156.90474 C1047.8224,4157.30794 1047.51253,4157.72607 1047.296,4158.15914 C1047.07947,4158.59221 1046.92267,4159.06634 1046.8256,4159.58154 C1046.72853,4160.09674 1046.6688,4160.66047 1046.6464,4161.27274 C1046.624,4161.88501 1046.6128,4162.57194 1046.6128,4163.33354 C1046.6128,4164.09515 1046.624,4164.78207 1046.6464,4165.39434 C1046.6688,4166.00661 1046.72853,4166.57034 1046.8256,4167.08554 C1046.92267,4167.60074 1047.07947,4168.07487 1047.296,4168.50794 C1047.51253,4168.94101 1047.8224,4169.35914 1048.2256,4169.76234 C1048.77814,4170.29995 1049.39786,4170.71434 1050.0848,4171.00554 C1050.77174,4171.29674 1051.57813,4171.44234 1052.504,4171.44234 C1053.99734,4171.44234 1055.27039,4171.02048 1056.3232,4170.17674 C1057.37601,4169.333 1058.05173,4168.07488 1058.3504,4166.40234 Z" id="icon_ac"></path>
        </g>
    </g>
</svg>