<?xml version="1.0" encoding="UTF-8"?>
<svg width="56px" height="56px" viewBox="0 0 56 56" version="1.1" xmlns="http://www.w3.org/2000/svg" xmlns:xlink="http://www.w3.org/1999/xlink">
    <!-- Generator: Sketch 52.2 (67145) - http://www.bohemiancoding.com/sketch -->
    <title>icon_ac</title>
    <desc>Created with Sketch.</desc>
    <g id="Symbols" stroke="none" stroke-width="1" fill="none" fill-rule="evenodd">
        <g id="icon_ac" fill="#FFFFFF">
            <path d="M24.64,0.199527962 L24.64,8.96 L31.92,8.96 L31.92,0.272230194 C45.5281568,2.17863703 56,13.8664035 56,28 C56,42.1335965 45.5281568,53.821363 31.92,55.7277698 L31.92,47.6 L24.64,47.6 L24.64,55.800472 C10.7601984,54.1405573 -3.55271368e-15,42.3268681 -3.55271368e-15,28 C-3.55271368e-15,13.6731319 10.7601984,1.85944274 24.64,0.199527962 Z M24.9312,35.32 L28.1792,35.32 L22.3552,19.3712 L19.9136,19.3712 L14.112,35.32 L17.36,35.32 L18.3232,32.4976 L23.9904,32.4976 L24.9312,35.32 Z M21.2128,24.0752 L23.1616,29.8768 L19.1968,29.8768 L21.2128,24.0752 Z M41.3504,30.4144 L38.192,30.4144 C38.0277325,31.07147 37.7328021,31.6127979 37.3072,32.0384 C36.8815979,32.4640021 36.2805372,32.6768 35.504,32.6768 C35.0709312,32.6768 34.6864017,32.6021341 34.3504,32.4528 C34.0143983,32.3034659 33.7344011,32.1018679 33.5104,31.848 C33.3610659,31.6837325 33.2378672,31.4970677 33.1408,31.288 C33.0437328,31.0789323 32.9653336,30.810135 32.9056,30.4816 C32.8458664,30.153065 32.8010668,29.7386692 32.7712,29.2384 C32.7413332,28.7381308 32.7264,28.1072038 32.7264,27.3456 C32.7264,26.5839962 32.7413332,25.9530692 32.7712,25.4528 C32.8010668,24.9525308 32.8458664,24.538135 32.9056,24.2096 C32.9653336,23.881065 33.0437328,23.6122677 33.1408,23.4032 C33.2378672,23.1941323 33.3610659,23.0074675 33.5104,22.8432 C33.7344011,22.5893321 34.0143983,22.3877341 34.3504,22.2384 C34.6864017,22.0890659 35.0709312,22.0144 35.504,22.0144 C36.2805372,22.0144 36.8778646,22.2271979 37.296,22.6528 C37.7141354,23.0784021 38.0053325,23.61973 38.1696,24.2768 L41.3504,24.2768 C41.0517318,22.6042583 40.3760053,21.3461376 39.3232,20.5024 C38.2703947,19.6586624 36.9973408,19.2368 35.504,19.2368 C34.5781287,19.2368 33.7717368,19.3823985 33.0848,19.6736 C32.3978632,19.9648015 31.7781361,20.3791973 31.2256,20.9168 C30.822398,21.320002 30.5125344,21.7381312 30.296,22.1712 C30.0794656,22.6042688 29.9226672,23.0783974 29.8256,23.5936 C29.7285328,24.1088026 29.6688001,24.6725303 29.6464,25.2848 C29.6239999,25.8970697 29.6128,26.5839962 29.6128,27.3456 C29.6128,28.1072038 29.6239999,28.7941303 29.6464,29.4064 C29.6688001,30.0186697 29.7285328,30.5823974 29.8256,31.0976 C29.9226672,31.6128026 30.0794656,32.0869312 30.296,32.52 C30.5125344,32.9530688 30.822398,33.371198 31.2256,33.7744 C31.7781361,34.3120027 32.3978632,34.7263985 33.0848,35.0176 C33.7717368,35.3088015 34.5781287,35.4544 35.504,35.4544 C36.9973408,35.4544 38.2703947,35.0325376 39.3232,34.1888 C40.3760053,33.3450624 41.0517318,32.0869417 41.3504,30.4144 Z"></path>
        </g>
    </g>
</svg>