<?xml version="1.0" encoding="UTF-8"?>
<svg width="58px" height="58px" viewBox="0 0 58 58" version="1.1" xmlns="http://www.w3.org/2000/svg" xmlns:xlink="http://www.w3.org/1999/xlink">
    <!-- Generator: Sketch 52.2 (67145) - http://www.bohemiancoding.com/sketch -->
    <title>icon_battery</title>
    <desc>Created with Sketch.</desc>
    <g id="icon_battery" stroke="none" stroke-width="1" fill="none" fill-rule="evenodd">
        <g id="Battery" transform="translate(0.760000, 0.280000)" fill="#FFFFFF">
            <path d="M14.195424,22 C12.9829248,22 12,22.9829248 12,24.195424 L12,33.804576 C12,35.0170752 12.9829248,36 14.195424,36 L40.1474331,36 C41.3599323,36 42.3428571,35.0170752 42.3428571,33.804576 L42.3428571,24.195424 C42.3428571,22.9829248 41.3599323,22 40.1474331,22 L14.195424,22 Z M28.24,56.72 C12.776027,56.72 0.24,44.183973 0.24,28.72 C0.24,13.256027 12.776027,0.72 28.24,0.72 C43.703973,0.72 56.24,13.256027 56.24,28.72 C56.24,44.183973 43.703973,56.72 28.24,56.72 Z M26.8967624,24.9383335 L29.8806599,24.9321713 L27.7366599,28.5293477 L29.8806599,28.5293477 L26.1286599,33.9251124 L26.1286599,29.8782889 L24.5206599,29.8782889 L26.8967624,24.9383335 Z M43.6914286,26.6666667 L43.6914286,32 L43.942288,32 C44.5485376,32 45.04,31.5085376 45.04,30.902288 L45.04,27.7643787 C45.04,27.1581291 44.5485376,26.6666667 43.942288,26.6666667 L43.6914286,26.6666667 Z" id="Oval-2"></path>
        </g>
    </g>
</svg>