<?xml version="1.0" encoding="UTF-8"?>
<svg width="56px" height="56px" viewBox="0 0 56 56" version="1.1" xmlns="http://www.w3.org/2000/svg" xmlns:xlink="http://www.w3.org/1999/xlink">
    <!-- Generator: Sketch 52.2 (67145) - http://www.bohemiancoding.com/sketch -->
    <title>icon_ShorePower</title>
    <desc>Created with Sketch.</desc>
    <g id="Symbols" stroke="none" stroke-width="1" fill="none" fill-rule="evenodd">
        <g id="icon_ShorePower" fill="#FFFFFF">
            <path d="M8.11470473,47.712309 L8.71111111,47.9111111 L14.3111111,41.6888889 L15.7969024,43.5555556 L22.1925926,37.0599327 C24.879422,38.4116476 27.544293,38.9113109 30.1872054,38.5589226 C32.8301178,38.2065342 35.1618799,37.0406532 37.1824916,35.0612795 L19.6942761,17.573064 C17.7727282,19.290561 16.6068471,21.6876126 16.196633,24.7642188 C15.7864188,27.8408249 16.2860821,30.4404063 17.6956229,32.562963 C13.3652076,36.8933782 11.2,39.0585859 11.2,39.0585859 L13.0666667,40.4444444 C12.5440368,40.980272 10.6108805,43.1051902 7.26719768,46.8191991 C2.751778,41.8476025 0,35.2451573 0,28 C0,12.536027 12.536027,0 28,0 C43.463973,0 56,12.536027 56,28 C56,43.463973 43.463973,56 28,56 C20.2240187,56 13.1883776,52.8302269 8.11470473,47.712309 Z M21.2069554,16.0740741 L38.6814815,33.5622896 L41.6794613,30.5643098 L38.6814815,27.56633 L42.6164292,23.6313822 L42.9286195,23.3191919 C43.6185106,22.6293009 43.6185106,21.5107665 42.9286195,20.8208754 C42.2387285,20.1309844 41.1201941,20.1309844 40.430303,20.8208754 L40.1312489,21.1199295 L36.183165,25.0680135 L29.6875421,18.5723906 L33.6674497,14.5924829 L33.9346801,14.3252525 C34.6245712,13.6353615 34.6245712,12.5168271 33.9346801,11.826936 C33.2447891,11.137045 32.1262547,11.137045 31.4363636,11.826936 L31.1718814,12.0914183 L27.0324819,16.2308178 L24.0413468,13.2396827 L21.2069554,16.0740741 Z"></path>
        </g>
    </g>
</svg>