<?xml version="1.0" encoding="UTF-8"?>
<svg width="56px" height="56px" viewBox="0 0 56 56" version="1.1" xmlns="http://www.w3.org/2000/svg" xmlns:xlink="http://www.w3.org/1999/xlink">
    <!-- Generator: Sketch 52.2 (67145) - http://www.bohemiancoding.com/sketch -->
    <title>icon_dc@1x</title>
    <desc>Created with Sketch.</desc>
    <g id="Symbols" stroke="none" stroke-width="1" fill="none" fill-rule="evenodd">
        <g id="icon_dc" fill="#FFFFFF">
            <path d="M24.64,55.800472 C10.7601984,54.1405573 -3.55271368e-15,42.3268681 -3.55271368e-15,28 C-3.55271368e-15,13.6731319 10.7601984,1.85944274 24.64,0.199527962 L24.64,8.96 L31.92,8.96 L31.92,0.272230194 C45.5281568,2.17863703 56,13.8664035 56,28 C56,42.1335965 45.5281568,53.821363 31.92,55.7277698 L31.92,47.6 L24.64,47.6 L24.64,55.800472 Z M27.44,27.9056 C27.44,27.24853 27.4325334,26.6474694 27.4176,26.1024 C27.4026666,25.5573306 27.3653336,25.0570689 27.3056,24.6016 C27.2458664,24.1461311 27.1450674,23.7280019 27.0032,23.3472 C26.8613326,22.9663981 26.6709345,22.6042684 26.432,22.2608 C25.8645305,21.454396 25.1925372,20.8645352 24.416,20.4912 C23.6394628,20.1178648 22.7061388,19.9312 21.616,19.9312 L15.8592,19.9312 L15.8592,35.88 L21.616,35.88 C22.7061388,35.88 23.6394628,35.6933352 24.416,35.32 C25.1925372,34.9466648 25.8645305,34.356804 26.432,33.5504 C26.6709345,33.2069316 26.8613326,32.8448019 27.0032,32.464 C27.1450674,32.0831981 27.2458664,31.6650689 27.3056,31.2096 C27.3653336,30.7541311 27.4026666,30.2538694 27.4176,29.7088 C27.4325334,29.1637306 27.44,28.56267 27.44,27.9056 Z M24.3264,27.9056 C24.3264,28.5328031 24.3189334,29.0741311 24.304,29.5296 C24.2890666,29.9850689 24.2592002,30.3733317 24.2144,30.6944 C24.1695998,31.0154683 24.1061337,31.2879989 24.024,31.512 C23.9418663,31.7360011 23.8261341,31.9375991 23.6768,32.1168 C23.1541307,32.77387 22.3776052,33.1024 21.3472,33.1024 L18.9728,33.1024 L18.9728,22.7088 L21.3472,22.7088 C22.3776052,22.7088 23.1541307,23.03733 23.6768,23.6944 C23.8261341,23.8736009 23.9418663,24.0751989 24.024,24.2992 C24.1061337,24.5232011 24.1695998,24.7957317 24.2144,25.1168 C24.2592002,25.4378683 24.2890666,25.8261311 24.304,26.2816 C24.3189334,26.7370689 24.3264,27.2783969 24.3264,27.9056 Z M41.8208,30.9744 L38.6624,30.9744 C38.4981325,31.63147 38.2032021,32.1727979 37.7776,32.5984 C37.3519979,33.0240021 36.7509372,33.2368 35.9744,33.2368 C35.5413312,33.2368 35.1568017,33.1621341 34.8208,33.0128 C34.4847983,32.8634659 34.2048011,32.6618679 33.9808,32.408 C33.8314659,32.2437325 33.7082672,32.0570677 33.6112,31.848 C33.5141328,31.6389323 33.4357336,31.370135 33.376,31.0416 C33.3162664,30.713065 33.2714668,30.2986692 33.2416,29.7984 C33.2117332,29.2981308 33.1968,28.6672038 33.1968,27.9056 C33.1968,27.1439962 33.2117332,26.5130692 33.2416,26.0128 C33.2714668,25.5125308 33.3162664,25.098135 33.376,24.7696 C33.4357336,24.441065 33.5141328,24.1722677 33.6112,23.9632 C33.7082672,23.7541323 33.8314659,23.5674675 33.9808,23.4032 C34.2048011,23.1493321 34.4847983,22.9477341 34.8208,22.7984 C35.1568017,22.6490659 35.5413312,22.5744 35.9744,22.5744 C36.7509372,22.5744 37.3482646,22.7871979 37.7664,23.2128 C38.1845354,23.6384021 38.4757325,24.17973 38.64,24.8368 L41.8208,24.8368 C41.5221318,23.1642583 40.8464053,21.9061376 39.7936,21.0624 C38.7407947,20.2186624 37.4677408,19.7968 35.9744,19.7968 C35.0485287,19.7968 34.2421368,19.9423985 33.5552,20.2336 C32.8682632,20.5248015 32.2485361,20.9391973 31.696,21.4768 C31.292798,21.880002 30.9829344,22.2981312 30.7664,22.7312 C30.5498656,23.1642688 30.3930672,23.6383974 30.296,24.1536 C30.1989328,24.6688026 30.1392001,25.2325303 30.1168,25.8448 C30.0943999,26.4570697 30.0832,27.1439962 30.0832,27.9056 C30.0832,28.6672038 30.0943999,29.3541303 30.1168,29.9664 C30.1392001,30.5786697 30.1989328,31.1423974 30.296,31.6576 C30.3930672,32.1728026 30.5498656,32.6469312 30.7664,33.08 C30.9829344,33.5130688 31.292798,33.931198 31.696,34.3344 C32.2485361,34.8720027 32.8682632,35.2863985 33.5552,35.5776 C34.2421368,35.8688015 35.0485287,36.0144 35.9744,36.0144 C37.4677408,36.0144 38.7407947,35.5925376 39.7936,34.7488 C40.8464053,33.9050624 41.5221318,32.6469417 41.8208,30.9744 Z"></path>
        </g>
    </g>
</svg>