<?xml version="1.0" encoding="utf-8"?>
<!-- Generator: Adobe Illustrator 16.0.0, SVG Export Plug-In . SVG Version: 6.00 Build 0)  -->
<!DOCTYPE svg PUBLIC "-//W3C//DTD SVG 1.1//EN" "http://www.w3.org/Graphics/SVG/1.1/DTD/svg11.dtd">
<svg version="1.1" id="Ebene_1" xmlns="http://www.w3.org/2000/svg" xmlns:xlink="http://www.w3.org/1999/xlink" x="0px" y="0px"
	 width="765.354px" height="765.354px" viewBox="56.768 -105.86 765.354 765.354"
	 enable-background="new 56.768 -105.86 765.354 765.354" xml:space="preserve">
<g>
	<path fill="#FFFFFF" d="M306.654,251.031c0,0,0.111-149.814,0.113-152.985c-3.134,0-101.557,0-101.557,0
		c-2.612,0-15.648,0.75-15.648,15.585c0,0,0,158.983,0,162.16c3.128-0.005,92.305-0.074,92.305-0.074
		C295.535,275.717,306.654,264.646,306.654,251.031z"/>
	<path fill="#FFFFFF" d="M385.95,275.623l62.618-0.061c13.596,0,24.658-11.15,24.658-24.859c0,0,0.018-149.299,0.018-152.457
		c0,0.074-110.883,0.243-110.883,0.494c-0.004,9.997-0.048,153.933-0.048,153.934C362.313,265.971,372.254,275.623,385.95,275.623z"
		/>
	<path fill="#FFFFFF" d="M246.45,319.994c0-3.23-2.588-4.404-4.327-4.404h-3.985c-0.265,0-0.966,0-1.001-1.064v-7.893
		c0-0.295,0-0.992,1.027-1.025h34.163c0.294,0,0.987,0,1.022,1.051v7.895c0,0.299,0,1.004-1.048,1.037h-3.955
		c-3.195,0-4.354,2.635-4.354,4.406v11.977l317.059,0.018v-11.994c0-3.23-2.586-4.404-4.322-4.404h-3.988
		c-0.27,0-0.977,0-1.01-1.064v-7.893c0-0.295,0-0.992,1.035-1.025h34.162c0.295,0,0.98,0,1.014,1.051v7.895
		c0,0.299,0,1.004-1.039,1.039h-3.959c-3.189,0-4.346,2.633-4.346,4.404v11.994l54.689,0.004c1.672,0,1.672,0,1.672-45.303v-1.664
		h-99.33c-17.754,0-32.195-14.38-32.195-32.057l0.1-152.322v-1.664l-41.586-0.03l-0.004,1.659l-0.287,152.075
		c0,17.803-14.402,32.283-32.109,32.283l-64.583,0.087c-18.01,0-31.087-12.756-31.087-30.334l0.061-154.076v-1.664h-36.552
		l-0.219,153.899c0,17.677-14.446,32.053-32.201,32.053l-97.957,0.074v46.951l59.441,0.01V319.994z"/>
	<path fill="#FFFFFF" d="M556.769,275.538c0,0,92.703,0,95.82,0c0-3.162,0-161.691,0-161.691c0-2.595-0.748-15.542-15.584-15.542
		c0,0-101.727,0-104.85,0c-0.004,3.158-0.104,152.618-0.104,152.617C532.052,264.493,543.136,275.538,556.769,275.538z"/>
	<path fill="#FFFFFF" d="M421.042-57.86c-186.12,0-337,150.88-337,337s150.88,337,337,337s337-150.88,337-337
		S607.162-57.86,421.042-57.86z M662.871,336.972l0.068,114.34c0,20.816-17.258,26.322-26.385,26.322l-10.604,0.506l-6.09,13.025
		h-49.016l-5.938-13.025H281.162l-6.107,13.025h-48.994l-5.947-13.025h-14.173c-20.866,0-26.371-17.209-26.371-26.322
		c0,0-0.056-103.865-0.056-114.828h-0.247c-2.906,0-5.26-2.355-5.26-5.246v-46.489c0-2.877,2.354-5.22,5.26-5.22h0.247
		c0-10.478,0-168.526,0-168.526c0-19.302,15.988-24.391,24.452-24.391c0,0,104.407,0,109.202,0c0.849-1.815,2.33-3.257,4.444-3.257
		h36.246c2.114,0,3.595,1.442,4.427,3.257H477.74c0.83-1.815,2.313-3.257,4.426-3.257h41.432c2.102,0,3.6,1.442,4.432,3.257
		c4.811,0,110.404,0,110.404,0c19.32,0,24.436,15.953,24.436,24.391c0,0,0,161.886,0,168.262c2.863,0.044,5.207,2.357,5.207,5.211
		v46.731C668.076,334.617,665.734,336.912,662.871,336.972z"/>
	<path fill="#FFFFFF" d="M599.152,395.558h-18.656c0-2.033,0-52.281,0-52.281H264.547c0,0,0,48.967,0,50.998h-18.652
		c0-2.031,0-50.998,0-50.998h-61.412v30.354c0,0,48.145,0.053,50.263,0.057c0,1.971,0,34.012,0,34.012
		c0,2.092,1.767,3.795,3.937,3.795h33.955c2.17,0,3.937-1.703,3.937-3.795c0,0,0-32.035,0-34.012h291.204c0,1.977,0,34.012,0,34.012
		c0,2.092,1.764,3.795,3.934,3.795h36.072c2.17,0,3.938-1.703,3.938-3.795c0,0,0-32.041,0-34.012
		c2.105-0.004,44.211-0.057,44.211-0.057l0.33-30.354h-57.111C599.152,343.277,599.152,393.525,599.152,395.558z"/>
</g>
</svg>
