<?xml version="1.0" encoding="utf-8"?>
<!-- Generator: Adobe Illustrator 16.0.0, SVG Export Plug-In . SVG Version: 6.00 Build 0)  -->
<!DOCTYPE svg PUBLIC "-//W3C//DTD SVG 1.1//EN" "http://www.w3.org/Graphics/SVG/1.1/DTD/svg11.dtd">
<svg version="1.1" xmlns="http://www.w3.org/2000/svg" xmlns:xlink="http://www.w3.org/1999/xlink" x="0px" y="0px" width="56px"
	 height="56px" viewBox="0 0 56 56" enable-background="new 0 0 56 56" xml:space="preserve">
<g id="Ebene_1">
</g>
<g id="Ebene_2">
	<g>
		<rect x="14" y="35.89" fill="#FFFFFF" width="26" height="2"/>
		<rect x="8" y="35.89" fill="#FFFFFF" width="4" height="2"/>
		<polygon fill="#FFFFFF" points="16,28.89 17,28.89 17,14.89 9,14.89 9,15.89 8,15.89 8,29.89 16,29.89 		"/>
		<rect x="42" y="35.89" fill="#FFFFFF" width="4" height="2"/>
		<polygon fill="#FFFFFF" points="36,29.89 35,29.89 35,27.89 35,14.89 32,14.89 32,27.89 32,29.89 31,29.89 31,30.89 22,30.89 
			22,29.89 21,29.89 21,27.89 21,14.89 18,14.89 18,27.89 18,29.89 17,29.89 17,30.89 8,30.89 8,33.89 12,33.89 12,32.89 11,32.89 
			11,31.89 13,31.89 15,31.89 15,31.89 15,32.89 14,32.89 14,33.89 40,33.89 40,32.89 39,32.89 39,31.89 41,31.89 43,31.89 
			43,31.89 43,32.89 42,32.89 42,33.89 46,33.89 46,30.89 36,30.89 		"/>
		<polygon fill="#FFFFFF" points="23,29.89 30,29.89 30,28.89 31,28.89 31,14.89 22,14.89 22,28.89 23,28.89 		"/>
		<path fill="#FFFFFF" d="M27.939,0C12.509,0,0,12.509,0,27.94c0,15.431,12.509,27.94,27.939,27.94
			c15.432,0,27.94-12.51,27.94-27.94C55.88,12.509,43.371,0,27.939,0z M47,34.89L47,34.89v2v2v6h-1v2h-3v1h-4v-1H15v1h-4v-1H8v-2H7
			v-6v-2v-2l0,0H6v-5h1v-15h1v-1h9v-1h5v1h9v-1h5v1h10v1h1v15h1v5H47z"/>
		<polygon fill="#FFFFFF" points="45,14.89 36,14.89 36,28.89 37,28.89 37,29.89 46,29.89 46,15.89 45,15.89 		"/>
	</g>
</g>
</svg>
