<?xml version="1.0" encoding="UTF-8"?>
<svg width="26px" height="36px" viewBox="0 0 26 36" version="1.1" xmlns="http://www.w3.org/2000/svg" xmlns:xlink="http://www.w3.org/1999/xlink">
    <title>Combined Shape</title>
    <g id="Style" stroke="#aaaaaa" stroke-width="1px" fill="#aaaaaa" fill-rule="evenodd">
        <g id="Artboard" transform="translate(-269.000000, -14.000000)" fill="#aaaaaa" fill-rule="nonzero">
            <g id="Group" transform="translate(269.000000, 14.000000)">
                <path d="M13,0 C17.3412797,0 20.8672353,3.31594641 20.9963375,7.44409657 L21,7.67861606 L21,10 L22,10 C24.209139,10 26,11.790861 26,14 L26,32 C26,34.209139 24.209139,36 22,36 L4,36 C1.790861,36 0,34.209139 0,32 L0,14 C0,11.790861 1.790861,10 4,10 L5,10 L5,7.66882192 L5.00408341,7.4311054 C5.14058665,3.29942996 8.67313338,0 13,0 Z M22,12 L4,12 C2.9456382,12 2.08183488,12.8158778 2.00548574,13.8507377 L2,14 L2,32 C2,33.0543618 2.81587779,33.9181651 3.85073766,33.9945143 L4,34 L22,34 C23.0543618,34 23.9181651,33.1841222 23.9945143,32.1492623 L24,32 L24,14 C24,12.9456382 23.1841222,12.0818349 22.1492623,12.0054857 L22,12 Z M13,18.5 C14.1045695,18.5 15,19.3954305 15,20.5 C15,21.4315516 14.3631171,22.2143512 13.5010222,22.4367279 L13.5,27 C13.5,27.2761424 13.2761424,27.5 13,27.5 C12.7238576,27.5 12.5,27.2761424 12.5,27 L12.4999808,22.4369863 C11.6373769,22.2149582 11,21.4319128 11,20.5 C11,19.3954305 11.8954305,18.5 13,18.5 Z M13,1.27359327 C9.49724102,1.27359327 6.60866589,3.90193936 6.38061248,7.24170783 L6.36953246,7.46050776 L6.36585366,7.67861606 L6.365,10 L19.634,10 L19.6341463,7.67861606 C19.6341463,4.13679622 16.6590252,1.27359327 13,1.27359327 Z" id="Combined-Shape"></path>
            </g>
        </g>
    </g>
</svg>