<?xml version="1.0" encoding="UTF-8"?>
<svg width="183px" height="35px" viewBox="0 0 183 35" version="1.1" xmlns="http://www.w3.org/2000/svg" xmlns:xlink="http://www.w3.org/1999/xlink">
    <!-- Generator: Sketch 52.2 (67145) - http://www.bohemiancoding.com/sketch -->
    <title>logo kleur</title>
    <desc>Created with Sketch.</desc>
    <defs>
        <polygon id="path-1" points="0.0420689655 0.0854039296 11.7947356 0.0854039296 11.7947356 18.526214 0.0420689655 18.526214"></polygon>
        <polygon id="path-3" points="0.347770115 0.0532 53.2817471 0.0532 53.2817471 34.9995092 0.347770115 34.9995092"></polygon>
        <polygon id="path-5" points="0.0194163054 0.235038561 20.8514828 0.235038561 20.8514828 15.5277695 0.0194163054 15.5277695"></polygon>
    </defs>
    <g id="Zeplin" stroke="none" stroke-width="1" fill="none" fill-rule="evenodd">
        <g id="Style-Guide" transform="translate(-189.000000, -4161.000000)">
            <g id="logo-kleur" transform="translate(189.000000, 4161.000000)">
                <g id="Group-3" transform="translate(0.000000, 1.400000)">
                    <mask id="mask-2" fill="white">
                        <use xlink:href="#path-1"></use>
                    </mask>
                    <g id="Clip-2"></g>
                    <path d="M11.7947356,0.4088 C11.7947356,0.4088 8.36681609,-0.9338 4.89332184,1.8522 C4.89332184,1.8522 0.767758621,4.6158 0.0105172414,16.2687 C0.0105172414,16.2687 -0.218758621,18.2077 1.49485057,18.4933 C1.49485057,18.4933 3.22248276,18.8265 3.44965517,17.3726 C3.67752874,15.9194 3.63475862,8.568 6.89650575,4.7971 C6.89650575,4.7971 7.21412644,4.3204 8.08285057,3.9494 C8.80643678,3.5028 9.37857471,2.688 9.80627586,2.0433 C9.80627586,2.0433 10.4436207,1.1984 11.7947356,0.4088" id="Fill-1" fill="#FFFFFF" mask="url(#mask-2)"></path>
                </g>
                <path d="M17.9830805,1.5365 C17.9830805,1.5365 14.9344828,0.5719 11.6552069,3.073 C11.6552069,3.073 7.75962069,5.4509 6.85022989,14.8974 C6.85022989,14.8974 6.51648276,17.2298 6.69808046,18.4114 C6.69808046,18.4114 6.84812644,19.7918 8.27356322,19.9129 C8.27356322,19.9129 9.99208046,20.0466 10.0993563,18.4394 C10.205931,16.8329 10.2458966,16.1805 10.2458966,16.1805 C10.2458966,16.1805 10.5165402,9.9008 13.0687241,6.7158 L13.6864368,7.1785 C13.6864368,7.1785 14.5558621,3.8808 17.9830805,1.5365" id="Fill-4" fill="#FFFFFF"></path>
                <path d="M24.1721264,1.5365 C24.1721264,1.5365 20.0921379,0.5873 17.1381954,3.7898 C17.1381954,3.7898 14.2066897,6.4022 13.3421724,12.8835 C13.3421724,12.8835 12.9782759,16.3667 12.9172759,18.0628 C12.9172759,18.0628 12.8871264,19.7057 14.4703218,19.915 C14.4703218,19.915 16.1018966,20.0158 16.207069,18.2882 C16.207069,18.2882 16.315046,10.3495 19.257069,6.7158 L19.9855632,7.1701 C19.9855632,7.1701 21.2595517,3.5007 24.1721264,1.5365" id="Fill-5" fill="#FFFFFF"></path>
                <g id="Group-14" transform="translate(16.126437, 0.000000)">
                    <mask id="mask-4" fill="white">
                        <use xlink:href="#path-3"></use>
                    </mask>
                    <g id="Clip-7"></g>
                    <path d="M12.7405862,1.4504 C12.7405862,1.4504 8.63325287,1.2831 6.22129885,5.4173 C6.22129885,5.4173 3.43493103,9.4689 3.44614943,17.7716 C3.44614943,17.7709 3.27577011,19.7358 4.82250575,19.9178 C4.82250575,19.9178 6.65250575,20.0312 6.65250575,17.9417 C6.65250575,17.9417 6.73383908,9.7531 9.86587356,6.4428 C9.86587356,6.4428 12.6368161,9.7636 12.8639885,17.5777 C12.8639885,17.5777 12.960046,22.9348 13.9612874,25.8874 C13.9612874,25.8867 14.8664713,22.5757 15.048069,17.9872 C15.048069,17.9872 14.973046,17.1486 15.7015402,16.5578 C15.7015402,16.5578 16.1811264,16.3226 16.0878736,15.4882 C16.0878736,15.4882 15.4175747,8.6695 13.1423448,4.8076 C13.1423448,4.8076 17.9634483,4.494 18.9191149,14.1253 C18.9191149,14.1253 18.9296322,15.5337 19.7114138,16.4101 C19.7114138,16.4101 20.2828506,16.8168 20.341046,17.8052 C20.341046,17.8052 20.481977,19.1681 20.0725057,23.5753 C20.0725057,23.5753 19.9757471,24.5406 20.4006437,25.914 C20.4006437,25.914 21.5911954,22.6205 21.2784828,19.3956 C21.2784828,19.3956 21.1207241,16.7755 22.4248621,15.8921 C22.4248621,15.8921 22.3154828,8.582 19.402908,4.5836 C19.402908,4.5836 17.0975287,1.2684 12.7405862,1.4504" id="Fill-6" fill="#FFFFFF" mask="url(#mask-4)"></path>
                    <path d="M27.1050345,34.5443 C27.1050345,34.5443 30.5322529,35.8876 34.0064483,33.1009 C34.0064483,33.1009 38.1320115,30.3373 38.8892529,18.6837 C38.8892529,18.6837 39.1178276,16.7461 37.4049195,16.4598 C37.4049195,16.4598 35.6772874,16.1266 35.4501149,17.5805 C35.2222414,19.0337 35.2650115,26.3844 32.0025632,30.156 C32.0025632,30.156 31.6849425,30.6327 30.8162184,31.0037 C30.0926322,31.4503 29.5204943,32.2658 29.0934943,32.9098 C29.0934943,32.9098 28.4554483,33.7554 27.1050345,34.5443" id="Fill-8" fill="#FFFFFF" mask="url(#mask-4)"></path>
                    <path d="M20.9159885,34.8166 C20.9159885,34.8166 23.9645862,35.7812 27.2445632,33.2801 C27.2445632,33.2801 31.1401494,30.9022 32.0495402,21.455 C32.0495402,21.455 32.3832874,19.1233 32.2009885,17.9424 C32.2009885,17.9424 32.0509425,16.5606 30.6255057,16.4402 C30.6255057,16.4402 28.9069885,16.3065 28.8004138,17.9137 C28.6931379,19.5202 28.6538736,20.1719 28.6538736,20.1719 C28.6538736,20.1719 28.3825287,26.453 25.8303448,29.6373 L25.2126322,29.1753 C25.2126322,29.1753 24.343908,32.4723 20.9159885,34.8166" id="Fill-9" fill="#FFFFFF" mask="url(#mask-4)"></path>
                    <path d="M14.7276437,34.8166 C14.7276437,34.8166 18.8076322,35.7665 21.7615747,32.5633 C21.7615747,32.5633 24.6923793,29.9509 25.5575977,23.4696 C25.5575977,23.4696 25.9214943,19.9864 25.9817931,18.2903 C25.9817931,18.2903 26.0126437,16.6474 24.4294483,16.4374 C24.4294483,16.4374 22.7971724,16.3373 22.6927011,18.0649 C22.6927011,18.0649 22.5847241,26.0029 19.642,29.6373 L18.9142069,29.183 C18.9142069,29.183 17.6402184,32.8524 14.7276437,34.8166" id="Fill-10" fill="#FFFFFF" mask="url(#mask-4)"></path>
                    <path d="M10.0327471,34.9027 C10.0327471,34.9027 14.1393793,35.07 16.5513333,30.9358 C16.5513333,30.9358 19.3384023,26.8842 19.3264828,18.5822 C19.3264828,18.5822 19.4975632,16.6166 17.9501264,16.4346 C17.9501264,16.4346 16.1201264,16.3212 16.1201264,18.4114 C16.1201264,18.4114 16.0387931,26.6007 12.9074598,29.9096 C12.9074598,29.9096 10.1358161,26.5895 9.90864368,18.7754 C9.90864368,18.7754 9.81328736,13.419 8.81134483,10.4657 C8.81134483,10.4657 7.90686207,13.7774 7.72456322,18.3652 C7.72456322,18.3652 7.79958621,19.2045 7.0717931,19.7946 C7.0717931,19.7946 6.59150575,20.0298 6.68475862,20.8656 C6.68475862,20.8656 7.35575862,27.6843 9.63098851,31.5455 C9.63098851,31.5455 4.80918391,31.8591 3.85421839,22.2278 C3.85421839,22.2278 3.84370115,20.8194 3.06191954,19.9423 C3.06191954,19.9423 2.48978161,19.5356 2.43158621,18.5486 C2.43158621,18.5486 2.29065517,17.185 2.70012644,12.7778 C2.70012644,12.7778 2.79688506,11.8125 2.37268966,10.4398 C2.37268966,10.4398 1.18143678,13.7319 1.49485057,16.9582 C1.49485057,16.9582 1.65190805,19.5776 0.347770115,20.4603 C0.347770115,20.4603 0.457149425,27.7718 3.36972414,31.7695 C3.36972414,31.7695 5.67510345,35.0847 10.0327471,34.9027" id="Fill-11" fill="#FFFFFF" mask="url(#mask-4)"></path>
                    <path d="M44.5180805,10.906 L46.2646437,5.5559 C46.5591264,4.6347 47.5414368,4.2231 48.3849195,4.6543 C49.1309425,5.0071 49.4450575,5.8303 49.1113103,6.6535 L46.1468506,14.0819 C45.6953103,15.1795 44.9492874,15.5904 43.9087816,15.218 C43.4383103,15.0619 43.1241954,14.7287 42.868977,14.0819 L39.9045172,6.6535 C39.5707701,5.8303 39.8848851,5.0071 40.630908,4.6543 C41.475092,4.2231 42.4567011,4.6543 42.7511839,5.5559 L44.5180805,10.906" id="Fill-12" fill="#FFFFFF" mask="url(#mask-4)"></path>
                    <path d="M50.3074713,0.5579 C50.9945977,-0.1281 52.094,-0.1085 52.7811264,0.5775 C53.4486207,1.2635 53.4486207,2.3415 52.7811264,3.0275 C52.094,3.7135 50.9945977,3.7135 50.3271034,3.0471 C49.9933563,2.7139 49.7970345,2.2631 49.7970345,1.7934 C49.7970345,1.3426 49.9933563,0.8911 50.3074713,0.5579 Z M50.0326207,6.0067 C50.0326207,5.5951 50.1896782,5.2031 50.4841609,4.9287 C51.0731264,4.3211 52.0351034,4.3407 52.624069,4.9287 C52.8989195,5.2227 53.055977,5.6147 53.055977,6.0067 L53.055977,13.8467 C53.0756092,14.6888 52.4081149,15.3559 51.563931,15.3755 C50.7197471,15.3755 50.0326207,14.6888 50.0326207,13.8663 L50.0326207,6.0067 Z" id="Fill-13" fill="#FFFFFF" mask="url(#mask-4)"></path>
                </g>
                <path d="M76.5402759,4.4975 C78.797977,4.7523 79.544,5.7323 79.2887816,6.7319 C79.1317241,7.3983 78.6409195,7.7903 78.051954,7.7707 C77.9537931,7.7511 77.8556322,7.7511 77.7574713,7.7315 L77.6004138,7.6727 L77.3255632,7.5747 L77.1292414,7.5159 L76.8543908,7.4179 C75.0285977,6.8299 73.5561839,7.9079 73.5765172,9.9652 C73.6150805,12.0239 75.1071264,13.0228 77.0507126,12.3767 L77.3844598,12.2591 L77.5218851,12.2003 C78.4053333,11.886 79.1906207,12.3179 79.328046,13.2384 C79.4458391,14.0035 78.9354023,14.7091 77.5218851,15.1592 C77.1685057,15.2768 76.7954943,15.3559 76.4028506,15.3944 C73.0261149,15.708 70.4746322,13.356 70.5131954,9.8875 C70.5531609,6.3987 73.1635402,4.1251 76.5402759,4.4975" id="Fill-15" fill="#FFFFFF"></path>
                <path d="M81.5408736,4.6151 L81.5219425,2.8707 C81.5219425,2.0475 82.1894368,1.3615 83.0329195,1.3615 C83.8581724,1.3615 84.5452989,2.0475 84.5249655,2.8707 L84.5249655,4.6151 L85.428046,4.6151 C85.7814253,4.6151 86.1348046,4.7523 86.390023,5.0267 C86.920092,5.5363 86.920092,6.3987 86.390023,6.9279 C86.1151724,7.1827 85.7814253,7.3199 85.4091149,7.3199 L84.5249655,7.3199 L84.5249655,13.8271 C84.5249655,14.2184 84.3686092,14.6111 84.0937586,14.9051 C83.5047931,15.4931 82.5617471,15.4931 81.9924138,14.9051 C81.6986322,14.6111 81.5408736,14.2184 81.5408736,13.8271 L81.5612069,7.3003 L81.0311379,7.3003 C80.6581264,7.3003 80.3047471,7.1631 80.0298966,6.8887 C79.4998276,6.3791 79.4998276,5.5363 80.0488276,5.0071 C80.3047471,4.7523 80.6581264,4.6151 81.0311379,4.6151 L81.5408736,4.6151" id="Fill-16" fill="#FFFFFF"></path>
                <path d="M87.3681264,5.9479 C87.3681264,5.2227 87.9774253,4.5563 88.9001379,4.4975 C89.8424828,4.4191 90.4111149,5.0071 90.3725517,5.5755 L90.3522184,5.7323 C90.4314483,5.6343 90.5092759,5.5363 90.6081379,5.4579 C91.7664368,4.2035 93.081092,4.2231 93.6903908,5.1247 C94.2204598,5.9087 93.944908,6.8103 93.1603218,7.1435 L93.0032644,7.2219 L92.5909885,7.3591 C92.1976437,7.4963 91.9227931,7.6335 91.6872069,7.7707 C90.725931,8.3391 90.3914828,8.8487 90.3914828,9.3387 L90.3914828,13.8467 C90.3914828,14.6699 89.7246897,15.3559 88.8805057,15.3559 C88.0363218,15.3559 87.3681264,14.6888 87.3681264,13.8663 L87.3681264,5.9479" id="Fill-17" fill="#FFFFFF"></path>
                <path d="M96.8855287,10.3768 C97.140046,12.18 98.2001839,12.9843 99.4952069,12.6903 C100.359724,12.5139 101.007586,11.7299 101.164644,10.3971 C101.203207,10.0828 101.203207,9.7699 101.164644,9.4563 C100.987954,8.1627 100.319759,7.3983 99.4952069,7.2219 C98.2394483,6.9475 97.1211149,7.7315 96.8855287,9.4759 C96.8644943,9.6327 96.8644943,9.7888 96.8644943,9.9463 C96.8644943,10.1031 96.8644943,10.2403 96.8855287,10.3768 Z M94.6081954,6.9867 C95.5884023,5.3599 97.2578391,4.4191 99.0436667,4.4191 C101.890333,4.4191 104.226563,6.7711 104.246195,9.9064 C104.246195,13.062 101.909966,15.414 99.0436667,15.414 C96.1584368,15.414 93.8425402,13.062 93.8425402,9.9064 C93.8425402,8.7703 94.0970575,7.8099 94.6081954,6.9867 Z" id="Fill-18" fill="#FFFFFF"></path>
                <path d="M105.538414,6.0263 C105.538414,5.2815 106.167345,4.5759 107.050793,4.4975 C107.85431,4.4191 108.404713,4.9287 108.404713,5.4775 L108.404713,5.5951 C108.875885,5.0267 109.523747,4.6543 110.44646,4.4975 C110.937264,4.3995 111.42877,4.3995 111.899943,4.4779 C113.980253,4.8111 115.119621,6.1831 115.119621,8.2411 L115.119621,13.8663 C115.119621,14.7091 114.450724,15.3755 113.626874,15.3944 C112.78269,15.3944 112.095563,14.7287 112.095563,13.8859 L112.095563,8.7507 C112.095563,8.2803 111.899943,7.8295 111.565494,7.4963 C110.878368,6.7907 109.759333,6.7907 109.072207,7.4767 C108.739161,7.8295 108.562471,8.2607 108.562471,8.7311 L108.562471,13.8663 C108.562471,14.6888 107.874644,15.3755 107.029759,15.3559 C106.205908,15.3559 105.538414,14.6699 105.538414,13.8467 L105.538414,6.0263" id="Fill-19" fill="#FFFFFF"></path>
                <path d="M129.076701,8.9271 C129.057069,8.8683 129.057069,8.7899 129.036736,8.7311 C128.723322,7.3003 127.703149,6.6339 126.544149,6.9083 C125.817057,7.0847 125.19023,7.7119 124.93431,8.6919 C124.914678,8.7703 124.914678,8.8487 124.895747,8.9271 L129.076701,8.9271 Z M124.973575,10.8675 C125.052103,11.2399 125.228092,11.6123 125.484713,11.9259 C126.28823,12.8856 127.762046,13.1208 129.43008,12.2388 C130.392759,11.7096 130.666207,11.6711 131.177345,11.8671 C131.471828,11.9847 131.707414,12.2199 131.825207,12.5139 C132.256414,13.5723 130.941759,15.3944 127.250908,15.414 C123.501862,15.414 121.007874,12.3179 121.87169,8.5939 C122.362494,6.4379 123.991966,4.8895 126.033713,4.5171 C128.388874,4.0859 130.628345,5.2815 131.608552,7.5159 C131.864471,8.1235 132.020828,8.7507 132.060793,9.2211 C132.178586,10.4356 131.785241,10.8675 130.784,10.8675 L124.973575,10.8675 Z" id="Fill-20" fill="#FFFFFF"></path>
                <path d="M133.176322,6.0263 C133.176322,5.2815 133.805253,4.5759 134.688701,4.4975 C135.493621,4.4191 136.042621,4.9287 136.042621,5.4775 L136.042621,5.5951 C136.513793,5.0267 137.161655,4.6543 138.084368,4.4975 C138.575172,4.3995 139.066678,4.3995 139.537851,4.4779 C141.61746,4.8111 142.756828,6.1831 142.756828,8.2411 L142.756828,13.8663 C142.756828,14.7091 142.088632,15.3755 141.264782,15.3944 C140.420598,15.3944 139.733471,14.7287 139.733471,13.8859 L139.733471,8.7507 C139.733471,8.2803 139.537851,7.8295 139.203402,7.4963 C138.516276,6.7907 137.397241,6.7907 136.709414,7.4767 C136.377069,7.8295 136.200379,8.2607 136.200379,8.7311 L136.200379,13.8663 C136.200379,14.6888 135.512552,15.3755 134.669069,15.3559 C133.843816,15.3559 133.176322,14.6699 133.176322,13.8467 L133.176322,6.0263" id="Fill-21" fill="#FFFFFF"></path>
                <path d="M151.411816,8.9271 C151.392885,8.8683 151.392885,8.7899 151.373954,8.7311 C151.058437,7.3003 150.038264,6.6339 148.879966,6.9083 C148.154276,7.0847 147.525345,7.7119 147.270828,8.6919 C147.250494,8.7703 147.250494,8.8487 147.230862,8.9271 L151.411816,8.9271 Z M147.309391,10.8675 C147.388621,11.2399 147.56531,11.6123 147.819828,11.9259 C148.625448,12.8856 150.097161,13.1208 151.765195,12.2388 C152.727874,11.7096 153.003425,11.6711 153.51246,11.8671 C153.806943,11.9847 154.042529,12.2199 154.160322,12.5139 C154.592931,13.5723 153.276874,15.3944 149.586724,15.414 C145.836977,15.414 143.342989,12.3179 144.207506,8.5939 C144.699011,6.4379 146.32708,4.8895 148.368828,4.5171 C150.726092,4.0859 152.96346,5.2815 153.94577,7.5159 C154.200287,8.1235 154.357345,8.7507 154.395908,9.2211 C154.513701,10.4356 154.121759,10.8675 153.121218,10.8675 L147.309391,10.8675 Z" id="Fill-22" fill="#FFFFFF"></path>
                <path d="M155.512138,5.9479 C155.512138,5.2227 156.121437,4.5563 157.042747,4.4975 C157.986494,4.4191 158.555126,5.0071 158.516563,5.5755 L158.49623,5.7323 C158.57546,5.6343 158.653287,5.5363 158.752149,5.4579 C159.909046,4.2035 161.225103,4.2231 161.833701,5.1247 C162.363069,5.9087 162.089621,6.8103 161.303632,7.1435 L161.147276,7.2219 L160.735,7.3591 C160.342356,7.4963 160.066805,7.6335 159.831218,7.7707 C158.869943,8.3391 158.535494,8.8487 158.535494,9.3387 L158.535494,13.8467 C158.535494,14.6699 157.868701,15.3559 157.023816,15.3559 C156.180333,15.3559 155.512138,14.6888 155.512138,13.8663 L155.512138,5.9479" id="Fill-23" fill="#FFFFFF"></path>
                <g id="Group-27" transform="translate(161.965517, 4.200000)">
                    <mask id="mask-6" fill="white">
                        <use xlink:href="#path-5"></use>
                    </mask>
                    <g id="Clip-25"></g>
                    <path d="M3.65158621,7.7259 C4.49647126,8.7444 6.04671264,8.7255 6.83270115,7.6671 C7.18608046,7.1967 7.36277011,6.6283 7.38170115,5.8051 C7.38170115,4.4723 6.8915977,3.6295 6.1056092,3.2375 C4.79095402,2.5907 3.31854023,3.4531 3.08295402,5.236 C3.06262069,5.4124 3.04368966,5.6091 3.04368966,5.7855 C3.04368966,6.6087 3.27927586,7.2555 3.65158621,7.7259 Z M7.46022989,1.3167 C7.48056322,0.7483 8.02956322,0.2387 8.83518391,0.3171 C9.71793103,0.3955 10.3468621,1.1011 10.3468621,1.8655 L10.3468621,9.7251 C10.3468621,13.6444 8.02956322,15.7808 3.94606897,15.3503 C3.12151724,15.2516 2.37689655,15.0563 1.66873563,14.7427 C0.217356322,14.0756 -0.0392643678,13.0564 0.667494253,12.3116 C1.06083908,11.8811 1.55094253,11.7824 2.21913793,11.9987 L2.23806897,12.0176 L2.84806897,12.2927 C2.9847931,12.3515 3.12151724,12.4096 3.25964368,12.4495 C5.83145977,13.3707 7.30387356,12.3116 7.36277011,10.3523 C7.38170115,10.2151 7.36277011,10.0772 7.36277011,9.9407 C6.24373563,11.5283 3.47489655,11.802 1.57127586,9.9211 C0.35408046,8.7059 -0.253816092,6.706 0.137425287,4.5311 C0.276252874,3.7471 0.530770115,3.0807 0.884149425,2.5123 C2.55358621,-0.1729 5.92891954,-0.4277 7.46022989,1.4539 L7.46022989,1.3167 Z" id="Fill-24" fill="#FFFFFF" mask="url(#mask-6)"></path>
                    <path d="M12.0338276,0.4347 C12.8773103,0.0819 13.7418276,0.4739 14.0952069,1.4343 L15.9791954,6.4708 L17.9031494,1.4147 C18.2768621,0.4543 19.1603103,0.0623 19.9848621,0.4543 C20.7308851,0.8071 21.045,1.6499 20.7308851,2.4143 L15.8424713,14.3696 C15.4301954,15.3692 14.6056437,15.7416 13.781092,15.4091 C12.9951034,15.0752 12.6627586,14.2324 12.9951034,13.4295 L14.410023,10.1759 L11.2092759,2.3555 C10.9147931,1.6107 11.2681724,0.7483 12.0338276,0.4347" id="Fill-26" fill="#FFFFFF" mask="url(#mask-6)"></path>
                </g>
                <path d="M77.6642184,21.6832 C77.807954,21.8015 77.8794713,21.9849 77.8794713,22.2341 C77.8794713,22.5015 77.8044483,22.6975 77.6537011,22.82 C77.502954,22.9425 77.2631609,23.0034 76.9357241,23.0034 C76.8396667,23.0034 76.7022414,22.9957 76.5227471,22.9775 L76.5227471,21.518 L76.9434368,21.5054 C77.2799885,21.5054 77.5204828,21.5649 77.6642184,21.6832 Z M78.0589655,23.121 C78.3057701,22.9208 78.4284713,22.6527 78.4284713,22.3174 C78.4284713,22.0269 78.3597586,21.7973 78.220931,21.6279 C78.0821034,21.4592 77.8612414,21.3381 77.5583448,21.2653 C77.7182069,21.2289 77.8647471,21.1372 77.9972644,20.9909 C78.1297816,20.8446 78.1956897,20.6829 78.1956897,20.5058 C78.1956897,20.2027 78.0919195,19.9696 77.8850805,19.8072 C77.6775402,19.6441 77.3844598,19.5629 77.0065402,19.5629 C76.8004023,19.5629 76.4652529,19.5748 75.9996897,19.5972 L75.9996897,23.4213 L77.0927816,23.4213 C77.4903333,23.4213 77.8121609,23.3212 78.0589655,23.121 Z M76.9904138,19.9962 C77.4454598,19.9962 77.6733333,20.1733 77.6733333,20.5261 C77.6733333,20.9279 77.4258276,21.1295 76.9308161,21.1295 C76.7681494,21.1295 76.6321264,21.1246 76.5227471,21.1141 L76.5227471,20.0151 C76.6601724,20.0025 76.8165287,19.9962 76.9904138,19.9962 Z" id="Fill-28" fill="#FFFFFF"></path>
                <polyline id="Fill-29" fill="#FFFFFF" points="86.103954 23.4213 83.8497586 23.4213 83.8497586 19.5972 84.3728161 19.5972 84.3728161 22.9516 86.103954 22.9516 86.103954 23.4213"></polyline>
                <path d="M91.3815057,22.2544 L91.3815057,19.5972 L91.9031609,19.5972 L91.9031609,22.2152 C91.9031609,22.4483 91.9774828,22.6408 92.1268276,22.7913 C92.274069,22.9411 92.4703908,23.0167 92.7136897,23.0167 C92.9731149,23.0167 93.1757471,22.9432 93.3236897,22.7976 C93.4716322,22.6513 93.5466552,22.4532 93.5466552,22.2026 L93.5466552,19.5972 L94.0683103,19.5972 L94.0683103,22.2572 C94.0683103,22.6436 93.9477126,22.9446 93.7065172,23.1616 C93.466023,23.3779 93.1357816,23.4871 92.7192989,23.4871 C92.2908966,23.4871 91.9606552,23.3807 91.7278736,23.1686 C91.4964943,22.9558 91.3815057,22.6513 91.3815057,22.2544" id="Fill-30" fill="#FFFFFF"></path>
                <polyline id="Fill-31" fill="#FFFFFF" points="102.853011 20.0669 101.088218 20.0669 101.088218 21.1295 102.353092 21.1295 102.353092 21.5733 101.088218 21.5733 101.088218 22.9516 102.824264 22.9516 102.824264 23.4213 100.565161 23.4213 100.565161 19.5972 102.853011 19.5972 102.853011 20.0669"></polyline>
                <path d="M115.595701,21.9758 C116.579414,21.9758 117.07092,21.5453 117.07092,20.6857 C117.07092,19.9423 116.514908,19.5713 115.402885,19.5713 C115.320851,19.5713 115.08246,19.5797 114.68631,19.5972 L114.68631,23.4213 L115.209368,23.4213 L115.209368,21.9492 C115.408494,21.9667 115.536805,21.9758 115.595701,21.9758 Z M115.494736,20.041 C116.186069,20.041 116.532437,20.2741 116.532437,20.7403 C116.532437,21.2499 116.207805,21.5054 115.559943,21.5054 C115.548023,21.5054 115.43023,21.497 115.209368,21.4795 L115.209368,20.0669 C115.329966,20.0501 115.424621,20.041 115.494736,20.041 Z" id="Fill-32" fill="#FFFFFF"></path>
                <path d="M122.717977,22.9229 C122.990724,23.2988 123.368644,23.4871 123.852437,23.4871 C124.381805,23.4871 124.789172,23.3086 125.072437,22.953 C125.357103,22.5967 125.499437,22.1046 125.499437,21.4767 C125.499437,20.8642 125.357103,20.3861 125.073839,20.0438 C124.791276,19.7008 124.383207,19.5286 123.852437,19.5286 C123.379862,19.5286 123.004747,19.7155 122.726391,20.0879 C122.448736,20.4603 122.308506,20.9237 122.308506,21.4767 C122.308506,22.0647 122.445931,22.547 122.717977,22.9229 Z M123.111322,20.3959 C123.281,20.1313 123.527805,19.999 123.852437,19.999 C124.583736,19.999 124.950437,20.4911 124.950437,21.4767 C124.950437,21.9639 124.855782,22.3426 124.668575,22.6128 C124.482069,22.8816 124.209322,23.0167 123.852437,23.0167 C123.535517,23.0167 123.292218,22.8697 123.118333,22.5757 C122.944448,22.2817 122.858207,21.9156 122.858207,21.4767 C122.858207,21.0203 122.943046,20.6605 123.111322,20.3959 Z" id="Fill-33" fill="#FFFFFF"></path>
                <polyline id="Fill-34" fill="#FFFFFF" points="135.056805 19.5972 133.864149 23.4738 133.70008 23.4738 132.787885 20.8376 131.934586 23.4738 131.770517 23.4738 130.562437 19.5972 131.105828 19.5972 131.874287 22.2677 132.716368 19.5972 132.900069 19.5972 133.730931 22.2628 134.513414 19.5972 135.056805 19.5972"></polyline>
                <polyline id="Fill-35" fill="#FFFFFF" points="142.589954 20.0669 140.825161 20.0669 140.825161 21.1295 142.091437 21.1295 142.091437 21.5733 140.825161 21.5733 140.825161 22.9516 142.561207 22.9516 142.561207 23.4213 140.302805 23.4213 140.302805 19.5972 142.589954 19.5972 142.589954 20.0669"></polyline>
                <path d="M149.604253,21.6615 C149.808287,21.6153 149.983575,21.4956 150.131517,21.3031 C150.280862,21.1106 150.354483,20.895 150.354483,20.6542 C150.354483,19.9234 149.894529,19.5573 148.974621,19.5573 C148.859632,19.5573 148.674529,19.5643 148.424218,19.5776 C148.171805,19.5902 148.036483,19.5972 148.016851,19.5972 L148.016851,23.4213 L148.540609,23.4213 L148.540609,21.7532 C148.792322,21.7714 148.977425,21.7791 149.093816,21.7791 L150.116793,23.4213 L150.714874,23.4213 L149.604253,21.6615 Z M148.848414,20.041 C149.180057,20.041 149.421954,20.0879 149.575506,20.1817 C149.729057,20.2762 149.805483,20.4302 149.805483,20.6437 C149.805483,20.9027 149.733264,21.0833 149.590931,21.1848 C149.447897,21.2849 149.219322,21.3353 148.905908,21.3353 C148.786713,21.3353 148.664713,21.3269 148.540609,21.3094 L148.540609,20.0669 C148.69346,20.0501 148.796529,20.041 148.848414,20.041 Z" id="Fill-36" fill="#FFFFFF"></path>
            </g>
        </g>
    </g>
</svg>