<?xml version="1.0" encoding="UTF-8"?>
<svg width="36px" height="36px" viewBox="0 0 36 36" version="1.1" xmlns="http://www.w3.org/2000/svg" xmlns:xlink="http://www.w3.org/1999/xlink">
    <title>Combined Shape Copy 3</title>
    <g id="Style" stroke="#aaaaaa" stroke-width="1px" fill="#aaaaaa" fill-rule="evenodd">
        <g id="Artboard" transform="translate(-307.000000, -14.000000)" fill="#aaaaaa" fill-rule="nonzero">
            <g id="Group" transform="translate(269.000000, 14.000000)">
                <path d="M65.6,0 C69.9412797,0 73.4672353,3.31594641 73.5963375,7.44409657 L73.6,7.67861606 L73.6,10.3632034 C73.6,10.7148964 73.2942432,11 72.9170732,11 C72.5713339,11 72.2856017,10.7604338 72.2403807,10.4496129 L72.2341463,10.3632034 L72.2341463,7.67861606 C72.2341463,4.13679622 69.2590252,1.27359327 65.6,1.27359327 C62.097241,1.27359327 59.2086659,3.90193936 58.9806125,7.24170783 L58.9695325,7.46050776 L58.9658537,7.67861606 L58.965,10 L60,10 C62.209139,10 64,11.790861 64,14 L64,32 C64,34.209139 62.209139,36 60,36 L42,36 C39.790861,36 38,34.209139 38,32 L38,14 C38,11.790861 39.790861,10 42,10 L57.599,10 L57.6,7.66882192 L57.6040834,7.4311054 C57.7405867,3.29942996 61.2731334,0 65.6,0 Z M60,12 L42,12 C40.9456382,12 40.0818349,12.8158778 40.0054857,13.8507377 L40,14 L40,32 C40,33.0543618 40.8158778,33.9181651 41.8507377,33.9945143 L42,34 L60,34 C61.0543618,34 61.9181651,33.1841222 61.9945143,32.1492623 L62,32 L62,14 C62,12.9456382 61.1841222,12.0818349 60.1492623,12.0054857 L60,12 Z M51,18.5 C52.1045695,18.5 53,19.3954305 53,20.5 C53,21.4315516 52.3631171,22.2143512 51.5010222,22.4367279 L51.5,27 C51.5,27.2761424 51.2761424,27.5 51,27.5 C50.7238576,27.5 50.5,27.2761424 50.5,27 L50.4999808,22.4369863 C49.6373769,22.2149582 49,21.4319128 49,20.5 C49,19.3954305 49.8954305,18.5 51,18.5 Z" id="Combined-Shape-Copy-3"></path>
            </g>
        </g>
    </g>
</svg>