<svg viewBox="0 0 38 24" fill="none" xmlns="http://www.w3.org/2000/svg">
    <path d="M8.05562 0.409826C8.05562 0.409826 5.70617 -0.501183 3.35673 1.41673C3.35673 1.41673 0.527809 3.2867 0.000382655 11.294C0.000382655 11.294 -0.143461 12.6365 1.00729 12.8283C1.00729 12.8283 2.20598 13.0681 2.34983 12.0611C2.49367 11.0542 2.49367 6.01972 4.69927 3.43054C4.69927 3.43054 4.93901 3.0949 5.51438 2.85517C5.99386 2.56748 6.37744 1.9921 6.71308 1.56057C6.71308 1.51263 7.14461 0.937252 8.05562 0.409826Z" fill="currentColor"/>
    <path d="M12.2744 0.217841C12.2744 0.217841 10.2126 -0.453429 7.95905 1.27269C7.95905 1.27269 5.27397 2.90292 4.65065 9.37588C4.65065 9.37588 4.41091 10.9582 4.55475 11.7733C4.55475 11.7733 4.65065 12.7322 5.6096 12.7802C5.6096 12.7802 6.8083 12.8761 6.85625 11.7733C6.95214 10.6705 6.95214 10.2389 6.95214 10.2389C6.95214 10.2389 7.14393 5.92363 8.87006 3.76598L9.30159 4.10161C9.34953 4.10161 9.97286 1.84807 12.2744 0.217841Z" fill="currentColor"/>
    <path d="M16.5418 0.218176C16.5418 0.218176 13.7608 -0.453093 11.747 1.75251C11.747 1.75251 9.73318 3.52658 9.1578 7.98572C9.1578 7.98572 8.91807 10.3831 8.87012 11.5339C8.87012 11.5339 8.87012 12.6367 9.92497 12.7805C9.92497 12.7805 11.0278 12.8285 11.1237 11.6777C11.1237 11.6777 11.2196 6.2596 13.2334 3.76632L13.7128 4.054C13.6649 4.10195 14.528 1.56072 16.5418 0.218176Z" fill="currentColor"/>
    <path d="M19.7534 0.170047C19.7534 0.170047 16.9244 0.0741508 15.2942 2.90307C15.2942 2.90307 13.3763 5.68405 13.3763 11.3419C13.3763 11.3419 13.2804 12.6844 14.3352 12.8283C14.3352 12.8283 15.5819 12.9242 15.5819 11.4857C15.5819 11.4857 15.6298 5.87584 17.7875 3.62229C17.7875 3.62229 19.7054 5.87584 19.8493 11.246C19.8493 11.246 19.8972 14.938 20.6164 16.9518C20.6164 16.9518 21.2397 14.6982 21.3836 11.5337C21.3836 11.5337 21.3356 10.9583 21.8151 10.5747C21.8151 10.5747 22.1507 10.4309 22.1028 9.85551C22.1028 9.85551 21.6233 5.20457 20.089 2.51949C20.089 2.51949 23.3974 2.3277 24.0207 8.89655C24.0207 8.89655 24.0207 9.85551 24.5481 10.4788C24.5481 10.4788 24.9317 10.7665 24.9797 11.4378C24.9797 11.4378 25.0756 12.3488 24.7879 15.3695C24.7879 15.3695 24.7399 16.0408 25.0276 16.9518C25.0276 16.9518 25.8427 14.6982 25.6509 12.4926C25.6509 12.4926 25.555 10.7186 26.4181 10.0952C26.4181 10.0952 26.3222 5.10867 24.3563 2.3277C24.3084 2.3277 22.7261 0.026203 19.7534 0.170047Z" fill="currentColor"/>
    <path d="M29.584 22.8494C29.584 22.8494 31.9334 23.7605 34.2829 21.8425C34.2829 21.8425 37.1118 19.9726 37.6392 11.9653C37.6392 11.9653 37.7831 10.6227 36.6323 10.431C36.6323 10.431 35.4336 10.1912 35.2898 11.1981C35.1459 12.205 35.1459 17.2395 32.9403 19.8287C32.9403 19.8287 32.7006 20.1644 32.1252 20.4041C31.6457 20.6918 31.2622 21.2672 30.9265 21.6987C30.9265 21.6987 30.495 22.2741 29.584 22.8494Z" fill="currentColor"/>
    <path d="M25.3154 23.041C25.3154 23.041 27.3772 23.7123 29.6307 21.9861C29.6307 21.9861 32.3158 20.3559 32.9391 13.883C32.9391 13.883 33.1789 12.3007 33.035 11.4856C33.035 11.4856 32.9391 10.5266 31.9802 10.4787C31.9802 10.4787 30.7815 10.3828 30.7335 11.4856C30.6376 12.5884 30.6376 13.0199 30.6376 13.0199C30.6376 13.0199 30.4458 17.3352 28.7197 19.4929L28.2882 19.1572C28.2882 19.1572 27.6649 21.4108 25.3154 23.041Z" fill="currentColor"/>
    <path d="M21.0972 23.0411C21.0972 23.0411 23.8781 23.7124 25.892 21.5068C25.892 21.5068 27.9058 19.7327 28.4811 15.2736C28.4811 15.2736 28.7209 12.8762 28.7688 11.7254C28.7688 11.7254 28.7688 10.6226 27.714 10.4788C27.714 10.4788 26.6112 10.4309 26.5153 11.5816C26.5153 11.5816 26.4194 16.9997 24.4056 19.493L23.9261 19.2053C23.974 19.1574 23.111 21.6986 21.0972 23.0411Z" fill="currentColor"/>
    <path d="M17.883 23.0891C17.883 23.0891 20.7119 23.185 22.3422 20.3561C22.3422 20.3561 24.2601 17.5751 24.2601 11.9173C24.2601 11.9173 24.356 10.5747 23.3011 10.4309C23.3011 10.4309 22.0545 10.335 22.0545 11.7734C22.0545 11.7734 22.0065 17.3833 19.8489 19.6369C19.8489 19.6369 17.931 17.3833 17.7871 12.0132C17.7871 12.0132 17.7392 8.32118 17.0199 6.30737C17.0199 6.30737 16.3966 8.56092 16.2528 11.7255C16.2528 11.7255 16.3007 12.3009 15.8213 12.6844C15.8213 12.6844 15.4856 12.8283 15.5336 13.4037C15.5336 13.4037 16.013 18.0546 17.5474 20.7397C17.5474 20.7397 14.239 20.9315 13.6157 14.3626C13.6157 14.3626 13.6157 13.4037 13.0882 12.7803C13.0882 12.7803 12.7046 12.4926 12.6567 11.8214C12.6567 11.8214 12.5608 10.9104 12.8485 7.88965C12.8485 7.88965 12.8964 7.21838 12.6087 6.30737C12.6087 6.30737 11.7936 8.56092 11.9854 10.7665C11.9854 10.7665 12.0813 12.5406 11.2183 13.1639C11.2183 13.1639 11.3142 18.1505 13.28 20.9315C13.328 20.9315 14.9102 23.185 17.883 23.0891Z" fill="currentColor"/>
</svg>
