<?xml version="1.0" standalone="no"?>
<!DOCTYPE svg PUBLIC "-//W3C//DTD SVG 20010904//EN"
 "http://www.w3.org/TR/2001/REC-SVG-20010904/DTD/svg10.dtd">
<svg version="1.0" xmlns="http://www.w3.org/2000/svg"
 width="700.000000pt" height="700.000000pt" viewBox="0 0 700.000000 700.000000"
 preserveAspectRatio="xMidYMid meet">
<metadata>
Created by potrace 1.14, written by Peter Selinger 2001-2017
</metadata>
<g transform="translate(0.000000,700.000000) scale(0.100000,-0.100000)"
fill="#000000" stroke="none">
<path d="M3255 6354 c-16 -2 -73 -9 -125 -15 -619 -71 -1249 -386 -1691 -846
-423 -442 -685 -976 -776 -1588 -25 -171 -25 -639 0 -810 139 -934 691 -1708
1528 -2144 290 -150 588 -243 939 -293 147 -20 633 -17 780 5 536 83 994 285
1410 621 492 399 858 1005 984 1628 43 215 51 309 51 588 0 280 -8 373 -52
590 -94 471 -318 919 -650 1302 -338 390 -831 706 -1331 852 -289 85 -438 107
-772 111 -146 2 -278 1 -295 -1z m-751 -1583 c606 -260 1055 -435 1396 -545
408 -132 624 -219 722 -289 123 -87 158 -145 145 -239 -12 -92 -231 -485 -506
-908 -33 -52 -61 -98 -61 -102 0 -4 97 -9 215 -10 l214 -3 -412 -533 c-226
-294 -413 -530 -414 -525 -2 4 39 166 90 358 l93 350 -173 3 -173 2 7 28 c33
130 110 458 108 460 -5 6 -318 -79 -354 -96 -20 -9 -54 -17 -76 -16 -47 1
-158 36 -230 72 -184 92 -377 288 -357 364 3 11 19 26 36 33 32 14 204 42 416
70 69 9 184 24 255 34 l130 19 -350 1 c-544 2 -579 9 -709 138 -116 116 -206
272 -242 422 -17 72 -17 74 1 87 28 20 67 17 200 -15 212 -52 1022 -222 1049
-220 6 0 -18 9 -54 20 -694 215 -1034 331 -1143 392 -63 35 -118 141 -191 365
-64 199 -88 408 -48 431 9 6 23 11 31 11 8 0 181 -72 385 -159z"/>
</g>
</svg>
