<?xml version="1.0" encoding="UTF-8"?>
<svg width="256px" height="256px" viewBox="0 0 256 256" version="1.1" xmlns="http://www.w3.org/2000/svg" xmlns:xlink="http://www.w3.org/1999/xlink">
    <!-- Generator: Sketch 50.2 (55047) - http://www.bohemiancoding.com/sketch -->
    <title>ico-</title>
    <desc>Created with Sketch.</desc>
    <defs></defs>
    <g id="ico-" stroke="none" stroke-width="1" fill="none" fill-rule="evenodd">
        <g id="Group-2" transform="translate(0.000000, 61.000000)" fill="#6F6E6A">
            <path d="M12.3373494,23.3544304 L12.3373494,120.64557 L243.662651,120.64557 L243.662651,23.3544304 L12.3373494,23.3544304 Z M7.71084337,11 L248.289157,11 C252.547738,11 256,14.4570418 256,18.721519 L256,125.278481 C256,129.542958 252.547738,133 248.289157,133 L7.71084337,133 C3.45226217,133 5.21525784e-16,129.542958 0,125.278481 L0,18.721519 C-5.21525784e-16,14.4570418 3.45226217,11 7.71084337,11 Z" id="Rectangle-2" fill-rule="nonzero"></path>
            <rect id="Rectangle-3" x="31" y="0" width="23" height="17" rx="3"></rect>
            <rect id="Rectangle-3-Copy" x="202" y="0" width="23" height="17" rx="3"></rect>
        </g>
    </g>
</svg>