<?xml version="1.0" encoding="UTF-8"?>
<svg width="256px" height="256px" viewBox="0 0 256 256" version="1.1" xmlns="http://www.w3.org/2000/svg" xmlns:xlink="http://www.w3.org/1999/xlink">
    <!-- Generator: Sketch 50.2 (55047) - http://www.bohemiancoding.com/sketch -->
    <title>ico-</title>
    <desc>Created with Sketch.</desc>
    <defs></defs>
    <g id="ico-" stroke="none" stroke-width="1" fill="none" fill-rule="evenodd">
        <g id="Group-3" fill="#6F6E6A" fill-rule="nonzero">
            <path d="M128,256 C57.307552,256 0,198.692448 0,128 C0,57.307552 57.307552,0 128,0 C198.692448,0 256,57.307552 256,128 C256,198.692448 198.692448,256 128,256 Z M128,244.093023 C192.116406,244.093023 244.093023,192.116406 244.093023,128 C244.093023,63.8835937 192.116406,11.9069767 128,11.9069767 C63.8835937,11.9069767 11.9069767,63.8835937 11.9069767,128 C11.9069767,192.116406 63.8835937,244.093023 128,244.093023 Z" id="Oval"></path>
            <path d="M137.460486,128.697533 L137.460486,130.302467 L125.539514,130.302467 C125.539514,103.073467 147.580644,81 174.769757,81 C201.958869,81 224,103.073467 224,130.302467 L212.079027,130.302467 C212.079027,109.666897 195.375098,92.9384615 174.769757,92.9384615 C154.164416,92.9384615 137.460486,109.666897 137.460486,130.302467 L125.539514,130.302467 L125.539514,128.697533 L137.460486,128.697533 Z M137.460486,128.697533 C137.460486,155.926533 115.419356,178 88.2302432,178 C61.0411306,178 39,155.926533 39,128.697533 L50.9209726,128.697533 C50.9209726,149.333103 67.624902,166.061538 88.2302432,166.061538 C108.835584,166.061538 125.539514,149.333103 125.539514,128.697533 L137.460486,128.697533 Z" id="Oval-2"></path>
        </g>
    </g>
</svg>