<?xml version="1.0" encoding="UTF-8"?>
<svg width="256px" height="256px" viewBox="0 0 256 256" version="1.1" xmlns="http://www.w3.org/2000/svg" xmlns:xlink="http://www.w3.org/1999/xlink">
    <!-- Generator: Sketch 50.2 (55047) - http://www.bohemiancoding.com/sketch -->
    <title>ico-</title>
    <desc>Created with Sketch.</desc>
    <defs></defs>
    <g id="ico-" stroke="none" stroke-width="1" fill="none" fill-rule="evenodd">
        <g id="Group-8" transform="translate(1.000000, 8.000000)" fill="#6F6E6A">
            <path d="M114.710959,207.711204 L146.575114,207.711204 L146.575114,194.795685 L114.710959,194.795685 L114.710959,207.711204 Z M95.5924658,181.880167 L95.5924658,130.218093 L165.693607,130.218093 L165.693607,181.880167 L146.575114,181.880167 L108.338128,181.880167 L101.965297,181.880167 L95.5924658,181.880167 Z M95.5924658,123.760334 L165.693607,123.760334 L165.693607,104.387056 L95.5924658,104.387056 L95.5924658,123.760334 Z M146.575114,1.06290799 C112.336372,-3.52790771 74.4964152,6.66452355 44.6098174,33.3517042 C16.6457426,55.4008941 0,90.9685664 0,130.218093 C0,158.011544 7.08486442,186.779986 28.6621811,207.711204 C28.0039952,212.2771 35.2362606,212.674791 38.2369863,207.711204 C40.693147,208.16549 41.0897789,204.124438 38.2369863,201.253445 C22.0450534,180.917253 12.7945754,155.048106 12.7456621,130.218093 C12.7945754,94.7594581 27.7770232,62.7774176 50.9826484,39.8094635 C79.8381504,18.9287958 113.922899,9.76266345 146.575114,13.9784265 C194.362395,23.8871025 231.517842,61.1417537 242.16758,110.844815 C247.274361,151.39833 237.243414,181.776779 203.930594,207.711204 C192.827046,222.014111 158.620748,231.71905 140.202283,227.084482 C139.057843,223.829377 137.010711,222.2322 133.829452,220.626722 L152.947945,220.626722 C158.493935,220.211674 161.35992,217.344451 159.320776,214.168963 L159.320776,194.795685 L172.066438,194.795685 C177.710255,194.5542 180.57624,191.686978 178.439269,188.337926 L178.439269,97.9292966 C180.57624,94.7915299 177.710255,91.9243073 172.066438,91.4715374 L159.320776,91.4715374 L159.320776,65.6405004 C161.384377,62.7196883 158.518392,59.8524657 152.947945,59.1827412 C151.449389,59.8524657 148.589801,62.7196883 146.575114,65.6405004 L146.575114,91.4715374 L133.829452,91.4715374 L133.829452,65.6405004 C135.795226,62.7196883 132.929241,59.8524657 127.456621,59.1827412 C125.860238,59.8524657 123.00065,62.7196883 121.08379,65.6405004 L121.08379,91.4715374 L108.338128,91.4715374 L108.338128,65.6405004 C110.206075,62.7196883 107.34009,59.8524657 101.965297,59.1827412 C100.271087,59.8524657 97.4114997,62.7196883 95.5924658,65.6405004 L95.5924658,91.4715374 L89.2196347,91.4715374 C87.4765119,91.9243073 84.6169243,94.7915299 82.8468037,97.9292966 L82.8468037,188.337926 C84.6169243,191.686978 87.4765119,194.5542 89.2196347,194.795685 L101.965297,194.795685 L101.965297,214.168963 C103.808787,217.344451 106.668375,220.211674 108.338128,220.626722 L121.08379,220.626722 C123.819503,227.8127 131.766447,233.65619 142.839478,240 C145.130381,239.050673 148.858487,240 152.947945,240 C176.712278,240 197.355128,230.885183 211.909079,220.626722 C244.266439,188.383578 259.531552,153.841817 253.825691,104.784359 C242.111738,54.0150032 201.866413,12.1744659 146.575114,1.06290799 Z" id="Fill-1"></path>
        </g>
    </g>
</svg>