<?xml version="1.0" encoding="UTF-8"?>
<svg width="205px" height="41px" viewBox="0 0 205 41" version="1.1" xmlns="http://www.w3.org/2000/svg" xmlns:xlink="http://www.w3.org/1999/xlink">
    <!-- Generator: Sketch 50.2 (55047) - http://www.bohemiancoding.com/sketch -->
    <title>Page 1 Copy</title>
    <desc>Created with Sketch.</desc>
    <defs>
        <polygon id="path-1" points="3.99352 0.063 0.01752 0.063 0.01752 17.9712 3.99352 17.9712 3.99352 0.063"></polygon>
    </defs>
    <g id="Page-1" stroke="none" stroke-width="1" fill="none" fill-rule="evenodd" opacity="0.579575893">
        <g id="9&quot;" transform="translate(-25.000000, -650.000000)">
            <g id="Page-1-Copy" transform="translate(25.000000, 650.000000)">
                <path d="M13,2.38612664 C13,2.38612664 9.22167327,0.783537287 5.39311312,4.10813772 C5.39311312,4.10813772 0.845828504,7.40517929 0.0111807505,21.3073705 C0.0111807505,21.3073705 -0.240759219,23.6198093 1.64724491,23.960537 C1.64724491,23.960537 3.5514783,24.3588877 3.80264545,22.6243499 C4.05303978,20.8906472 4.00589764,12.1202494 7.60183837,7.62063945 C7.60183837,7.62063945 7.95115391,7.05275995 8.90945319,6.61014799 C9.70700548,6.0773434 10.3376282,5.10443219 10.8082768,4.33612463 C10.8082768,4.33612463 11.5115448,3.3273034 13,2.38612664" id="Fill-1" fill="#9B9B9B"></path>
                <path d="M20,1.21678719 C20,1.21678719 16.504859,0.073526216 12.7444475,3.03787415 C12.7444475,3.03787415 8.27825541,5.85537362 7.23646547,17.0523621 C7.23646547,17.0523621 6.85383274,19.8167638 7.06202996,21.2163873 C7.06202996,21.2163873 7.23405391,22.8532915 8.86828151,22.9968213 C8.86828151,22.9968213 10.8385185,23.1544553 10.9607038,21.2495734 C11.0836928,19.3463509 11.1287085,18.5731149 11.1287085,18.5731149 C11.1287085,18.5731149 11.4397985,11.1294738 14.3658135,7.35455546 L15.0740056,7.90378533 C15.0740056,7.90378533 16.069976,3.99529299 20,1.21678719" id="Fill-3" fill="#9B9B9B"></path>
                <path d="M27,1.15625398 C27,1.15625398 22.2873955,0.0281496732 18.8754342,3.83425381 C18.8754342,3.83425381 15.4893886,6.93903646 14.4908251,14.6419257 C14.4908251,14.6419257 14.0705051,18.7816359 14.0000469,20.7965832 C14.0000469,20.7965832 13.9652227,22.7499674 15.7938979,22.9987161 C15.7938979,22.9987161 17.6784537,23.1176828 17.7999335,21.0652984 C17.7999335,21.0652984 17.9238428,11.6303198 21.3228463,7.31091155 L22.164296,7.85083758 C22.164296,7.85083758 23.6358208,3.49066451 27,1.15625398" id="Fill-5" fill="#9B9B9B"></path>
                <path d="M32.2870732,1.00856466 C32.2870732,1.00856466 27.7437933,0.810300005 25.0766134,5.70967671 C25.0766134,5.70967671 21.9937289,10.511995 22.006138,20.3505672 C22.006138,20.3497377 21.8176749,22.67914 23.5293544,22.8939958 C23.5293544,22.8939958 25.5528125,23.0283844 25.5528125,20.5521501 C25.5528125,20.5521501 25.6427784,10.8479665 29.1072426,6.92498096 C29.1072426,6.92498096 32.1722891,10.8604099 32.4235732,20.1216089 C32.4235732,20.1216089 32.5298261,26.469396 33.6373378,29.9693063 C33.6373378,29.9684767 34.6385967,26.0438321 34.8402445,20.606901 C34.8402445,20.606901 34.7564831,19.6122595 35.5622987,18.9129411 C35.5622987,18.9129411 36.0927875,18.6342092 35.9896369,17.6445451 C35.9896369,17.6445451 35.2481935,9.56380881 32.7314739,4.98713064 C32.7314739,4.98713064 38.0642825,4.61548811 39.1213822,16.0293933 C39.1213822,16.0293933 39.1330158,17.699296 39.9977746,18.7379041 C39.9977746,18.7379041 40.6298629,19.219878 40.694235,20.3903861 C40.694235,20.3903861 40.8508999,22.0055379 40.3979679,27.2284427 C40.3979679,27.2284427 40.2901639,28.3724048 40.7601584,30 C40.7601584,30 42.0778491,26.0977535 41.73117,22.2751446 C41.73117,22.2751446 41.5574427,19.1701045 43,18.1232008 C43,18.1232008 42.8782358,9.46011391 39.6565245,4.72250125 C39.6565245,4.72250125 37.1064555,0.792879261 32.2870732,1.00856466" id="Fill-7" fill="#9B9B9B"></path>
                <path d="M48,40.6138841 C48,40.6138841 51.7783267,42.2164288 55.6068869,38.8919211 C55.6068869,38.8919211 60.1541715,35.5949714 60.9888192,21.6931677 C60.9888192,21.6931677 61.2407592,19.3807935 59.3527551,19.0392402 C59.3527551,19.0392402 57.4485217,18.6417356 57.1981274,20.3770602 C56.9469602,22.1107145 56.9941024,30.8800328 53.3981616,35.3786821 C53.3981616,35.3786821 53.0488461,35.9473809 52.0905468,36.3899805 C51.2929945,36.9227703 50.6623718,37.8956544 50.1917232,38.6639405 C50.1917232,38.6639405 49.4884552,39.6727336 48,40.6138841" id="Fill-9" fill="#9B9B9B"></path>
                <path d="M41,40.7832133 C41,40.7832133 44.4951155,41.9264719 48.2554996,38.9621301 C48.2554996,38.9621301 52.7216592,36.1438068 53.7642454,24.9468416 C53.7642454,24.9468416 54.1460715,22.1832752 53.9378758,20.7836546 C53.9378758,20.7836546 53.7658531,19.1459242 52.1316374,19.0032243 C52.1316374,19.0032243 50.1614147,18.844761 50.0392304,20.7496389 C49.9162422,22.6528575 49.8712269,23.4260919 49.8712269,23.4260919 C49.8712269,23.4260919 49.5601391,30.8705472 46.6341455,34.6446281 L45.9259585,34.096229 C45.9259585,34.096229 44.9299953,38.0038836 41,40.7832133" id="Fill-11" fill="#9B9B9B"></path>
                <path d="M35,40.8437945 C35,40.8437945 39.7128969,41.9718583 43.1250699,38.1650588 C43.1250699,38.1650588 46.5105157,35.0612194 47.5099511,27.3586065 C47.5099511,27.3586065 47.9302971,23.2182128 47.9999499,21.2033377 C47.9999499,21.2033377 48.0355861,19.2508555 46.2067975,19.0012839 C46.2067975,19.0012839 44.3213147,18.8823214 44.2006374,20.9346323 C44.2006374,20.9346323 44.0759104,30.3692724 40.6766961,34.6885258 L39.836004,34.1486191 C39.836004,34.1486191 38.364388,38.5086358 35,40.8437945" id="Fill-13" fill="#9B9B9B"></path>
                <path d="M28.712895,40.9914351 C28.712895,40.9914351 33.2561615,41.1888758 35.924109,36.2901886 C35.924109,36.2901886 39.0062088,31.4885625 38.9937998,21.6497088 C38.9937998,21.6497088 39.1830379,19.3202399 37.4705879,19.1045483 C37.4705879,19.1045483 35.4471358,18.9701559 35.4471358,21.446461 C35.4471358,21.446461 35.3571701,31.1525814 31.8927162,35.07402 C31.8927162,35.07402 28.8276788,31.1393081 28.5763954,21.8786737 C28.5763954,21.8786737 28.4701428,15.530705 27.3626344,12.0306946 C27.3626344,12.0306946 26.3613785,15.9546219 26.1597313,21.3925381 C26.1597313,21.3925381 26.2434925,22.3863784 25.4384548,23.0865464 C25.4384548,23.0865464 24.907192,23.3652863 25.0103423,24.3549788 C25.0103423,24.3549788 25.7517835,32.4359462 28.2684957,37.0127553 C28.2684957,37.0127553 22.9357029,37.3835789 21.8786063,25.9701768 C21.8786063,25.9701768 21.8669728,24.3010559 21.0022165,23.2615884 C21.0022165,23.2615884 20.3701301,22.7796008 20.3057581,21.6098888 C20.3057581,21.6098888 20.1490938,19.9930317 20.6020244,14.770807 C20.6020244,14.770807 20.7098281,13.6268122 20.239835,12 C20.239835,12 18.9221481,15.9015286 19.2688262,19.7242468 C19.2688262,19.7242468 19.442553,22.8285462 18,23.8754798 C18,23.8754798 18.1217639,32.5396441 21.3434656,37.2773923 C21.3434656,37.2773923 23.8935271,41.2071267 28.712895,40.9914351" id="Fill-15" fill="#9B9B9B"></path>
                <path d="M68.511398,12.6823959 L70.5402503,6.28347928 C70.8821916,5.18169014 72.0219963,4.68940138 73.0022282,5.20513247 C73.8684797,5.62709426 74.2332172,6.61167178 73.8456836,7.59624931 L70.4034737,16.4808893 C69.8791636,17.7928221 69.0129121,18.2851109 67.8047192,17.8397068 C67.257613,17.6530054 66.8928755,17.254486 66.5965263,16.4808893 L63.1543164,7.59624931 C62.7667828,6.61167178 63.1315203,5.62709426 63.9977718,5.20513247 C64.9780037,4.68940138 66.1178084,5.20513247 66.4597497,6.28347928 L68.511398,12.6823959 Z" id="Fill-17" fill="#9B9B9B"></path>
                <g id="Group-21" transform="translate(74.000000, 0.000000)">
                    <mask id="mask-2" fill="white">
                        <use xlink:href="#path-1"></use>
                    </mask>
                    <g id="Clip-20"></g>
                    <path d="M0.59992,0.652745455 C1.38392,-0.149072727 2.63832,-0.126163636 3.42232,0.675654545 C4.18392,1.47747273 4.18392,2.73747273 3.42232,3.53929091 C2.63832,4.34110909 1.38392,4.34110909 0.62232,3.5622 C0.24152,3.17274545 0.01752,2.64583636 0.01752,2.09601818 C0.01752,1.56910909 0.24152,1.0422 0.59992,0.652745455 Z M0.28632,7.02147273 C0.28632,6.54038182 0.46552,6.0822 0.80152,5.76147273 C1.47352,5.05129091 2.57112,5.0742 3.24312,5.76147273 C3.55672,6.10510909 3.73592,6.56329091 3.73592,7.02147273 L3.73592,16.1851091 C3.75832,17.1693818 2.99672,17.9482909 2.03352,17.9712 C1.07032,17.9712 0.28632,17.1693818 0.28632,16.2072 L0.28632,7.02147273 Z" id="Fill-19" fill="#9B9B9B" mask="url(#mask-2)"></path>
                </g>
                <path d="M85.8249168,5.04721414 C88.3812988,5.34931041 89.2260163,6.51121915 88.937034,7.69636607 C88.7591987,8.48646401 88.2034635,8.95122751 87.5365812,8.92798933 C87.4254342,8.90392122 87.3142872,8.90392122 87.2031401,8.88151298 L87.0253048,8.81179846 L86.7140931,8.69560759 L86.491799,8.62589306 L86.1805873,8.50970219 C84.1132524,7.81255694 82.4460467,9.09065656 82.4682761,11.529835 C82.5127349,13.9698433 84.20217,15.1549903 86.4028814,14.3881305 L86.7807814,14.2487014 L86.9363872,14.1789869 C87.9367106,13.8071761 88.8258869,14.318416 88.9814928,15.4106102 C89.1148692,16.3177289 88.5369046,17.1534733 86.9363872,17.6879513 C86.5362579,17.8273804 86.1138991,17.9203331 85.6693109,17.9668094 C81.8458527,18.3386202 78.9568235,15.5500392 79.0004884,11.4377122 C79.0449472,7.3013171 82.0014586,4.60568882 85.8249168,5.04721414" id="Fill-22" fill="#9B9B9B"></path>
                <path d="M91.132446,4.72249474 L91.1104907,2.72669937 C91.1104907,1.78486335 91.8569709,1 92.8010488,1 C93.7231714,1 94.4916069,1.78486335 94.4696516,2.72669937 L94.4696516,4.72249474 L95.4795954,4.72249474 C95.8747909,4.72249474 96.2699863,4.87946741 96.5554052,5.19341275 C97.1481983,5.7764541 97.1481983,6.76313945 96.5554052,7.36860547 C96.248031,7.66012614 95.8747909,7.81709881 95.4576401,7.81709881 L94.4696516,7.81709881 L94.4696516,15.2620883 C94.4696516,15.7097808 94.2940092,16.159075 93.986635,16.495445 C93.327976,17.168185 92.2741216,17.168185 91.6374179,16.495445 C91.3080884,16.159075 91.132446,15.7097808 91.132446,15.2620883 L91.1544013,7.79387326 L90.5616082,7.79387326 C90.1444575,7.79387326 89.7492621,7.63770147 89.4418878,7.32375613 C88.8490947,6.74071479 88.8490947,5.7764541 89.4638431,5.17098809 C89.7492621,4.87946741 90.1444575,4.72249474 90.5616082,4.72249474 L91.132446,4.72249474 Z" id="Fill-24" fill="#9B9B9B"></path>
                <path d="M98,6.75624484 C98,5.88947423 98.6459539,5.09298231 99.6253033,5.02270361 C100.62549,4.92899868 101.229769,5.63178566 101.188095,6.31114642 L101.167258,6.49855628 C101.250607,6.38142512 101.333211,6.26429395 101.438142,6.17058902 C102.667538,4.67131011 104.062887,4.69473635 104.71033,5.77234306 C105.27219,6.70939238 104.980469,7.78699909 104.147725,8.18524505 L103.980283,8.27894999 L103.542701,8.44293362 C103.125957,8.60691725 102.833491,8.77090088 102.583445,8.93488451 C101.563165,9.61424526 101.208932,10.2233273 101.208932,10.8089831 L101.208932,16.1970167 C101.208932,17.1809185 100.500467,18 99.6044661,18 C98.7084655,18 98,17.2035081 98,16.2204429 L98,6.75624484 Z" id="Fill-26" fill="#9B9B9B"></path>
                <path d="M108.509907,12.0441841 C108.803478,14.1762272 110.026284,15.1272044 111.520825,14.7795887 C112.517186,14.5710193 113.264456,13.6440441 113.446421,12.0681862 C113.490093,11.6965684 113.490093,11.326606 113.446421,10.9558159 C113.24262,9.42630674 112.471088,8.52250589 111.520825,8.31393646 C110.072382,7.98949513 108.781642,8.91647036 108.509907,10.9789903 C108.486454,11.1643853 108.486454,11.3489527 108.486454,11.5351754 C108.486454,11.7197428 108.486454,11.8827911 108.509907,12.0441841 M105.883138,8.03584389 C107.013748,6.11237028 108.939345,5 110.999191,5 C114.283461,5 116.978164,7.7809257 117,11.487999 C117,15.2190743 114.305297,18 110.999191,18 C107.671249,18 105,15.2190743 105,11.487999 C105,10.1447125 105.293571,9.00916789 105.883138,8.03584389" id="Fill-28" fill="#9B9B9B"></path>
                <path d="M118,6.90142221 C118,6.01904256 118.721311,5.18310395 119.735656,5.09022188 C120.659031,4.99733982 121.290984,5.60107326 121.290984,6.25124773 L121.290984,6.39057083 C121.831967,5.71717584 122.57582,5.27598602 123.635246,5.09022188 C124.197965,4.9741193 124.762295,4.9741193 125.303279,5.06700137 C127.691818,5.46175015 129,7.08718634 129,9.52534062 L129,16.189629 C129,17.1881112 128.232802,17.9776088 127.28608,18 C126.317623,18 125.528689,17.2113317 125.528689,16.2128495 L125.528689,10.1290741 C125.528689,9.57178165 125.303279,9.03770976 124.920082,8.64296098 C124.130343,7.80702237 122.846311,7.80702237 122.056572,8.61974046 C121.67418,9.03770976 121.471311,9.54856114 121.471311,10.1058535 L121.471311,16.189629 C121.471311,17.1640614 120.682377,17.9776088 119.71231,17.9543883 C118.765588,17.9543883 118,17.1416702 118,16.1664085 L118,6.90142221 Z" id="Fill-30" fill="#9B9B9B"></path>
                <path d="M144.526913,10.3221858 C144.505028,10.2525983 144.505028,10.1598151 144.480712,10.0902276 C144.118394,8.39693325 142.939038,7.6082756 141.600003,7.93301698 C140.759458,8.1417793 140.034012,8.88404533 139.73816,10.043836 C139.715465,10.1366193 139.715465,10.2294025 139.69358,10.3221858 L144.526913,10.3221858 Z M139.783551,12.6185713 C139.874333,13.0592917 140.078593,13.5000122 140.374445,13.8711452 C141.30334,15.0069116 143.007124,15.2852614 144.935432,14.2414498 C146.048323,13.6159913 146.36525,13.5695996 146.955333,13.8015578 C147.295766,13.9407327 147.568112,14.2190824 147.704285,14.5670196 C148.202776,15.8195935 146.682987,17.9759758 142.416231,18 C138.082198,18 135.199058,14.3350615 136.198471,9.92785694 C136.765048,7.37631746 138.648776,5.5438482 141.009109,5.10312775 C143.73257,4.59281985 146.320669,6.00776447 147.453824,8.6520872 C147.750487,9.37115742 147.93043,10.1134234 147.976631,10.670123 C148.112804,12.107435 147.658083,12.6185713 146.501423,12.6185713 L139.783551,12.6185713 Z" id="Fill-32" fill="#9B9B9B"></path>
                <path d="M149,6.90142221 C149,6.01904256 149.721311,5.18310395 150.735656,5.09022188 C151.660641,4.99733982 152.290984,5.60107326 152.290984,6.25124773 L152.290984,6.39057083 C152.831967,5.71717584 153.57582,5.27598602 154.635246,5.09022188 C155.197965,4.9741193 155.762295,4.9741193 156.303279,5.06700137 C158.691818,5.46175015 160,7.08718634 160,9.52534062 L160,16.189629 C160,17.1881112 159.232802,17.9776088 158.28608,18 C157.317623,18 156.528689,17.2113317 156.528689,16.2128495 L156.528689,10.1290741 C156.528689,9.57178165 156.303279,9.03770976 155.920082,8.64296098 C155.130343,7.80702237 153.846311,7.80702237 153.056572,8.61974046 C152.67418,9.03770976 152.471311,9.54856114 152.471311,10.1058535 L152.471311,16.189629 C152.471311,17.1640614 151.682377,17.9776088 150.71392,17.9543883 C149.765588,17.9543883 149,17.1416702 149,16.1664085 L149,6.90142221 Z" id="Fill-34" fill="#9B9B9B"></path>
                <path d="M169.526872,10.3221858 C169.504987,10.2525983 169.504987,10.1598151 169.482291,10.0902276 C169.118354,8.39693325 167.939004,7.6082756 166.599975,7.93301698 C165.761056,8.1417793 165.033993,8.88404533 164.739763,10.043836 C164.715447,10.1366193 164.715447,10.2294025 164.693562,10.3221858 L169.526872,10.3221858 Z M164.783533,12.6185713 C164.875935,13.0592917 165.080194,13.5000122 165.374424,13.8711452 C166.304935,15.0069116 168.00709,15.2852614 169.935389,14.2414498 C171.048274,13.6159913 171.36682,13.5695996 171.95528,13.8015578 C172.295711,13.9407327 172.568055,14.2190824 172.704228,14.5670196 C173.204337,15.8195935 171.682935,17.9759758 167.416199,18 C163.082188,18 160.199062,14.3350615 161.19847,9.92785694 C161.766665,7.37631746 163.648763,5.5438482 166.009084,5.10312775 C168.733343,4.59281985 171.320619,6.00776447 172.455389,8.6520872 C172.750429,9.37115742 172.931992,10.1134234 172.976573,10.670123 C173.112745,12.107435 172.659648,12.6185713 171.502993,12.6185713 L164.783533,12.6185713 Z" id="Fill-36" fill="#9B9B9B"></path>
                <path d="M174,6.75624484 C174,5.88947423 174.646734,5.09298231 175.625393,5.02270361 C176.626379,4.92899868 177.229947,5.63178566 177.189015,6.31114642 L177.167432,6.49855628 C177.25153,6.38142512 177.334139,6.26429395 177.439075,6.17058902 C178.667051,4.67131011 180.063966,4.69473635 180.709955,5.77234306 C181.271847,6.70939238 180.981598,7.78699909 180.147319,8.18524505 L179.981356,8.27894999 L179.543751,8.44293362 C179.126983,8.60691725 178.834502,8.77090088 178.584441,8.93488451 C177.564105,9.61424526 177.209109,10.2233273 177.209109,10.8089831 L177.209109,16.1970167 C177.209109,17.1809185 176.501349,18 175.604554,18 C174.709249,18 174,17.2035081 174,16.2204429 L174,6.75624484 Z" id="Fill-38" fill="#9B9B9B"></path>
                <path d="M185.220408,13.8883685 C186.202125,15.0968815 188.003431,15.0744555 188.916712,13.8185987 C189.327322,13.2604401 189.532627,12.5859985 189.554624,11.609221 C189.554624,10.0277717 188.985147,9.0277376 188.071866,8.56260545 C186.5443,7.79513741 184.833425,8.81842813 184.559685,10.9339488 C184.536059,11.1432583 184.514062,11.3766549 184.514062,11.5859644 C184.514062,12.5627419 184.787802,13.33021 185.220408,13.8883685 Z M189.645871,6.28345793 C189.669497,5.60901632 190.307409,5.00434452 191.243502,5.09737095 C192.269212,5.19039738 193,6.02763525 193,6.93464294 L193,16.2597119 C193,20.9110334 190.307409,23.4460036 185.562583,22.9351888 C184.604494,22.8180752 183.73928,22.5863397 182.91643,22.2134034 C181.229997,21.4226787 180.931816,20.2133352 181.753036,19.3295841 C182.210084,18.8187693 182.779561,18.7016557 183.555972,18.958309 L183.577969,18.980735 L184.28676,19.3063275 C184.445627,19.3760973 184.604494,19.4458671 184.76499,19.4932109 C187.753318,20.5854409 189.464192,19.3295841 189.532627,17.0047539 C189.554624,16.8419577 189.532627,16.6783308 189.532627,16.5163652 C188.232363,18.4001504 185.015103,18.7249123 182.803187,16.4931086 C181.388864,15.0503683 180.682517,12.6781944 181.137121,10.0975415 C181.298432,9.16727725 181.594169,8.37655259 182.004779,7.70211098 C183.944585,4.51595577 187.866561,4.21361987 189.645871,6.44625418 L189.645871,6.28345793 Z" id="Fill-40" fill="#9B9B9B"></path>
                <path d="M195.047286,5.15483409 C195.999297,4.73770392 196.975049,5.20118188 197.373106,6.33670288 L199.500293,12.291567 L201.671796,6.31352899 C202.093593,5.17800799 203.090712,4.71453003 204.021357,5.17800799 C204.863368,5.59513815 205.217899,6.59161576 204.863368,7.49539778 L199.345977,21.6306479 C198.880654,22.8125167 197.95001,23.2528208 197.019366,22.8596921 C196.132246,22.4649082 195.756348,21.4684306 196.132246,20.5183008 L197.729219,16.6722614 L194.116642,7.42587609 C193.784269,6.54526796 194.183116,5.52561645 195.047286,5.15483409" id="Fill-42" fill="#9B9B9B"></path>
                <path d="M87.0554113,25.7472328 C87.2329004,25.9005625 87.3220779,26.1391762 87.3220779,26.4612593 C87.3220779,26.8087461 87.2285714,27.0618762 87.0424242,27.2206496 C86.8562771,27.3803302 86.561039,27.4592633 86.1558442,27.4592633 C86.0380952,27.4592633 85.8675325,27.448376 85.6458874,27.4256941 L85.6458874,25.5340229 L86.1662338,25.5167846 C86.5818182,25.5167846 86.8779221,25.5939031 87.0554113,25.7472328 M87.5428571,27.6116857 C87.847619,27.3522047 88,27.0047178 88,26.5692252 C88,26.1927055 87.9142857,25.8951189 87.7428571,25.6764653 C87.5722944,25.4578116 87.2995671,25.3008528 86.9246753,25.2055888 C87.1229437,25.1593177 87.3038961,25.0404645 87.4675325,24.8508438 C87.6311688,24.661223 87.7125541,24.4507349 87.7125541,24.221194 C87.7125541,23.8292506 87.5844156,23.5271276 87.3281385,23.3157322 C87.0718615,23.1052441 86.7108225,23 86.24329,23 C85.9896104,23 85.5748918,23.0145164 85,23.0444565 L85,28 L86.3497835,28 C86.8406926,28 87.2380952,27.8711668 87.5428571,27.6116857 M86.2242424,23.5616041 C86.7852814,23.5616041 87.0666667,23.791145 87.0666667,24.2484123 C87.0666667,24.7691889 86.761039,25.0295772 86.1497835,25.0295772 C85.9497835,25.0295772 85.7818182,25.0232263 85.6458874,25.0105244 L85.6458874,23.5851932 C85.8155844,23.5697696 86.008658,23.5616041 86.2242424,23.5616041" id="Fill-44" fill="#9B9B9B"></path>
                <polygon id="Fill-46" fill="#9B9B9B" points="97 27 94 27 94 23 94.696112 23 94.696112 26.5086949 97 26.5086949"></polygon>
                <path d="M102,26.415512 L102,23 L102.582463,23 L102.582463,26.3651251 C102.582463,26.6647472 102.665449,26.9121828 102.83142,27.1056325 C102.996608,27.2981825 103.215814,27.3953572 103.487474,27.3953572 C103.77714,27.3953572 104.003392,27.3008818 104.16858,27.1137304 C104.332985,26.9256793 104.417537,26.6710455 104.417537,26.3489293 L104.417537,23 L105,23 L105,26.419111 C105,26.9157819 104.865344,27.3026813 104.596033,27.5816088 C104.327505,27.8596365 103.958768,28 103.493737,28 C103.015397,28 102.64666,27.8632356 102.386743,27.5906064 C102.128392,27.3170776 102,26.9256793 102,26.415512" id="Fill-48" fill="#9B9B9B"></path>
                <polygon id="Fill-50" fill="#9B9B9B" points="116 23.4913051 113.685662 23.4913051 113.685662 24.6027824 115.344669 24.6027824 115.344669 25.0669962 113.685662 25.0669962 113.685662 26.5086949 115.962316 26.5086949 115.962316 27 113 27 113 23 116 23"></polygon>
                <path d="M129.144075,26.1227273 C130.38077,26.1227273 131,25.5645455 131,24.4472727 C131,23.4827273 130.3005,23 128.9015,23 C128.797413,23 128.498383,23.0109091 128,23.0345455 L128,28 L128.658042,28 L128.658042,26.0890909 C128.907674,26.1109091 129.069979,26.1227273 129.144075,26.1227273 M129.016172,23.61 C129.886798,23.61 130.322552,23.9127273 130.322552,24.5181818 C130.322552,25.1809091 129.914143,25.5118182 129.099089,25.5118182 C129.084093,25.5118182 128.935901,25.5009091 128.658042,25.4781818 L128.658042,23.6436364 C128.809762,23.6218182 128.928844,23.61 129.016172,23.61" id="Fill-52" fill="#9B9B9B"></path>
                <path d="M137.513294,27.2873563 C137.855197,27.7621574 138.328939,28 138.93452,28 C139.598989,28 140.108767,27.7745358 140.463854,27.3253758 C140.821578,26.8753316 141,26.2537577 141,25.4606543 C141,24.6870027 140.821578,24.0831123 140.465612,23.6507515 C140.112283,23.2166225 139.600747,23 138.93452,23 C138.342123,23 137.871896,23.2360743 137.523841,23.7064545 C137.174907,24.1768347 137,24.7621574 137,25.4606543 C137,26.2033599 137.171391,26.8125553 137.513294,27.2873563 M138.006372,24.0954907 C138.219073,23.7612732 138.527576,23.5941645 138.93452,23.5941645 C139.851241,23.5941645 140.3118,24.2157383 140.3118,25.4606543 C140.3118,26.0760389 140.193144,26.5543767 139.957592,26.8956676 C139.724676,27.2351901 139.382773,27.4058355 138.93452,27.4058355 C138.538123,27.4058355 138.232257,27.2201592 138.014283,26.8488064 C137.796309,26.4774536 137.6882,26.0150309 137.6882,25.4606543 C137.6882,24.8841733 137.794551,24.4297082 138.006372,24.0954907" id="Fill-54" fill="#9B9B9B"></path>
                <polygon id="Fill-56" fill="#9B9B9B" points="151 23 149.673167 28 149.48986 28 148.475819 24.5989527 147.526521 28 147.343994 28 146 23 146.604524 23 147.459438 26.4434814 148.396256 23 148.600624 23 149.524961 26.4380643 150.395476 23"></polygon>
                <polygon id="Fill-58" fill="#9B9B9B" points="160 23.4913051 157.684243 23.4913051 157.684243 24.6027824 159.346107 24.6027824 159.346107 25.0669962 157.684243 25.0669962 157.684243 26.5086949 159.962293 26.5086949 159.962293 27 157 27 157 23 160 23"></polygon>
                <path d="M167.765073,25.7228261 C167.991944,25.6630435 168.18685,25.5081522 168.351351,25.2581522 C168.517412,25.0099638 168.599272,24.7300725 168.599272,24.4193841 C168.599272,23.4737319 168.087838,23 167.064969,23 C166.93711,23 166.731289,23.009058 166.452183,23.0253623 C166.172297,23.0425725 166.02183,23.0516304 166,23.0516304 L166,28 L166.581601,28 L166.581601,25.8414855 C166.862266,25.8641304 167.067308,25.875 167.196726,25.875 L168.3342,28 L169,28 L167.765073,25.7228261 Z M166.924636,23.6259058 C167.293399,23.6259058 167.56237,23.6865942 167.733108,23.807971 C167.903846,23.9302536 167.988825,24.1286232 167.988825,24.4057971 C167.988825,24.740942 167.908524,24.9746377 167.74948,25.1050725 C167.591216,25.2355072 167.337058,25.3007246 166.988565,25.3007246 C166.856029,25.3007246 166.720374,25.2889493 166.581601,25.2672101 L166.581601,23.6594203 C166.752339,23.6367754 166.866944,23.6259058 166.924636,23.6259058 Z" id="Fill-60" fill="#9B9B9B"></path>
            </g>
        </g>
    </g>
</svg>