<?xml version="1.0" encoding="UTF-8"?>
<svg width="261px" height="50px" viewBox="0 0 261 50" version="1.1" xmlns="http://www.w3.org/2000/svg" xmlns:xlink="http://www.w3.org/1999/xlink">
    <!-- Generator: Sketch 50.2 (55047) - http://www.bohemiancoding.com/sketch -->
    <title>logo kleur</title>
    <desc>Created with Sketch.</desc>
    <defs>
        <polygon id="path-1" points="0.06 0.122005614 16.822 0.122005614 16.822 26.46602 0.06 26.46602"></polygon>
        <polygon id="path-3" points="0.496 0.076 75.992 0.076 75.992 49.9992988 0.496 49.9992988"></polygon>
        <polygon id="path-5" points="0.0276921077 0.335769372 29.739 0.335769372 29.739 22.1825278 0.0276921077 22.1825278"></polygon>
    </defs>
    <g id="logo-kleur" stroke="none" stroke-width="1" fill="none" fill-rule="evenodd">
        <g id="Group-3" transform="translate(0.000000, 2.000000)">
            <mask id="mask-2" fill="white">
                <use xlink:href="#path-1"></use>
            </mask>
            <g id="Clip-2"></g>
            <path d="M16.822,0.584 C16.822,0.584 11.933,-1.334 6.979,2.646 C6.979,2.646 1.095,6.594 0.015,23.241 C0.015,23.241 -0.312,26.011 2.132,26.419 C2.132,26.419 4.596,26.895 4.92,24.818 C5.245,22.742 5.184,12.24 9.836,6.853 C9.836,6.853 10.289,6.172 11.528,5.642 C12.56,5.004 13.376,3.84 13.986,2.919 C13.986,2.919 14.895,1.712 16.822,0.584" id="Fill-1" fill="#FFFFFF" mask="url(#mask-2)"></path>
        </g>
        <path d="M25.648,2.195 C25.648,2.195 21.3,0.817 16.623,4.39 C16.623,4.39 11.067,7.787 9.77,21.282 C9.77,21.282 9.294,24.614 9.553,26.302 C9.553,26.302 9.767,28.274 11.8,28.447 C11.8,28.447 14.251,28.638 14.404,26.342 C14.556,24.047 14.613,23.115 14.613,23.115 C14.613,23.115 14.999,14.144 18.639,9.594 L19.52,10.255 C19.52,10.255 20.76,5.544 25.648,2.195" id="Fill-4" fill="#FFFFFF"></path>
        <path d="M34.475,2.195 C34.475,2.195 28.656,0.839 24.443,5.414 C24.443,5.414 20.262,9.146 19.029,18.405 C19.029,18.405 18.51,23.381 18.423,25.804 C18.423,25.804 18.38,28.151 20.638,28.45 C20.638,28.45 22.965,28.594 23.115,26.126 C23.115,26.126 23.269,14.785 27.465,9.594 L28.504,10.243 C28.504,10.243 30.321,5.001 34.475,2.195" id="Fill-5" fill="#FFFFFF"></path>
        <g id="Group-14" transform="translate(23.000000, 0.000000)">
            <mask id="mask-4" fill="white">
                <use xlink:href="#path-3"></use>
            </mask>
            <g id="Clip-7"></g>
            <path d="M18.171,2.072 C18.171,2.072 12.313,1.833 8.873,7.739 C8.873,7.739 4.899,13.527 4.915,25.388 C4.915,25.387 4.672,28.194 6.878,28.454 C6.878,28.454 9.488,28.616 9.488,25.631 C9.488,25.631 9.604,13.933 14.071,9.204 C14.071,9.204 18.023,13.948 18.347,25.111 C18.347,25.111 18.484,32.764 19.912,36.982 C19.912,36.981 21.203,32.251 21.462,25.696 C21.462,25.696 21.355,24.498 22.394,23.654 C22.394,23.654 23.078,23.318 22.945,22.126 C22.945,22.126 21.989,12.385 18.744,6.868 C18.744,6.868 25.62,6.42 26.983,20.179 C26.983,20.179 26.998,22.191 28.113,23.443 C28.113,23.443 28.928,24.024 29.011,25.436 C29.011,25.436 29.212,27.383 28.628,33.679 C28.628,33.679 28.49,35.058 29.096,37.02 C29.096,37.02 30.794,32.315 30.348,27.708 C30.348,27.708 30.123,23.965 31.983,22.703 C31.983,22.703 31.827,12.26 27.673,6.548 C27.673,6.548 24.385,1.812 18.171,2.072" id="Fill-6" fill="#FFFFFF" mask="url(#mask-4)"></path>
            <path d="M38.658,49.349 C38.658,49.349 43.546,51.268 48.501,47.287 C48.501,47.287 54.385,43.339 55.465,26.691 C55.465,26.691 55.791,23.923 53.348,23.514 C53.348,23.514 50.884,23.038 50.56,25.115 C50.235,27.191 50.296,37.692 45.643,43.08 C45.643,43.08 45.19,43.761 43.951,44.291 C42.919,44.929 42.103,46.094 41.494,47.014 C41.494,47.014 40.584,48.222 38.658,49.349" id="Fill-8" fill="#FFFFFF" mask="url(#mask-4)"></path>
            <path d="M29.831,49.738 C29.831,49.738 34.179,51.116 38.857,47.543 C38.857,47.543 44.413,44.146 45.71,30.65 C45.71,30.65 46.186,27.319 45.926,25.632 C45.926,25.632 45.712,23.658 43.679,23.486 C43.679,23.486 41.228,23.295 41.076,25.591 C40.923,27.886 40.867,28.817 40.867,28.817 C40.867,28.817 40.48,37.79 36.84,42.339 L35.959,41.679 C35.959,41.679 34.72,46.389 29.831,49.738" id="Fill-9" fill="#FFFFFF" mask="url(#mask-4)"></path>
            <path d="M21.005,49.738 C21.005,49.738 26.824,51.095 31.037,46.519 C31.037,46.519 35.217,42.787 36.451,33.528 C36.451,33.528 36.97,28.552 37.056,26.129 C37.056,26.129 37.1,23.782 34.842,23.482 C34.842,23.482 32.514,23.339 32.365,25.807 C32.365,25.807 32.211,37.147 28.014,42.339 L26.976,41.69 C26.976,41.69 25.159,46.932 21.005,49.738" id="Fill-10" fill="#FFFFFF" mask="url(#mask-4)"></path>
            <path d="M14.309,49.861 C14.309,49.861 20.166,50.1 23.606,44.194 C23.606,44.194 27.581,38.406 27.564,26.546 C27.564,26.546 27.808,23.738 25.601,23.478 C25.601,23.478 22.991,23.316 22.991,26.302 C22.991,26.302 22.875,38.001 18.409,42.728 C18.409,42.728 14.456,37.985 14.132,26.822 C14.132,26.822 13.996,19.17 12.567,14.951 C12.567,14.951 11.277,19.682 11.017,26.236 C11.017,26.236 11.124,27.435 10.086,28.278 C10.086,28.278 9.401,28.614 9.534,29.808 C9.534,29.808 10.491,39.549 13.736,45.065 C13.736,45.065 6.859,45.513 5.497,31.754 C5.497,31.754 5.482,29.742 4.367,28.489 C4.367,28.489 3.551,27.908 3.468,26.498 C3.468,26.498 3.267,24.55 3.851,18.254 C3.851,18.254 3.989,16.875 3.384,14.914 C3.384,14.914 1.685,19.617 2.132,24.226 C2.132,24.226 2.356,27.968 0.496,29.229 C0.496,29.229 0.652,39.674 4.806,45.385 C4.806,45.385 8.094,50.121 14.309,49.861" id="Fill-11" fill="#FFFFFF" mask="url(#mask-4)"></path>
            <path d="M63.493,15.58 L65.984,7.937 C66.404,6.621 67.805,6.033 69.008,6.649 C70.072,7.153 70.52,8.329 70.044,9.505 L65.816,20.117 C65.172,21.685 64.108,22.272 62.624,21.74 C61.953,21.517 61.505,21.041 61.141,20.117 L56.913,9.505 C56.437,8.329 56.885,7.153 57.949,6.649 C59.153,6.033 60.553,6.649 60.973,7.937 L63.493,15.58" id="Fill-12" fill="#FFFFFF" mask="url(#mask-4)"></path>
            <path d="M71.75,0.797 C72.73,-0.183 74.298,-0.155 75.278,0.825 C76.23,1.805 76.23,3.345 75.278,4.325 C74.298,5.305 72.73,5.305 71.778,4.353 C71.302,3.877 71.022,3.233 71.022,2.562 C71.022,1.918 71.302,1.273 71.75,0.797 Z M71.358,8.581 C71.358,7.993 71.582,7.433 72.002,7.041 C72.842,6.173 74.214,6.201 75.054,7.041 C75.446,7.461 75.67,8.021 75.67,8.581 L75.67,19.781 C75.698,20.984 74.746,21.937 73.542,21.965 C72.338,21.965 71.358,20.984 71.358,19.809 L71.358,8.581 Z" id="Fill-13" fill="#FFFFFF" mask="url(#mask-4)"></path>
        </g>
        <path d="M109.164,6.425 C112.384,6.789 113.448,8.189 113.084,9.617 C112.86,10.569 112.16,11.129 111.32,11.101 C111.18,11.073 111.04,11.073 110.9,11.045 L110.676,10.961 L110.284,10.821 L110.004,10.737 L109.612,10.597 C107.008,9.757 104.908,11.297 104.937,14.236 C104.992,17.177 107.12,18.604 109.892,17.681 L110.368,17.513 L110.564,17.429 C111.824,16.98 112.944,17.597 113.14,18.912 C113.308,20.005 112.58,21.013 110.564,21.656 C110.06,21.824 109.528,21.937 108.968,21.992 C104.152,22.44 100.513,19.08 100.568,14.125 C100.625,9.141 104.348,5.893 109.164,6.425" id="Fill-15" fill="#FFFFFF"></path>
        <path d="M116.296,6.593 L116.269,4.101 C116.269,2.925 117.221,1.945 118.424,1.945 C119.601,1.945 120.581,2.925 120.552,4.101 L120.552,6.593 L121.84,6.593 C122.344,6.593 122.848,6.789 123.212,7.181 C123.968,7.909 123.968,9.141 123.212,9.897 C122.82,10.261 122.344,10.457 121.813,10.457 L120.552,10.457 L120.552,19.753 C120.552,20.312 120.329,20.873 119.937,21.293 C119.097,22.133 117.752,22.133 116.94,21.293 C116.521,20.873 116.296,20.312 116.296,19.753 L116.325,10.429 L115.569,10.429 C115.037,10.429 114.533,10.233 114.141,9.841 C113.385,9.113 113.385,7.909 114.168,7.153 C114.533,6.789 115.037,6.593 115.569,6.593 L116.296,6.593" id="Fill-16" fill="#FFFFFF"></path>
        <path d="M124.607,8.497 C124.607,7.461 125.476,6.509 126.792,6.425 C128.136,6.313 128.947,7.153 128.892,7.965 L128.863,8.189 C128.976,8.049 129.087,7.909 129.228,7.797 C130.88,6.005 132.755,6.033 133.624,7.321 C134.38,8.441 133.987,9.729 132.868,10.205 L132.644,10.317 L132.056,10.513 C131.495,10.709 131.103,10.905 130.767,11.101 C129.396,11.913 128.919,12.641 128.919,13.341 L128.919,19.781 C128.919,20.957 127.968,21.937 126.764,21.937 C125.56,21.937 124.607,20.984 124.607,19.809 L124.607,8.497" id="Fill-17" fill="#FFFFFF"></path>
        <path d="M138.181,14.824 C138.544,17.4 140.056,18.549 141.903,18.129 C143.136,17.877 144.06,16.757 144.284,14.853 C144.339,14.404 144.339,13.957 144.284,13.509 C144.032,11.661 143.079,10.569 141.903,10.317 C140.112,9.925 138.517,11.045 138.181,13.537 C138.151,13.761 138.151,13.984 138.151,14.209 C138.151,14.433 138.151,14.629 138.181,14.824 Z M134.933,9.981 C136.331,7.657 138.712,6.313 141.259,6.313 C145.319,6.313 148.651,9.673 148.679,14.152 C148.679,18.66 145.347,22.02 141.259,22.02 C137.144,22.02 133.841,18.66 133.841,14.152 C133.841,12.529 134.204,11.157 134.933,9.981 Z" id="Fill-18" fill="#FFFFFF"></path>
        <path d="M150.522,8.609 C150.522,7.545 151.419,6.537 152.679,6.425 C153.825,6.313 154.61,7.041 154.61,7.825 L154.61,7.993 C155.282,7.181 156.206,6.649 157.522,6.425 C158.222,6.285 158.923,6.285 159.595,6.397 C162.562,6.873 164.187,8.833 164.187,11.773 L164.187,19.809 C164.187,21.013 163.233,21.965 162.058,21.992 C160.854,21.992 159.874,21.041 159.874,19.837 L159.874,12.501 C159.874,11.829 159.595,11.185 159.118,10.709 C158.138,9.701 156.542,9.701 155.562,10.681 C155.087,11.185 154.835,11.801 154.835,12.473 L154.835,19.809 C154.835,20.984 153.854,21.965 152.649,21.937 C151.474,21.937 150.522,20.957 150.522,19.781 L150.522,8.609" id="Fill-19" fill="#FFFFFF"></path>
        <path d="M184.093,12.753 C184.065,12.669 184.065,12.557 184.036,12.473 C183.589,10.429 182.134,9.477 180.481,9.869 C179.444,10.121 178.55,11.017 178.185,12.417 C178.157,12.529 178.157,12.641 178.13,12.753 L184.093,12.753 Z M178.241,15.525 C178.353,16.057 178.604,16.589 178.97,17.037 C180.116,18.408 182.218,18.744 184.597,17.484 C185.97,16.728 186.36,16.673 187.089,16.953 C187.509,17.121 187.845,17.457 188.013,17.877 C188.628,19.389 186.753,21.992 181.489,22.02 C176.142,22.02 172.585,17.597 173.817,12.277 C174.517,9.197 176.841,6.985 179.753,6.453 C183.112,5.837 186.306,7.545 187.704,10.737 C188.069,11.605 188.292,12.501 188.349,13.173 C188.517,14.908 187.956,15.525 186.528,15.525 L178.241,15.525 Z" id="Fill-20" fill="#FFFFFF"></path>
        <path d="M189.94,8.609 C189.94,7.545 190.837,6.537 192.097,6.425 C193.245,6.313 194.028,7.041 194.028,7.825 L194.028,7.993 C194.7,7.181 195.624,6.649 196.94,6.425 C197.64,6.285 198.341,6.285 199.013,6.397 C201.979,6.873 203.604,8.833 203.604,11.773 L203.604,19.809 C203.604,21.013 202.651,21.965 201.476,21.992 C200.272,21.992 199.292,21.041 199.292,19.837 L199.292,12.501 C199.292,11.829 199.013,11.185 198.536,10.709 C197.556,9.701 195.96,9.701 194.979,10.681 C194.505,11.185 194.253,11.801 194.253,12.473 L194.253,19.809 C194.253,20.984 193.272,21.965 192.069,21.937 C190.892,21.937 189.94,20.957 189.94,19.781 L189.94,8.609" id="Fill-21" fill="#FFFFFF"></path>
        <path d="M215.948,12.753 C215.921,12.669 215.921,12.557 215.894,12.473 C215.444,10.429 213.989,9.477 212.337,9.869 C211.302,10.121 210.405,11.017 210.042,12.417 C210.013,12.529 210.013,12.641 209.985,12.753 L215.948,12.753 Z M210.097,15.525 C210.21,16.057 210.462,16.589 210.825,17.037 C211.974,18.408 214.073,18.744 216.452,17.484 C217.825,16.728 218.218,16.673 218.944,16.953 C219.364,17.121 219.7,17.457 219.868,17.877 C220.485,19.389 218.608,21.992 213.345,22.02 C207.997,22.02 204.44,17.597 205.673,12.277 C206.374,9.197 208.696,6.985 211.608,6.453 C214.97,5.837 218.161,7.545 219.562,10.737 C219.925,11.605 220.149,12.501 220.204,13.173 C220.372,14.908 219.813,15.525 218.386,15.525 L210.097,15.525 Z" id="Fill-22" fill="#FFFFFF"></path>
        <path d="M221.796,8.497 C221.796,7.461 222.665,6.509 223.979,6.425 C225.325,6.313 226.136,7.153 226.081,7.965 L226.052,8.189 C226.165,8.049 226.276,7.909 226.417,7.797 C228.067,6.005 229.944,6.033 230.812,7.321 C231.567,8.441 231.177,9.729 230.056,10.205 L229.833,10.317 L229.245,10.513 C228.685,10.709 228.292,10.905 227.956,11.101 C226.585,11.913 226.108,12.641 226.108,13.341 L226.108,19.781 C226.108,20.957 225.157,21.937 223.952,21.937 C222.749,21.937 221.796,20.984 221.796,19.809 L221.796,8.497" id="Fill-23" fill="#FFFFFF"></path>
        <g id="Group-27" transform="translate(231.000000, 6.000000)">
            <mask id="mask-6" fill="white">
                <use xlink:href="#path-5"></use>
            </mask>
            <g id="Clip-25"></g>
            <path d="M5.208,11.037 C6.413,12.492 8.624,12.465 9.745,10.953 C10.249,10.281 10.501,9.469 10.528,8.293 C10.528,6.389 9.829,5.185 8.708,4.625 C6.833,3.701 4.733,4.933 4.397,7.48 C4.368,7.732 4.341,8.013 4.341,8.265 C4.341,9.441 4.677,10.365 5.208,11.037 Z M10.64,1.881 C10.669,1.069 11.452,0.341 12.601,0.453 C13.86,0.565 14.757,1.573 14.757,2.665 L14.757,13.893 C14.757,19.492 11.452,22.544 5.628,21.929 C4.452,21.788 3.39,21.509 2.38,21.061 C0.31,20.108 -0.056,18.652 0.952,17.588 C1.513,16.973 2.212,16.832 3.165,17.141 L3.192,17.168 L4.062,17.561 C4.257,17.645 4.452,17.728 4.649,17.785 C8.317,19.101 10.417,17.588 10.501,14.789 C10.528,14.593 10.501,14.396 10.501,14.201 C8.905,16.469 4.956,16.86 2.241,14.173 C0.505,12.437 -0.362,9.58 0.196,6.473 C0.394,5.353 0.757,4.401 1.261,3.589 C3.642,-0.247 8.456,-0.611 10.64,2.077 L10.64,1.881 Z" id="Fill-24" fill="#FFFFFF" mask="url(#mask-6)"></path>
            <path d="M17.163,0.621 C18.366,0.117 19.599,0.677 20.103,2.049 L22.79,9.244 L25.534,2.021 C26.067,0.649 27.327,0.089 28.503,0.649 C29.567,1.153 30.015,2.357 29.567,3.449 L22.595,20.528 C22.007,21.956 20.831,22.488 19.655,22.013 C18.534,21.536 18.06,20.332 18.534,19.185 L20.552,14.537 L15.987,3.365 C15.567,2.301 16.071,1.069 17.163,0.621" id="Fill-26" fill="#FFFFFF" mask="url(#mask-6)"></path>
        </g>
        <path d="M110.767,30.976 C110.972,31.145 111.074,31.407 111.074,31.763 C111.074,32.145 110.967,32.425 110.752,32.6 C110.537,32.775 110.195,32.862 109.728,32.862 C109.591,32.862 109.395,32.851 109.139,32.825 L109.139,30.74 L109.739,30.722 C110.219,30.722 110.562,30.807 110.767,30.976 Z M111.33,33.03 C111.682,32.744 111.857,32.361 111.857,31.882 C111.857,31.467 111.759,31.139 111.561,30.897 C111.363,30.656 111.048,30.483 110.616,30.379 C110.844,30.327 111.053,30.196 111.242,29.987 C111.431,29.778 111.525,29.547 111.525,29.294 C111.525,28.861 111.377,28.528 111.082,28.296 C110.786,28.063 110.368,27.947 109.829,27.947 C109.535,27.947 109.057,27.964 108.393,27.996 L108.393,33.459 L109.952,33.459 C110.519,33.459 110.978,33.316 111.33,33.03 Z M109.806,28.566 C110.455,28.566 110.78,28.819 110.78,29.323 C110.78,29.897 110.427,30.185 109.721,30.185 C109.489,30.185 109.295,30.178 109.139,30.163 L109.139,28.593 C109.335,28.575 109.558,28.566 109.806,28.566 Z" id="Fill-28" fill="#FFFFFF"></path>
        <polyline id="Fill-29" fill="#FFFFFF" points="122.804 33.459 119.589 33.459 119.589 27.996 120.335 27.996 120.335 32.788 122.804 32.788 122.804 33.459"></polyline>
        <path d="M130.331,31.792 L130.331,27.996 L131.075,27.996 L131.075,31.736 C131.075,32.069 131.181,32.344 131.394,32.559 C131.604,32.773 131.884,32.881 132.231,32.881 C132.601,32.881 132.89,32.776 133.101,32.568 C133.312,32.359 133.419,32.076 133.419,31.718 L133.419,27.996 L134.163,27.996 L134.163,31.796 C134.163,32.348 133.991,32.778 133.647,33.088 C133.304,33.397 132.833,33.553 132.239,33.553 C131.628,33.553 131.157,33.401 130.825,33.098 C130.495,32.794 130.331,32.359 130.331,31.792" id="Fill-30" fill="#FFFFFF"></path>
        <polyline id="Fill-31" fill="#FFFFFF" points="146.692 28.667 144.175 28.667 144.175 30.185 145.979 30.185 145.979 30.819 144.175 30.819 144.175 32.788 146.651 32.788 146.651 33.459 143.429 33.459 143.429 27.996 146.692 27.996 146.692 28.667"></polyline>
        <path d="M164.866,31.394 C166.269,31.394 166.97,30.779 166.97,29.551 C166.97,28.489 166.177,27.959 164.591,27.959 C164.474,27.959 164.134,27.971 163.569,27.996 L163.569,33.459 L164.315,33.459 L164.315,31.356 C164.599,31.381 164.782,31.394 164.866,31.394 Z M164.722,28.63 C165.708,28.63 166.202,28.963 166.202,29.629 C166.202,30.357 165.739,30.722 164.815,30.722 C164.798,30.722 164.63,30.71 164.315,30.685 L164.315,28.667 C164.487,28.643 164.622,28.63 164.722,28.63 Z" id="Fill-32" fill="#FFFFFF"></path>
        <path d="M175.024,32.747 C175.413,33.284 175.952,33.553 176.642,33.553 C177.397,33.553 177.978,33.298 178.382,32.79 C178.788,32.281 178.991,31.578 178.991,30.681 C178.991,29.806 178.788,29.123 178.384,28.634 C177.981,28.144 177.399,27.898 176.642,27.898 C175.968,27.898 175.433,28.165 175.036,28.697 C174.64,29.229 174.44,29.891 174.44,30.681 C174.44,31.521 174.636,32.21 175.024,32.747 Z M175.585,29.137 C175.827,28.759 176.179,28.57 176.642,28.57 C177.685,28.57 178.208,29.273 178.208,30.681 C178.208,31.377 178.073,31.918 177.806,32.304 C177.54,32.688 177.151,32.881 176.642,32.881 C176.19,32.881 175.843,32.671 175.595,32.251 C175.347,31.831 175.224,31.308 175.224,30.681 C175.224,30.029 175.345,29.515 175.585,29.137 Z" id="Fill-33" fill="#FFFFFF"></path>
        <polyline id="Fill-34" fill="#FFFFFF" points="192.622 27.996 190.921 33.534 190.687 33.534 189.386 29.768 188.169 33.534 187.935 33.534 186.212 27.996 186.987 27.996 188.083 31.811 189.284 27.996 189.546 27.996 190.731 31.804 191.847 27.996 192.622 27.996"></polyline>
        <polyline id="Fill-35" fill="#FFFFFF" points="203.366 28.667 200.849 28.667 200.849 30.185 202.655 30.185 202.655 30.819 200.849 30.819 200.849 32.788 203.325 32.788 203.325 33.459 200.104 33.459 200.104 27.996 203.366 27.996 203.366 28.667"></polyline>
        <path d="M213.37,30.945 C213.661,30.879 213.911,30.708 214.122,30.433 C214.335,30.158 214.44,29.85 214.44,29.506 C214.44,28.462 213.784,27.939 212.472,27.939 C212.308,27.939 212.044,27.949 211.687,27.968 C211.327,27.986 211.134,27.996 211.106,27.996 L211.106,33.459 L211.853,33.459 L211.853,31.076 C212.212,31.102 212.476,31.113 212.642,31.113 L214.101,33.459 L214.954,33.459 L213.37,30.945 Z M212.292,28.63 C212.765,28.63 213.11,28.697 213.329,28.831 C213.548,28.966 213.657,29.186 213.657,29.491 C213.657,29.861 213.554,30.119 213.351,30.264 C213.147,30.407 212.821,30.479 212.374,30.479 C212.204,30.479 212.03,30.467 211.853,30.442 L211.853,28.667 C212.071,28.643 212.218,28.63 212.292,28.63 Z" id="Fill-36" fill="#FFFFFF"></path>
    </g>
</svg>