<svg aria-hidden="true" focusable="false" data-prefix="fal" data-icon="arrow-left" width="20px" height="21px"
     class="svg-inline--fa fa-arrow-left fa-w-14" role="img" xmlns="http://www.w3.org/2000/svg" viewBox="0 0 448 512">
    <path fill="#ffffff"
          d="M447.1 256C447.1 264.8 440.8 272 432 272H68.17l135.7 149.3c5.938 6.531 5.453 16.66-1.078 22.59C199.7 446.6 195.8 448 192 448c-4.344 0-8.688-1.75-11.84-5.25l-160-176c-5.547-6.094-5.547-15.41 0-21.5l160-176c5.969-6.562 16.09-7 22.61-1.094c6.531 5.938 7.016 16.06 1.078 22.59L68.17 240H432C440.8 240 447.1 247.2 447.1 256z"></path>
</svg>