<?xml version="1.0" encoding="UTF-8"?>
<svg width="13px" height="13px" viewBox="0 0 13 13" version="1.1" xmlns="http://www.w3.org/2000/svg" xmlns:xlink="http://www.w3.org/1999/xlink">
    <title></title>
    <g id="Symbols" stroke="none" stroke-width="1" fill="none" fill-rule="evenodd">
        <g id="UI/Theme-switcher-Copy" transform="translate(-9.000000, -9.000000)" fill="#F7AB3E" fill-rule="nonzero">
            <path d="M16.34375,21.7890625 C18.3125,21.7890625 19.9166667,21.0416667 21.15625,19.546875 C21.3385417,19.2916667 21.5572917,18.9635417 21.8125,18.5625 C21.4479167,18.671875 21.0651042,18.7265625 20.6640625,18.7265625 L20.6640625,18.7265625 L20.390625,18.7265625 C18.75,18.7265625 17.3463542,18.1432292 16.1796875,16.9765625 C15.0130208,15.8098958 14.4296875,14.40625 14.4296875,12.765625 C14.4296875,11.8541667 14.6302083,10.9973958 15.03125,10.1953125 C15.140625,9.9765625 15.3411458,9.6484375 15.6328125,9.2109375 C15.1223958,9.28385417 14.7213542,9.35677083 14.4296875,9.4296875 C13.1171875,9.83072917 12.0507812,10.5872396 11.2304688,11.6992188 C10.4101562,12.8111979 10,14.078125 10,15.5 C10,17.25 10.6197917,18.7356771 11.859375,19.9570312 C13.0989583,21.1783854 14.59375,21.7890625 16.34375,21.7890625 Z" id=""></path>
        </g>
    </g>
</svg>
