<?xml version="1.0" encoding="UTF-8"?>
<svg width="44px" height="44px" viewBox="0 0 44 44" version="1.1" xmlns="http://www.w3.org/2000/svg" xmlns:xlink="http://www.w3.org/1999/xlink">
    <title>KVNRV</title>
    <g id="Symbols" stroke="none" stroke-width="1" fill="none" fill-rule="evenodd">
        <g id="Big/-Header" transform="translate(-21.000000, -19.000000)">
            <g id="KVNRV" transform="translate(21.000000, 19.000000)">
                <circle id="Oval" fill="#FFFFFF" cx="22" cy="22" r="22"></circle>
                <path d="M22,40 C25.2578125,40 28.2695312,39.1972656 31.0351562,37.5917969 C33.8007812,35.9863281 35.9863281,33.8007812 37.5917969,31.0351562 C39.1972656,28.2695312 40,25.2578125 40,22 C40,18.7421875 39.1972656,15.7304687 37.5917969,12.9648438 C35.9863281,10.1992188 33.8007812,8.01953125 31.0351562,6.42578125 C28.2695312,4.80859375 25.2578125,4 22,4 C18.7421875,4 15.7304687,4.80273438 12.9648438,6.40820312 C10.1992188,8.01367188 8.01367188,10.1992188 6.40820312,12.9648438 C4.80273438,15.7304687 4,18.7421875 4,22 C4,25.2578125 4.80273438,28.2695312 6.40820312,31.0351562 C8.01367188,33.8007812 10.1992188,35.9863281 12.9648438,37.5917969 C15.7304687,39.1972656 18.7421875,40 22,40 Z M23.835046,34 L25.0653329,29.3476923 L22.8859675,29.3476923 L23.6241397,26.2689593 C22.9679867,26.4057919 22.2298145,26.599638 21.4096233,26.8504977 C21.3393212,26.918914 21.2162925,26.9702262 21.0405372,27.0044344 C20.864782,27.0386425 20.4898374,26.9531222 19.9157035,26.7478733 C19.3415696,26.5426244 18.7264262,26.1549321 18.0702732,25.5847964 C18.0468392,25.561991 18.0116881,25.5277828 17.96482,25.4821719 C17.917952,25.4365611 17.8359328,25.3567421 17.7187627,25.2427149 C17.6015925,25.1286878 17.5078563,25.020362 17.4375542,24.9177376 C17.3672521,24.8151131 17.3028085,24.701086 17.2442234,24.5756561 C17.1856383,24.4502262 17.1739213,24.3361991 17.2090724,24.2335747 C17.2442234,24.1309502 17.3321011,24.0568326 17.4727053,24.0112217 C17.6601776,23.9428054 18.609256,23.7945701 20.3199406,23.5665158 L22.7453633,23.2586425 C22.0230436,23.2693745 21.3655932,23.2756874 20.7730122,23.2775813 L19.9327925,23.2771078 C18.4815851,23.2701636 17.5209518,23.2298004 17.0508926,23.1560181 C16.5119098,23.0647964 15.9553515,22.6542986 15.3812176,21.9245249 C14.8070837,21.1947511 14.4379976,20.4421719 14.2739594,19.6667873 C14.2739594,19.6667873 14.2655231,19.6257376 14.2486506,19.543638 L14.2036573,19.3247059 L14.2036573,19.3247059 C14.2739594,19.0738462 14.6254699,19.039638 15.2581889,19.2220814 C15.3987931,19.2600905 15.5843126,19.3063348 15.8147472,19.3608145 L16.3355036,19.4807541 C16.7225992,19.5680342 17.189544,19.6699548 17.7363382,19.7865158 C18.9666251,20.0487783 20.0914588,20.2825339 21.1108393,20.4877828 C22.1302199,20.6930317 22.6399102,20.7956561 22.6399102,20.7956561 C17.4844223,19.2448869 14.7309231,18.2870588 14.3794126,17.9221719 C14.0982041,17.5800905 13.7877032,16.901629 13.4479096,15.8867873 C13.1081161,14.8719457 12.9616534,14.0110407 13.0085215,13.3040724 C13.0085215,13.281267 13.01438,13.2470588 13.026097,13.201448 C13.037814,13.1558371 13.0846821,13.1045249 13.1667012,13.0475113 C13.2487203,12.9904977 13.348315,12.9847964 13.4654852,13.0304072 C17.285233,14.718009 20.4956959,16.0293213 23.0968739,16.9643439 C23.5421205,17.1239819 24.0869619,17.3064253 24.7313978,17.5116742 C25.3758338,17.7169231 25.8855241,17.8879638 26.2604687,18.0247964 C26.6354133,18.161629 27.0689429,18.321267 27.5610577,18.5037104 C28.0531724,18.6861538 28.4339755,18.8571946 28.7034669,19.0168326 C28.9729583,19.1764706 29.2248742,19.3532127 29.4592146,19.5470588 C29.6935549,19.740905 29.8517347,19.9461538 29.9337538,20.1628054 C30.0157729,20.379457 30.0216314,20.6132127 29.9513293,20.8640724 C29.9325821,20.9735385 29.8763404,21.1340887 29.7826043,21.3457231 L29.7052719,21.5140271 C29.5646677,21.8104977 29.3713369,22.1753846 29.1252796,22.6086878 C28.8792222,23.041991 28.6390233,23.45819 28.404683,23.8572851 C28.1703426,24.2563801 27.9418607,24.6326697 27.7192374,24.9861538 C27.5522699,25.251267 27.4083703,25.4811029 27.2875385,25.6756618 L26.9634898,26.200543 L26.9634898,26.1663348 L26.3659218,27.1241629 L29.1428551,27.1241629 L23.835046,34 Z" id="юде" fill="#F7AB3E" fill-rule="nonzero"></path>
            </g>
        </g>
    </g>
</svg>
