<?xml version="1.0" encoding="UTF-8"?>
<svg width="14px" height="19px" viewBox="0 0 14 19" version="1.1" xmlns="http://www.w3.org/2000/svg" xmlns:xlink="http://www.w3.org/1999/xlink">
    <title></title>
    <g id="Symbols" stroke="none" stroke-width="1" fill="none" fill-rule="evenodd">
        <g id="Big/-Header" transform="translate(-831.000000, -30.000000)" fill="#FFFFFF" fill-rule="nonzero">
            <path d="M843,48.32 C843.453333,48.32 843.846667,48.16 844.18,47.84 C844.513333,47.52 844.68,47.1333333 844.68,46.68 L844.68,46.68 L844.68,38.32 C844.68,37.8666667 844.513333,37.48 844.18,37.16 C843.846667,36.84 843.453333,36.68 843,36.68 L843,36.68 L842.18,36.68 L842.18,35 C842.18,34.24 841.993333,33.54 841.62,32.9 C841.246667,32.26 840.74,31.7533333 840.1,31.38 C839.46,31.0066667 838.76,30.82 838,30.82 C837.24,30.82 836.54,31.0066667 835.9,31.38 C835.26,31.7533333 834.753333,32.26 834.38,32.9 C834.006667,33.54 833.82,34.24 833.82,35 L833.82,35 L833.82,36.68 L833,36.68 C832.546667,36.68 832.153333,36.84 831.82,37.16 C831.486667,37.48 831.32,37.8666667 831.32,38.32 L831.32,38.32 L831.32,46.68 C831.32,47.1333333 831.486667,47.52 831.82,47.84 C832.153333,48.16 832.546667,48.32 833,48.32 L833,48.32 L843,48.32 Z M840.58,36.68 L835.42,36.68 L835.42,35 C835.42,34.5466667 835.536667,34.12 835.77,33.72 C836.003333,33.32 836.32,33.0033333 836.72,32.77 C837.12,32.5366667 837.546667,32.42 838,32.42 C838.453333,32.42 838.88,32.5366667 839.28,32.77 C839.68,33.0033333 839.996667,33.32 840.23,33.72 C840.463333,34.12 840.58,34.5466667 840.58,35 L840.58,35 L840.58,36.68 Z M838,44.18 C837.546667,44.18 837.153333,44.0133333 836.82,43.68 C836.486667,43.3466667 836.32,42.9533333 836.32,42.5 C836.32,42.0466667 836.486667,41.6533333 836.82,41.32 C837.153333,40.9866667 837.546667,40.82 838,40.82 C838.453333,40.82 838.846667,40.9866667 839.18,41.32 C839.513333,41.6533333 839.68,42.0466667 839.68,42.5 C839.68,42.9533333 839.513333,43.3466667 839.18,43.68 C838.846667,44.0133333 838.453333,44.18 838,44.18 Z" id=""></path>
        </g>
    </g>
</svg>