<?xml version="1.0" encoding="UTF-8"?>
<svg width="20px" height="21px" viewBox="0 0 20 21" version="1.1" xmlns="http://www.w3.org/2000/svg" xmlns:xlink="http://www.w3.org/1999/xlink">
    <title></title>
    <g id="Symbols" stroke="none" stroke-width="1" fill="none" fill-rule="evenodd">
        <g id="Dark/Big/-Header" transform="translate(-1171.000000, -31.000000)" fill="#FFFFFF" fill-rule="nonzero">
            <path d="M1189.75,51.25 C1190.10156,51.25 1190.39779,51.1295573 1190.63867,50.8886719 C1190.87956,50.6477865 1191,50.3515625 1191,50 L1191,32.5 C1191,32.1484375 1190.87956,31.8522135 1190.63867,31.6113281 C1190.39779,31.3704427 1190.10156,31.25 1189.75,31.25 L1178.5,31.25 C1178.16146,31.25 1177.86849,31.3704427 1177.62109,31.6113281 C1177.3737,31.8522135 1177.25,32.1484375 1177.25,32.5 L1177.25,38.125 L1178.51953,38.125 L1178.51953,33.2617188 C1178.51953,33.0533854 1178.59115,32.874349 1178.73438,32.7246094 C1178.8776,32.5748698 1179.05339,32.5 1179.26172,32.5 L1188.96875,32.5 C1189.17708,32.5 1189.35612,32.5748698 1189.50586,32.7246094 C1189.6556,32.874349 1189.73047,33.0533854 1189.73047,33.2617188 L1189.75,49.2382812 C1189.75,49.4466146 1189.67513,49.625651 1189.52539,49.7753906 C1189.37565,49.9251302 1189.19661,50 1188.98828,50 L1179.26172,50 C1179.05339,50 1178.8776,49.9251302 1178.73438,49.7753906 C1178.59115,49.625651 1178.51953,49.4466146 1178.51953,49.2382812 L1178.51953,44.3554688 L1177.25,44.3554688 L1177.25,50 C1177.25,50.3515625 1177.3737,50.6477865 1177.62109,50.8886719 C1177.86849,51.1295573 1178.16146,51.25 1178.5,51.25 L1189.75,51.25 Z M1181.83984,45.234375 C1181.91797,45.234375 1181.99609,45.218099 1182.07422,45.1855469 C1182.15234,45.1529948 1182.22396,45.1106771 1182.28906,45.0585938 L1185.98047,41.2695312 L1182.28906,37.4804688 C1182.15885,37.3502604 1182.00911,37.2851562 1181.83984,37.2851562 C1181.67057,37.2851562 1181.52734,37.3502604 1181.41016,37.4804688 C1181.27995,37.5976562 1181.21484,37.7441406 1181.21484,37.9199219 C1181.21484,38.0957031 1181.27995,38.2421875 1181.41016,38.359375 L1183.65625,40.625 L1171.625,40.625 C1171.45573,40.625 1171.30924,40.6835938 1171.18555,40.8007812 C1171.06185,40.9179688 1171,41.0677083 1171,41.25 C1171,41.4192708 1171.06185,41.5657552 1171.18555,41.6894531 C1171.30924,41.813151 1171.45573,41.875 1171.625,41.875 L1183.69531,41.875 L1181.41016,44.1601562 C1181.27995,44.2903646 1181.21484,44.4401042 1181.21484,44.609375 C1181.21484,44.7786458 1181.27995,44.9283854 1181.41016,45.0585938 C1181.46224,45.1106771 1181.52734,45.1529948 1181.60547,45.1855469 C1181.68359,45.218099 1181.76172,45.234375 1181.83984,45.234375 Z" id=""></path>
        </g>
    </g>
</svg>