<?xml version="1.0" encoding="UTF-8"?>
<svg width="22px" height="21px" viewBox="0 0 22 21" version="1.1" xmlns="http://www.w3.org/2000/svg" xmlns:xlink="http://www.w3.org/1999/xlink">
    <title></title>
    <g id="Symbols" stroke="none" stroke-width="1" fill="none" fill-rule="evenodd">
        <g id="Big/-Header" transform="translate(-997.000000, -29.000000)" fill="#FFFFFF" fill-rule="nonzero">
            <path d="M1008.27344,49.25 C1008.32552,49.25 1008.38086,49.2467448 1008.43945,49.2402344 C1008.49805,49.233724 1008.55339,49.2304688 1008.60547,49.2304688 C1009.90755,49.1523438 1011.13151,48.8365885 1012.27734,48.2832031 C1013.42318,47.7298177 1014.42253,47.0071615 1015.27539,46.1152344 C1016.12826,45.2233073 1016.79883,44.188151 1017.28711,43.0097656 C1017.77539,41.8313802 1018.01953,40.578125 1018.01953,39.25 C1018.01953,37.921875 1017.77539,36.6686198 1017.28711,35.4902344 C1016.79883,34.311849 1016.12826,33.2766927 1015.27539,32.3847656 C1014.42253,31.4928385 1013.42318,30.7701823 1012.27734,30.2167969 C1011.13151,29.6634115 1009.90755,29.3476562 1008.60547,29.2695312 C1008.55339,29.2695312 1008.49805,29.266276 1008.43945,29.2597656 C1008.38086,29.2532552 1008.32552,29.25 1008.27344,29.25 L1008,29.25 L1008,29.25 C1006.61979,29.25 1005.32096,29.5136719 1004.10352,30.0410156 C1002.88607,30.5683594 1001.82487,31.2845052 1000.91992,32.1894531 C1000.01497,33.094401 999.298828,34.1523438 998.771484,35.3632812 C998.244141,36.5742188 997.980469,37.8697917 997.980469,39.25 C997.980469,40.6302083 998.244141,41.9257812 998.771484,43.1367188 C999.298828,44.3476562 1000.01497,45.405599 1000.91992,46.3105469 C1001.82487,47.2154948 1002.88607,47.9316406 1004.10352,48.4589844 C1005.32096,48.9863281 1006.61979,49.25 1008,49.25 L1008.27344,49.25 L1008.27344,49.25 Z M1008.60547,36.125 L1008.60547,30.578125 C1008.98307,30.6953125 1009.34766,30.9101562 1009.69922,31.2226562 C1010.05078,31.5351562 1010.3763,31.9257812 1010.67578,32.3945312 C1010.97526,32.8632812 1011.23893,33.4003906 1011.4668,34.0058594 C1011.69466,34.6113281 1011.88672,35.265625 1012.04297,35.96875 C1011.5612,36.0078125 1011.03711,36.0403646 1010.4707,36.0664062 C1009.9043,36.0924479 1009.28255,36.1119792 1008.60547,36.125 Z M1007.35547,36.125 C1006.69141,36.1119792 1006.07292,36.0924479 1005.5,36.0664062 C1004.92708,36.0403646 1004.39974,36.0078125 1003.91797,35.96875 C1004.07422,35.2786458 1004.26953,34.6308594 1004.50391,34.0253906 C1004.73828,33.4199219 1005.00195,32.8860677 1005.29492,32.4238281 C1005.58789,31.9615885 1005.91016,31.5709635 1006.26172,31.2519531 C1006.61328,30.9329427 1006.97786,30.7148438 1007.35547,30.5976562 L1007.35547,36.125 Z M1002.70703,35.8710938 C1001.99089,35.7929688 1001.41797,35.7148438 1000.98828,35.6367188 C1000.55859,35.5585938 1000.25911,35.4934896 1000.08984,35.4414062 C1000.33724,34.9335938 1000.63346,34.4550781 1000.97852,34.0058594 C1001.32357,33.5566406 1001.70443,33.1432292 1002.12109,32.765625 C1002.53776,32.3880208 1002.98698,32.0527344 1003.46875,31.7597656 C1003.95052,31.4667969 1004.46484,31.2226562 1005.01172,31.0273438 C1004.50391,31.6132812 1004.04818,32.3164062 1003.64453,33.1367188 C1003.24089,33.9570312 1002.92839,34.8684896 1002.70703,35.8710938 Z M1013.3125,35.8515625 C1013.13021,34.9140625 1012.88281,34.0514323 1012.57031,33.2636719 C1012.25781,32.4759115 1011.89974,31.7955729 1011.49609,31.2226562 C1012.44661,31.6393229 1013.29948,32.2057292 1014.05469,32.921875 C1014.8099,33.6380208 1015.41536,34.4583333 1015.87109,35.3828125 C1015.77995,35.4088542 1015.52604,35.4707031 1015.10938,35.5683594 C1014.69271,35.6660156 1014.09375,35.7604167 1013.3125,35.8515625 Z M999.816406,42.3945312 C999.621094,41.9127604 999.474609,41.4082031 999.376953,40.8808594 C999.279297,40.3535156 999.230469,39.8098958 999.230469,39.25 C999.230469,38.7942708 999.266276,38.3450521 999.337891,37.9023438 C999.409505,37.4596354 999.510417,37.0299479 999.640625,36.6132812 C999.757812,36.6523438 1000.04753,36.7207031 1000.50977,36.8183594 C1000.97201,36.9160156 1001.6263,37.0104167 1002.47266,37.1015625 C1002.42057,37.4401042 1002.38477,37.7916667 1002.36523,38.15625 C1002.3457,38.5208333 1002.33594,38.8854167 1002.33594,39.25 C1002.33594,39.71875 1002.35547,40.1809896 1002.39453,40.6367188 C1002.43359,41.0924479 1002.49219,41.5351562 1002.57031,41.9648438 C1001.84115,42.0429688 1001.2487,42.124349 1000.79297,42.2089844 C1000.33724,42.2936198 1000.01172,42.3554688 999.816406,42.3945312 Z M1012.16016,41.8476562 C1011.66536,41.8085938 1011.12174,41.7760417 1010.5293,41.75 C1009.93685,41.7239583 1009.29557,41.7044271 1008.60547,41.6914062 L1008.60547,37.3554688 C1009.32161,37.3554688 1009.98242,37.3424479 1010.58789,37.3164062 C1011.19336,37.2903646 1011.74349,37.2513021 1012.23828,37.1992188 C1012.27734,37.5377604 1012.3099,37.8763021 1012.33594,38.2148438 C1012.36198,38.5533854 1012.375,38.8984375 1012.375,39.25 C1012.375,39.7057292 1012.35547,40.1484375 1012.31641,40.578125 C1012.27734,41.0078125 1012.22526,41.4309896 1012.16016,41.8476562 Z M1003.78125,41.8476562 C1003.71615,41.4309896 1003.66406,41.0078125 1003.625,40.578125 C1003.58594,40.1484375 1003.56641,39.7057292 1003.56641,39.25 C1003.56641,38.8984375 1003.57943,38.5533854 1003.60547,38.2148438 C1003.63151,37.8763021 1003.66406,37.5442708 1003.70312,37.21875 C1004.21094,37.2578125 1004.76758,37.2903646 1005.37305,37.3164062 C1005.97852,37.3424479 1006.63932,37.3554688 1007.35547,37.3554688 L1007.35547,41.6914062 C1006.66536,41.7044271 1006.02409,41.7239583 1005.43164,41.75 C1004.83919,41.7760417 1004.28906,41.8085938 1003.78125,41.8476562 Z M1007.35547,47.9023438 C1007.00391,47.7851562 1006.66536,47.5865885 1006.33984,47.3066406 C1006.01432,47.0266927 1005.70833,46.6783854 1005.42188,46.2617188 C1005.13542,45.8450521 1004.875,45.3665365 1004.64062,44.8261719 C1004.40625,44.2858073 1004.21094,43.703125 1004.05469,43.078125 C1004.52344,43.0390625 1005.03125,43.0097656 1005.57812,42.9902344 C1006.125,42.9707031 1006.71745,42.9544271 1007.35547,42.9414062 L1007.35547,47.9023438 Z M1008.60547,47.921875 L1008.60547,42.9414062 C1009.24349,42.9544271 1009.83919,42.9707031 1010.39258,42.9902344 C1010.94596,43.0097656 1011.45052,43.0390625 1011.90625,43.078125 C1011.75,43.7161458 1011.55794,44.3085938 1011.33008,44.8554688 C1011.10221,45.4023438 1010.84505,45.8841146 1010.55859,46.3007812 C1010.27214,46.7174479 1009.96289,47.0657552 1009.63086,47.3457031 C1009.29883,47.625651 1008.95703,47.8177083 1008.60547,47.921875 Z M1005.01172,47.4726562 C1004.51693,47.3033854 1004.04492,47.0852865 1003.5957,46.8183594 C1003.14648,46.5514323 1002.72656,46.2519531 1002.33594,45.9199219 C1001.94531,45.5878906 1001.58398,45.2233073 1001.25195,44.8261719 C1000.91992,44.4290365 1000.6237,44.0026042 1000.36328,43.546875 C1000.59766,43.5078125 1000.91667,43.452474 1001.32031,43.3808594 C1001.72396,43.3092448 1002.23177,43.2408854 1002.84375,43.1757812 C1003.07812,44.0611979 1003.38086,44.8684896 1003.75195,45.5976562 C1004.12305,46.3268229 1004.54297,46.9518229 1005.01172,47.4726562 Z M1011.49609,47.2773438 C1011.86068,46.7565104 1012.18945,46.1510417 1012.48242,45.4609375 C1012.77539,44.7708333 1013.01302,44.015625 1013.19531,43.1953125 C1013.82031,43.2734375 1014.32812,43.3483073 1014.71875,43.4199219 C1015.10938,43.4915365 1015.40234,43.5533854 1015.59766,43.6054688 C1015.12891,44.4257812 1014.54297,45.1484375 1013.83984,45.7734375 C1013.13672,46.3984375 1012.35547,46.8997396 1011.49609,47.2773438 Z M1016.339,36.536 L1016.43125,36.8363281 C1016.49271,37.0535156 1016.54688,37.2753906 1016.59375,37.5019531 C1016.71094,38.0683594 1016.76953,38.6510417 1016.76953,39.25 C1016.76953,39.8229167 1016.71745,40.3795573 1016.61328,40.9199219 C1016.50911,41.4602865 1016.35938,41.9778646 1016.16406,42.4726562 C1015.98177,42.4205729 1015.66927,42.3457031 1015.22656,42.2480469 C1014.78385,42.1503906 1014.1849,42.0559896 1013.42969,41.9648438 C1013.48177,41.5351562 1013.52734,41.0924479 1013.56641,40.6367188 C1013.60547,40.1809896 1013.625,39.71875 1013.625,39.25 C1013.625,38.8723958 1013.61198,38.5045573 1013.58594,38.1464844 C1013.5599,37.7884115 1013.52734,37.4335938 1013.48828,37.0820312 C1014.45182,36.9648438 1015.1582,36.8476562 1015.60742,36.7304688 C1016.00673,36.6263021 1016.244,36.5632877 1016.31923,36.5414255 L1016.339,36.536 Z" id=""></path>
        </g>
    </g>
</svg>