<?xml version="1.0" encoding="UTF-8"?>
<svg width="636px" height="800px" viewBox="0 0 636 800" version="1.1" xmlns="http://www.w3.org/2000/svg" xmlns:xlink="http://www.w3.org/1999/xlink">
    <title>Group</title>
    <defs>
        <path d="M32,0 L636,0 L636,0 L636,800 L32,800 C14.326888,800 4.54069512e-13,785.673112 4.5190518e-13,768 L4.5190518e-13,32 C4.49740848e-13,14.326888 14.326888,3.24649801e-15 32,0 Z" id="path-1"></path>
        <ellipse id="path-3" cx="21.8757062" cy="22" rx="21.8757062" ry="22"></ellipse>
        <filter x="-13.7%" y="-13.6%" width="127.4%" height="127.3%" filterUnits="objectBoundingBox" id="filter-4">
            <feOffset dx="0" dy="0" in="SourceAlpha" result="shadowOffsetOuter1"></feOffset>
            <feGaussianBlur stdDeviation="2" in="shadowOffsetOuter1" result="shadowBlurOuter1"></feGaussianBlur>
            <feColorMatrix values="0 0 0 0 0   0 0 0 0 0   0 0 0 0 0  0 0 0 0.2 0" type="matrix" in="shadowBlurOuter1"></feColorMatrix>
        </filter>
    </defs>
    <g id="v" stroke="none" stroke-width="1" fill="none" fill-rule="evenodd">
        <g id="Log-in---1280-x-800---Light" transform="translate(-644.000000, 0.000000)">
            <g id="Group" transform="translate(644.000000, 0.000000)">
                <g id="Group-Copy-2" transform="translate(0.000000, 0.000000)">
                    <mask id="mask-2" fill="white">
                        <use xlink:href="#path-1"></use>
                    </mask>
                    <use id="Rectangle-Copy-4" fill="#283099" xlink:href="#path-1"></use>
                    <path d="M176.062516,585.039734 C166.967752,585.039734 159.592849,577.663513 159.592849,568.561329 C159.592849,559.461741 166.967752,552.08552 176.062516,552.08552 C185.157279,552.08552 192.532182,559.461741 192.532182,568.561329 C192.532182,577.663513 185.157279,585.039734 176.062516,585.039734 L176.062516,585.039734 Z M122.401857,499.029678 C119.512077,499.029678 117.169644,496.686002 117.169644,493.794689 L117.169644,467.684633 C117.169644,464.79332 119.512077,462.449644 122.401857,462.449644 L150.376165,462.449644 C152.422876,462.449644 154.280221,463.640948 155.133665,465.499278 L167.120802,491.609335 C168.710959,495.076833 166.176565,499.029678 162.363302,499.029678 L122.401857,499.029678 Z M109.211078,493.794689 C109.211078,496.686002 106.863456,499.029678 103.976271,499.029678 L77.8774656,499.029678 C74.9876864,499.029678 72.6452531,496.686002 72.6452531,493.794689 L72.6452531,467.684633 C72.6452531,464.79332 74.9876864,462.449644 77.8774656,462.449644 L103.976271,462.449644 C106.863456,462.449644 109.211078,464.79332 109.211078,467.684633 L109.211078,493.794689 Z M63.9785093,493.794689 C63.9785093,496.686002 61.636076,499.029678 58.7437027,499.029678 L32.6500853,499.029678 C29.760306,499.029678 27.4152787,496.686002 27.4152787,493.794689 L27.4152787,467.684633 C27.4152787,464.79332 29.760306,462.449644 32.6500853,462.449644 L58.7437027,462.449644 C61.636076,462.449644 63.9785093,464.79332 63.9785093,467.684633 L63.9785093,493.794689 Z M5.50846897,406.053479 L5.50846897,400.029479 C5.50846897,398.86413 6.45011159,397.916797 7.61743715,397.916797 L51.4492149,397.916797 C52.8007185,397.916797 53.6852919,399.339094 53.0860648,400.553757 L50.1988796,406.390886 C49.6619098,407.478372 48.5594357,408.166162 47.3454171,408.166162 L7.61743715,408.166162 C6.45011159,408.166162 5.50846897,407.218829 5.50846897,406.053479 L5.50846897,406.053479 Z M-1.91312754,404.981566 C-1.91312754,406.741269 -3.33726472,408.166162 -5.09862929,408.166162 L-42.5464333,408.166162 C-44.3052038,408.166162 -45.729341,406.741269 -45.729341,404.981566 L-45.729341,401.101393 C-45.729341,399.344285 -44.3052038,397.916797 -42.5464333,397.916797 L-5.09862929,397.916797 C-3.33726472,397.916797 -1.91312754,399.344285 -1.91312754,401.101393 L-1.91312754,404.981566 Z M-24.8809065,482.0244 C-24.8809065,485.55938 -27.7447452,488.424738 -31.2804446,488.424738 L-67.9552197,488.424738 C-71.488325,488.424738 -74.3521637,485.55938 -74.3521637,482.0244 L-74.3521637,477.147582 C-74.3521637,473.612602 -71.488325,470.747244 -67.9552197,470.747244 L-31.2804446,470.747244 C-27.7447452,470.747244 -24.8809065,473.612602 -24.8809065,477.147582 L-24.8809065,482.0244 Z M-49.6178321,585.039734 C-58.7125953,585.039734 -66.0874988,577.663513 -66.0874988,568.561329 C-66.0874988,559.461741 -58.7125953,552.08552 -49.6178321,552.08552 C-40.5204749,552.08552 -33.1481655,559.461741 -33.1481655,568.561329 C-33.1481655,577.663513 -40.5204749,585.039734 -49.6178321,585.039734 L-49.6178321,585.039734 Z M-98.2719615,408.171353 C-98.5780602,408.171353 -98.8841589,408.215475 -99.1772873,408.301125 L-107.716922,410.842053 C-109.758445,411.449385 -111.80775,409.918079 -111.80775,407.787229 L-111.80775,401.101393 C-111.80775,399.344285 -110.383613,397.916797 -108.624842,397.916797 L-56.689231,397.916797 C-54.9304605,397.916797 -53.5037292,399.344285 -53.5037292,401.101393 L-53.5037292,404.984161 C-53.5037292,406.743865 -54.9304605,408.171353 -56.689231,408.171353 L-98.2719615,408.171353 Z M229.896976,567.266208 L225.40407,567.266208 L225.40407,524.132706 C217.673781,516.953738 206.931792,511.843331 193.248142,508.75217 L166.041674,459.524591 L186.267535,459.524591 C197.707326,459.524591 204.423339,446.651243 197.881127,437.260967 L173.222023,401.861855 C168.721335,395.404418 161.349025,391.552795 153.481251,391.552795 L-114.54448,391.552795 C-117.854496,391.552795 -120.534157,394.233877 -120.534157,397.54565 L-120.534157,411.368926 C-120.534157,414.434133 -118.225446,416.933535 -115.26044,417.289109 C-122.583462,423.396163 -127.25017,432.583996 -127.25017,442.867102 C-127.25017,448.439497 -124.503064,453.360438 -120.303286,456.384117 C-135.270994,499.964034 -136.090716,534.457339 -122.689818,559.81472 C-120.902513,563.20176 -123.31758,567.266208 -127.149002,567.266208 C-129.154208,567.266208 -130.780681,568.893545 -130.780681,570.90241 L-130.780681,578.122905 C-130.780681,580.13177 -129.154208,581.761702 -127.149002,581.761702 L-76.1783797,581.761702 C-71.3171173,591.530912 -61.2625531,598.26087 -49.6178321,598.26087 C-37.9705171,598.26087 -27.9159529,591.530912 -23.0572845,581.761702 L149.501968,581.761702 C154.36323,591.530912 164.415201,598.26087 176.062516,598.26087 C187.709831,598.26087 197.761801,591.530912 202.620469,581.761702 L229.896976,581.761702 C231.904776,581.761702 233.53125,580.13177 233.53125,578.122905 L233.53125,570.90241 C233.53125,568.893545 231.904776,567.266208 229.896976,567.266208 L229.896976,567.266208 Z" id="Fill-1" fill="#3C48CC" mask="url(#mask-2)"></path>
                    <path d="M748.462516,748.0211 C739.367752,748.0211 731.992849,740.644879 731.992849,731.542696 C731.992849,722.443107 739.367752,715.066887 748.462516,715.066887 C757.557279,715.066887 764.932182,722.443107 764.932182,731.542696 C764.932182,740.644879 757.557279,748.0211 748.462516,748.0211 L748.462516,748.0211 Z M694.801857,662.011044 C691.912077,662.011044 689.569644,659.667368 689.569644,656.776056 L689.569644,630.665999 C689.569644,627.774687 691.912077,625.431011 694.801857,625.431011 L722.776165,625.431011 C724.822876,625.431011 726.680221,626.622315 727.533665,628.480645 L739.520802,654.590701 C741.110959,658.0582 738.576565,662.011044 734.763302,662.011044 L694.801857,662.011044 Z M681.611078,656.776056 C681.611078,659.667368 679.263456,662.011044 676.376271,662.011044 L650.277466,662.011044 C647.387686,662.011044 645.045253,659.667368 645.045253,656.776056 L645.045253,630.665999 C645.045253,627.774687 647.387686,625.431011 650.277466,625.431011 L676.376271,625.431011 C679.263456,625.431011 681.611078,627.774687 681.611078,630.665999 L681.611078,656.776056 Z M636.378509,656.776056 C636.378509,659.667368 634.036076,662.011044 631.143703,662.011044 L605.050085,662.011044 C602.160306,662.011044 599.815279,659.667368 599.815279,656.776056 L599.815279,630.665999 C599.815279,627.774687 602.160306,625.431011 605.050085,625.431011 L631.143703,625.431011 C634.036076,625.431011 636.378509,627.774687 636.378509,630.665999 L636.378509,656.776056 Z M577.908469,569.034846 L577.908469,563.010846 C577.908469,561.845496 578.850112,560.898163 580.017437,560.898163 L623.849215,560.898163 C625.200719,560.898163 626.085292,562.320461 625.486065,563.535123 L622.59888,569.372252 C622.06191,570.459739 620.959436,571.147528 619.745417,571.147528 L580.017437,571.147528 C578.850112,571.147528 577.908469,570.200195 577.908469,569.034846 L577.908469,569.034846 Z M570.486872,567.962932 C570.486872,569.722636 569.062735,571.147528 567.301371,571.147528 L529.853567,571.147528 C528.094796,571.147528 526.670659,569.722636 526.670659,567.962932 L526.670659,564.08276 C526.670659,562.325652 528.094796,560.898163 529.853567,560.898163 L567.301371,560.898163 C569.062735,560.898163 570.486872,562.325652 570.486872,564.08276 L570.486872,567.962932 Z M547.519094,645.005767 C547.519094,648.540747 544.655255,651.406105 541.119555,651.406105 L504.44478,651.406105 C500.911675,651.406105 498.047836,648.540747 498.047836,645.005767 L498.047836,640.128948 C498.047836,636.593968 500.911675,633.72861 504.44478,633.72861 L541.119555,633.72861 C544.655255,633.72861 547.519094,636.593968 547.519094,640.128948 L547.519094,645.005767 Z M522.782168,748.0211 C513.687405,748.0211 506.312501,740.644879 506.312501,731.542696 C506.312501,722.443107 513.687405,715.066887 522.782168,715.066887 C531.879525,715.066887 539.251835,722.443107 539.251835,731.542696 C539.251835,740.644879 531.879525,748.0211 522.782168,748.0211 L522.782168,748.0211 Z M474.128038,571.152719 C473.82194,571.152719 473.515841,571.196842 473.222713,571.282491 L464.683078,573.82342 C462.641555,574.430751 460.59225,572.899446 460.59225,570.768595 L460.59225,564.08276 C460.59225,562.325652 462.016387,560.898163 463.775158,560.898163 L515.710769,560.898163 C517.46954,560.898163 518.896271,562.325652 518.896271,564.08276 L518.896271,567.965528 C518.896271,569.725231 517.46954,571.152719 515.710769,571.152719 L474.128038,571.152719 Z M802.296976,730.247575 L797.80407,730.247575 L797.80407,687.114073 C790.073781,679.935105 779.331792,674.824697 765.648142,671.733536 L738.441674,622.505958 L758.667535,622.505958 C770.107326,622.505958 776.823339,609.63261 770.281127,600.242333 L745.622023,564.843222 C741.121335,558.385784 733.749025,554.534161 725.881251,554.534161 L457.85552,554.534161 C454.545504,554.534161 451.865843,557.215244 451.865843,560.527016 L451.865843,574.350293 C451.865843,577.415499 454.174554,579.914901 457.13956,580.270476 C449.816538,586.37753 445.14983,595.565363 445.14983,605.848468 C445.14983,611.420863 447.896936,616.341804 452.096714,619.365484 C437.129006,662.9454 436.309284,697.438705 449.710182,722.796086 C451.497487,726.183126 449.08242,730.247575 445.250998,730.247575 C443.245792,730.247575 441.619319,731.874911 441.619319,733.883776 L441.619319,741.104271 C441.619319,743.113136 443.245792,744.743068 445.250998,744.743068 L496.22162,744.743068 C501.082883,754.512278 511.137447,761.242236 522.782168,761.242236 C534.429483,761.242236 544.484047,754.512278 549.342715,744.743068 L721.901968,744.743068 C726.76323,754.512278 736.815201,761.242236 748.462516,761.242236 C760.109831,761.242236 770.161801,754.512278 775.020469,744.743068 L802.296976,744.743068 C804.304776,744.743068 805.93125,743.113136 805.93125,741.104271 L805.93125,733.883776 C805.93125,731.874911 804.304776,730.247575 802.296976,730.247575 L802.296976,730.247575 Z" id="Fill-1" fill="#3C48CC" mask="url(#mask-2)"></path>
                    <path d="M88.6125156,244.170168 C79.5177525,244.170168 72.142849,236.793948 72.142849,227.691764 C72.142849,218.592176 79.5177525,211.215955 88.6125156,211.215955 C97.7072788,211.215955 105.082182,218.592176 105.082182,227.691764 C105.082182,236.793948 97.7072788,244.170168 88.6125156,244.170168 L88.6125156,244.170168 Z M34.9518566,158.160112 C32.0620773,158.160112 29.719644,155.816436 29.719644,152.925124 L29.719644,126.815068 C29.719644,123.923755 32.0620773,121.580079 34.9518566,121.580079 L62.9261651,121.580079 C64.972876,121.580079 66.8302206,122.771383 67.6836653,124.629713 L79.6708018,150.739769 C81.2609586,154.207268 78.7265651,158.160112 74.9133016,158.160112 L34.9518566,158.160112 Z M21.7610778,152.925124 C21.7610778,155.816436 19.4134563,158.160112 16.5262711,158.160112 L-9.57253436,158.160112 C-12.4623136,158.160112 -14.8047469,155.816436 -14.8047469,152.925124 L-14.8047469,126.815068 C-14.8047469,123.923755 -12.4623136,121.580079 -9.57253436,121.580079 L16.5262711,121.580079 C19.4134563,121.580079 21.7610778,123.923755 21.7610778,126.815068 L21.7610778,152.925124 Z M-23.4714907,152.925124 C-23.4714907,155.816436 -25.813924,158.160112 -28.7062973,158.160112 L-54.7999147,158.160112 C-57.689694,158.160112 -60.0347213,155.816436 -60.0347213,152.925124 L-60.0347213,126.815068 C-60.0347213,123.923755 -57.689694,121.580079 -54.7999147,121.580079 L-28.7062973,121.580079 C-25.813924,121.580079 -23.4714907,123.923755 -23.4714907,126.815068 L-23.4714907,152.925124 Z M-81.941531,65.1839143 L-81.941531,59.1599142 C-81.941531,57.9945647 -80.9998884,57.0472317 -79.8325628,57.0472317 L-36.0007851,57.0472317 C-34.6492815,57.0472317 -33.7647081,58.469529 -34.3639352,59.6841916 L-37.2511204,65.5213206 C-37.7880902,66.608807 -38.8905643,67.2965968 -40.1045829,67.2965968 L-79.8325628,67.2965968 C-80.9998884,67.2965968 -81.941531,66.3492637 -81.941531,65.1839143 L-81.941531,65.1839143 Z M-89.3631275,64.1120004 C-89.3631275,65.871704 -90.7872647,67.2965968 -92.5486293,67.2965968 L-129.996433,67.2965968 C-131.755204,67.2965968 -133.179341,65.871704 -133.179341,64.1120004 L-133.179341,60.231828 C-133.179341,58.4747198 -131.755204,57.0472317 -129.996433,57.0472317 L-92.5486293,57.0472317 C-90.7872647,57.0472317 -89.3631275,58.4747198 -89.3631275,60.231828 L-89.3631275,64.1120004 Z M-112.330906,141.154835 C-112.330906,144.689815 -115.194745,147.555173 -118.730445,147.555173 L-155.40522,147.555173 C-158.938325,147.555173 -161.802164,144.689815 -161.802164,141.154835 L-161.802164,136.278016 C-161.802164,132.743037 -158.938325,129.877679 -155.40522,129.877679 L-118.730445,129.877679 C-115.194745,129.877679 -112.330906,132.743037 -112.330906,136.278016 L-112.330906,141.154835 Z M-137.067832,244.170168 C-146.162595,244.170168 -153.537499,236.793948 -153.537499,227.691764 C-153.537499,218.592176 -146.162595,211.215955 -137.067832,211.215955 C-127.970475,211.215955 -120.598165,218.592176 -120.598165,227.691764 C-120.598165,236.793948 -127.970475,244.170168 -137.067832,244.170168 L-137.067832,244.170168 Z M-185.721962,67.3017876 C-186.02806,67.3017876 -186.334159,67.34591 -186.627287,67.4315593 L-195.166922,69.9724883 C-197.208445,70.5798196 -199.25775,69.0485141 -199.25775,66.9176636 L-199.25775,60.231828 C-199.25775,58.4747198 -197.833613,57.0472317 -196.074842,57.0472317 L-144.139231,57.0472317 C-142.38046,57.0472317 -140.953729,58.4747198 -140.953729,60.231828 L-140.953729,64.1145959 C-140.953729,65.8742995 -142.38046,67.3017876 -144.139231,67.3017876 L-185.721962,67.3017876 Z M142.446976,226.396643 L137.95407,226.396643 L137.95407,183.263141 C130.223781,176.084173 119.481792,170.973765 105.798142,167.882605 L78.5916742,118.655026 L98.8175351,118.655026 C110.257326,118.655026 116.973339,105.781678 110.431127,96.3914013 L85.7720234,60.9922899 C81.2713349,54.5348525 73.8990254,50.6832298 66.0312511,50.6832298 L-201.99448,50.6832298 C-205.304496,50.6832298 -207.984157,53.3643122 -207.984157,56.6760847 L-207.984157,70.4993612 C-207.984157,73.5645676 -205.675446,76.0639696 -202.71044,76.419544 C-210.033462,82.5265979 -214.70017,91.7144309 -214.70017,101.997537 C-214.70017,107.569931 -211.953064,112.490873 -207.753286,115.514552 C-222.720994,159.094468 -223.540716,193.587774 -210.139818,218.945155 C-208.352513,222.332195 -210.76758,226.396643 -214.599002,226.396643 C-216.604208,226.396643 -218.230681,228.023979 -218.230681,230.032845 L-218.230681,237.253339 C-218.230681,239.262204 -216.604208,240.892136 -214.599002,240.892136 L-163.62838,240.892136 C-158.767117,250.661346 -148.712553,257.391304 -137.067832,257.391304 C-125.420517,257.391304 -115.365953,250.661346 -110.507285,240.892136 L62.051968,240.892136 C66.9132305,250.661346 76.9652006,257.391304 88.6125156,257.391304 C100.259831,257.391304 110.311801,250.661346 115.170469,240.892136 L142.446976,240.892136 C144.454776,240.892136 146.08125,239.262204 146.08125,237.253339 L146.08125,230.032845 C146.08125,228.023979 144.454776,226.396643 142.446976,226.396643 L142.446976,226.396643 Z" id="Fill-1" fill="#3C48CC" mask="url(#mask-2)" transform="translate(-36.768750, 154.037267) scale(-1, 1) translate(36.768750, -154.037267) "></path>
                    <path d="M612.318766,378.331659 C603.224002,378.331659 595.849099,370.955438 595.849099,361.853255 C595.849099,352.753666 603.224002,345.377446 612.318766,345.377446 C621.413529,345.377446 628.788432,352.753666 628.788432,361.853255 C628.788432,370.955438 621.413529,378.331659 612.318766,378.331659 L612.318766,378.331659 Z M558.658107,292.321603 C555.768327,292.321603 553.425894,289.977927 553.425894,287.086615 L553.425894,260.976558 C553.425894,258.085246 555.768327,255.74157 558.658107,255.74157 L586.632415,255.74157 C588.679126,255.74157 590.536471,256.932874 591.389915,258.791204 L603.377052,284.90126 C604.967209,288.368759 602.432815,292.321603 598.619552,292.321603 L558.658107,292.321603 Z M545.467328,287.086615 C545.467328,289.977927 543.119706,292.321603 540.232521,292.321603 L514.133716,292.321603 C511.243936,292.321603 508.901503,289.977927 508.901503,287.086615 L508.901503,260.976558 C508.901503,258.085246 511.243936,255.74157 514.133716,255.74157 L540.232521,255.74157 C543.119706,255.74157 545.467328,258.085246 545.467328,260.976558 L545.467328,287.086615 Z M500.234759,287.086615 C500.234759,289.977927 497.892326,292.321603 494.999953,292.321603 L468.906335,292.321603 C466.016556,292.321603 463.671529,289.977927 463.671529,287.086615 L463.671529,260.976558 C463.671529,258.085246 466.016556,255.74157 468.906335,255.74157 L494.999953,255.74157 C497.892326,255.74157 500.234759,258.085246 500.234759,260.976558 L500.234759,287.086615 Z M441.764719,199.345405 L441.764719,193.321405 C441.764719,192.156055 442.706362,191.208722 443.873687,191.208722 L487.705465,191.208722 C489.056969,191.208722 489.941542,192.63102 489.342315,193.845682 L486.45513,199.682811 C485.91816,200.770298 484.815686,201.458087 483.601667,201.458087 L443.873687,201.458087 C442.706362,201.458087 441.764719,200.510754 441.764719,199.345405 L441.764719,199.345405 Z M434.343122,198.273491 C434.343122,200.033195 432.918985,201.458087 431.157621,201.458087 L393.709817,201.458087 C391.951046,201.458087 390.526909,200.033195 390.526909,198.273491 L390.526909,194.393319 C390.526909,192.636211 391.951046,191.208722 393.709817,191.208722 L431.157621,191.208722 C432.918985,191.208722 434.343122,192.636211 434.343122,194.393319 L434.343122,198.273491 Z M411.375344,275.316326 C411.375344,278.851306 408.511505,281.716664 404.975805,281.716664 L368.30103,281.716664 C364.767925,281.716664 361.904086,278.851306 361.904086,275.316326 L361.904086,270.439507 C361.904086,266.904527 364.767925,264.039169 368.30103,264.039169 L404.975805,264.039169 C408.511505,264.039169 411.375344,266.904527 411.375344,270.439507 L411.375344,275.316326 Z M386.638418,378.331659 C377.543655,378.331659 370.168751,370.955438 370.168751,361.853255 C370.168751,352.753666 377.543655,345.377446 386.638418,345.377446 C395.735775,345.377446 403.108085,352.753666 403.108085,361.853255 C403.108085,370.955438 395.735775,378.331659 386.638418,378.331659 L386.638418,378.331659 Z M337.984288,201.463278 C337.67819,201.463278 337.372091,201.507401 337.078963,201.59305 L328.539328,204.133979 C326.497805,204.74131 324.4485,203.210005 324.4485,201.079154 L324.4485,194.393319 C324.4485,192.636211 325.872637,191.208722 327.631408,191.208722 L379.567019,191.208722 C381.32579,191.208722 382.752521,192.636211 382.752521,194.393319 L382.752521,198.276087 C382.752521,200.03579 381.32579,201.463278 379.567019,201.463278 L337.984288,201.463278 Z M666.153226,360.558134 L661.66032,360.558134 L661.66032,317.424632 C653.930031,310.245664 643.188042,305.135256 629.504392,302.044095 L602.297924,252.816517 L622.523785,252.816517 C633.963576,252.816517 640.679589,239.943169 634.137377,230.552892 L609.478273,195.153781 C604.977585,188.696343 597.605275,184.84472 589.737501,184.84472 L321.71177,184.84472 C318.401754,184.84472 315.722093,187.525803 315.722093,190.837575 L315.722093,204.660852 C315.722093,207.726058 318.030804,210.22546 320.99581,210.581035 C313.672788,216.688089 309.00608,225.875922 309.00608,236.159027 C309.00608,241.731422 311.753186,246.652363 315.952964,249.676043 C300.985256,293.255959 300.165534,327.749264 313.566432,353.106645 C315.353737,356.493685 312.93867,360.558134 309.107248,360.558134 C307.102042,360.558134 305.475569,362.18547 305.475569,364.194335 L305.475569,371.41483 C305.475569,373.423695 307.102042,375.053627 309.107248,375.053627 L360.07787,375.053627 C364.939133,384.822837 374.993697,391.552795 386.638418,391.552795 C398.285733,391.552795 408.340297,384.822837 413.198965,375.053627 L585.758218,375.053627 C590.61948,384.822837 600.671451,391.552795 612.318766,391.552795 C623.966081,391.552795 634.018051,384.822837 638.876719,375.053627 L666.153226,375.053627 C668.161026,375.053627 669.7875,373.423695 669.7875,371.41483 L669.7875,364.194335 C669.7875,362.18547 668.161026,360.558134 666.153226,360.558134 L666.153226,360.558134 Z" id="Fill-1" fill="#3C48CC" mask="url(#mask-2)" transform="translate(486.937500, 288.198758) scale(-1, 1) translate(-486.937500, -288.198758) "></path>
                </g>
                <g transform="translate(216.000000, 380.000000)" id="KVNRV-Copy-3">
                    <path d="M59.9752316,35 L59.9752316,23.48 L67.9220791,35 L75.0814011,35 L65.8100791,22.004 L74.4728588,9.8 L67.6357062,9.8 L59.9752316,20.996 L59.9752316,9.8 L53.8540113,9.8 L53.8540113,35 L59.9752316,35 Z M92.0489944,35 L101.033944,9.8 L94.6263503,9.8 L88.4335367,29.672 L82.2049266,9.8 L75.7973333,9.8 L84.7822825,35 L92.0489944,35 Z M109.696723,35 L109.696723,20.312 L119.469198,35 L124.838689,35 L124.838689,9.8 L118.681672,9.8 L118.681672,24.488 L108.909198,9.8 L103.539706,9.8 L103.539706,35 L109.696723,35 Z M135.255503,35 L135.255503,26.576 L139.121537,26.576 L139.121537,26.576 L143.345537,35 L149.86052,35 L144.526825,25.172 C146.925198,23.804 148.392859,21.536 148.392859,18.512 C148.392859,13.472 145.135367,9.8 138.763571,9.8 L129.134282,9.8 L129.134282,35 L135.255503,35 Z M138.763571,21.392 L135.255503,21.392 L135.255503,15.632 L138.763571,15.632 C140.803977,15.632 142.200045,16.64 142.200045,18.512 C142.200045,20.672 140.553401,21.392 138.763571,21.392 Z M166.112181,35 L175.09713,9.8 L168.689537,9.8 L162.496723,29.672 L156.268113,9.8 L149.86052,9.8 L158.845469,35 L166.112181,35 Z" id="KVNRV" fill="#FFFFFF" fill-rule="nonzero"></path>
                    <g id="Oval">
                        <use fill="black" fill-opacity="1" filter="url(#filter-4)" xlink:href="#path-3"></use>
                        <use fill="#FFFFFF" fill-rule="evenodd" xlink:href="#path-3"></use>
                    </g>
                    <path d="M21.8757062,40 C25.115113,40 28.1098164,39.1972656 30.8598164,37.5917969 C33.6098164,35.9863281 35.7830155,33.8007812 37.3794138,31.0351562 C38.9758121,28.2695312 39.7740113,25.2578125 39.7740113,22 C39.7740113,18.7421875 38.9758121,15.7304687 37.3794138,12.9648438 C35.7830155,10.1992188 33.6098164,8.01953125 30.8598164,6.42578125 C28.1098164,4.80859375 25.115113,4 21.8757062,4 C18.6362994,4 15.641596,4.80273438 12.891596,6.40820312 C10.141596,8.01367188 7.96839689,10.1992188 6.37199859,12.9648438 C4.77560028,15.7304687 3.97740113,18.7421875 3.97740113,22 C3.97740113,25.2578125 4.77560028,28.2695312 6.37199859,31.0351562 C7.96839689,33.8007812 10.141596,35.9863281 12.891596,37.5917969 C15.641596,39.1972656 18.6362994,40 21.8757062,40 Z M23.7003847,34 L24.9237208,29.3476923 L22.7566683,29.3476923 L23.4906699,26.2689593 C22.838224,26.4057919 22.1042224,26.599638 21.288665,26.8504977 C21.21876,26.918914 21.0964264,26.9702262 20.9216641,27.0044344 C20.7469018,27.0386425 20.3740756,26.9531222 19.8031854,26.7478733 C19.2322952,26.5426244 18.6206272,26.1549321 17.9681812,25.5847964 C17.9448796,25.561991 17.9099271,25.5277828 17.8633239,25.4821719 C17.8167206,25.4365611 17.7351648,25.3567421 17.6186566,25.2427149 C17.5021484,25.1286878 17.4089419,25.020362 17.339037,24.9177376 C17.269132,24.8151131 17.2050525,24.701086 17.1467984,24.5756561 C17.0885443,24.4502262 17.0768935,24.3361991 17.111846,24.2335747 C17.1467984,24.1309502 17.2341796,24.0568326 17.3739894,24.0112217 C17.5604025,23.9428054 18.504119,23.7945701 20.2051387,23.5665158 L22.6168584,23.2586425 C21.8986197,23.2693745 21.2448837,23.2756874 20.6556505,23.2775813 L19.8201779,23.2771078 C18.3771694,23.2701636 17.4219634,23.2298004 16.9545599,23.1560181 C16.4186222,23.0647964 15.8652082,22.6542986 15.2943181,21.9245249 C14.7234279,21.1947511 14.356427,20.4421719 14.1933156,19.6667873 C14.1933156,19.6667873 14.184927,19.6257376 14.1681498,19.543638 L14.1234106,19.3247059 L14.1234106,19.3247059 C14.1933156,19.0738462 14.5428402,19.039638 15.1719844,19.2220814 C15.3117943,19.2600905 15.4962656,19.3063348 15.7253984,19.3608145 L16.2432126,19.4807541 C16.6281212,19.5680342 17.0924279,19.6699548 17.6361329,19.7865158 C18.859469,20.0487783 19.9779477,20.2825339 20.991569,20.4877828 C22.0051904,20.6930317 22.5120011,20.7956561 22.5120011,20.7956561 C17.3856402,19.2448869 14.6476975,18.2870588 14.2981729,17.9221719 C14.0185533,17.5800905 13.7098065,16.901629 13.3719327,15.8867873 C13.034059,14.8719457 12.8884237,14.0110407 12.935027,13.3040724 C12.935027,13.281267 12.9408524,13.2470588 12.9525032,13.201448 C12.964154,13.1558371 13.0107573,13.1045249 13.0923131,13.0475113 C13.1738688,12.9904977 13.2729008,12.9847964 13.389409,13.0304072 C17.1875763,14.718009 20.379901,16.0293213 22.966383,16.9643439 C23.4091142,17.1239819 23.9508773,17.3064253 24.5916724,17.5116742 C25.2324675,17.7169231 25.7392782,17.8879638 26.1121045,18.0247964 C26.4849307,18.161629 26.916011,18.321267 27.4053455,18.5037104 C27.8946799,18.6861538 28.2733316,18.8571946 28.5413004,19.0168326 C28.8092693,19.1764706 29.0597619,19.3532127 29.2927783,19.5470588 C29.5257947,19.740905 29.6830808,19.9461538 29.7646365,20.1628054 C29.8461923,20.379457 29.8520177,20.6132127 29.7821128,20.8640724 C29.7634714,20.9735385 29.7075475,21.1340887 29.614341,21.3457231 L29.5374455,21.5140271 C29.3976357,21.8104977 29.2053972,22.1753846 28.9607299,22.6086878 C28.7160627,23.041991 28.4772209,23.45819 28.2442045,23.8572851 C28.0111881,24.2563801 27.7839971,24.6326697 27.5626315,24.9861538 C27.3966074,25.251267 27.2535207,25.4811029 27.1333716,25.6756618 L26.8111537,26.200543 L26.8111537,26.1663348 L26.2169618,27.1241629 L28.9782062,27.1241629 L23.7003847,34 Z" id="юде" fill="#F7AB3E" fill-rule="nonzero"></path>
                </g>
            </g>
        </g>
    </g>
</svg>