<?xml version="1.0" encoding="UTF-8"?>
<svg width="194px" height="297px" viewBox="0 0 194 297" version="1.1" xmlns="http://www.w3.org/2000/svg" xmlns:xlink="http://www.w3.org/1999/xlink">
    <title>Group</title>
    <g id="Symbols" stroke="none" stroke-width="1" fill="none" fill-rule="evenodd">
        <g id="Big/-Water" transform="translate(-198.000000, -60.000000)" fill="#FFFFFF" stroke="#979797" stroke-width="2">
            <g id="Group" transform="translate(198.000000, 60.000000)">
                <path d="M142.86761,9 L188.588542,31.9470947 C189.9407,32.6257357 191.043565,33.6567803 191.80839,34.8963912 C192.573215,36.136002 193,37.5841792 193,39.0970852 L193,39.0970852 L193,89.6481802 C193,90.4766074 192.664214,91.2266074 192.12132,91.7695006 C191.578427,92.3123938 190.828427,92.6481802 190.000052,92.6481802 L190.000052,92.6481802 L185.521997,92.6479482 L185.522613,289 C185.522613,290.932997 184.739111,292.682997 183.472361,293.949747 C182.20561,295.216498 180.45561,296 178.522613,296 L178.522613,296 L24.4120603,296 C22.4790637,296 20.7290637,295.216498 19.4623128,293.949747 C18.195562,292.682997 17.4120603,290.932997 17.4120603,289 L17.4120603,289 L17.4119997,92.6479591 L12,92.6481802 C11.1715729,92.6481802 10.4215729,92.3123938 9.87867966,91.7695006 C9.33578644,91.2266074 9,90.4766074 9,89.6481802 L9,89.6481802 L9,68 L4,68 C3.17157288,68 2.42157288,67.6642136 1.87867966,67.1213203 C1.33578644,66.5784271 1,65.8284271 1,65 L1,65 L1,57 C1,56.1715729 1.33578644,55.4215729 1.87867966,54.8786797 C2.42157288,54.3357864 3.17157288,54 4,54 L4,54 L9,54 L9,39.1418236 C9,37.6185618 9.43258641,36.1614083 10.2067447,34.9166985 C10.980903,33.6719886 12.0966331,32.6397224 13.4629206,31.9662352 L13.4629206,31.9662352 L60.0539724,9 L142.86761,9 Z" id="Combined-Shape"></path>
                <rect id="Rectangle" x="61" y="1" width="81" height="8" rx="3"></rect>
            </g>
        </g>
    </g>
</svg>
