<?xml version="1.0" encoding="UTF-8"?>
<svg width="158px" height="81px" viewBox="0 0 158 81" version="1.1" xmlns="http://www.w3.org/2000/svg" xmlns:xlink="http://www.w3.org/1999/xlink">
    <title>Path 6</title>
    <g id="Symbols" stroke="none" stroke-width="1" fill="none" fill-rule="evenodd">
        <g id="Dark-/Big/-Water" transform="translate(-219.000000, -274.000000)" fill="#00BFFF">
            <path d="M219.253546,294.155119 L219.253546,350.920213 C219.253546,353.129352 221.044407,354.920213 223.253546,354.920213 L372.920213,354.920213 C375.129352,354.920213 376.920213,353.129352 376.920213,350.920213 L376.920213,294.155119 L376.920213,294.155119 C376.487277,280.887404 367.90564,274.253546 351.175302,274.253546 C326.079794,274.253546 315.535672,300.439827 269.855453,294.155119 C250.582737,291.50357 236.751404,289.131695 228.361454,287.039496 C224.431616,286.059558 220.451431,288.450882 219.471452,292.380709 C219.326725,292.96108 219.253546,293.556976 219.253546,294.155119 L219.253546,294.155119 L219.253546,294.155119 Z" id="Path-6"></path>
        </g>
    </g>
</svg>
