<?xml version="1.0" encoding="UTF-8"?>
<svg width="194px" height="299px" viewBox="0 0 194 299" version="1.1" xmlns="http://www.w3.org/2000/svg" xmlns:xlink="http://www.w3.org/1999/xlink">
    <title>Group</title>
    <g id="Symbols" stroke="none" stroke-width="1" fill="none" fill-rule="evenodd" fill-opacity="0.104333411">
        <g id="Dark-/Big/-Water" transform="translate(-197.000000, -63.000000)" fill="#FFFFFF" stroke="#979797" stroke-width="2">
            <g id="Group" transform="translate(197.000000, 63.000000)">
                <path d="M142.868343,12 L188.578613,34.8623604 C189.933501,35.5400183 191.038848,36.5713066 191.805472,37.8119068 C192.572097,39.0525071 193,40.5024195 193,42.0173255 L193,42.0173255 L193,92.3518198 C193,93.1802469 192.664214,93.9302469 192.12132,94.4731401 C191.578427,95.0160333 190.828427,95.3518198 190.000236,95.3518198 L190.000236,95.3518198 L185.521997,95.3507643 L185.522613,291 C185.522613,292.932997 184.739111,294.682997 183.472361,295.949747 C182.20561,297.216498 180.45561,298 178.522613,298 L178.522613,298 L24.4120603,298 C22.4790637,298 20.7290637,297.216498 19.4623128,295.949747 C18.195562,294.682997 17.4120603,292.932997 17.4120603,291 L17.4120603,291 L17.4119997,95.3508142 L12,95.3518198 C11.1715729,95.3518198 10.4215729,95.0160333 9.87867966,94.4731401 C9.33578644,93.9302469 9,93.1802469 9,92.3518198 L9,92.3518198 L9,69 L4,69 C3.17157288,69 2.42157288,68.6642136 1.87867966,68.1213203 C1.33578644,67.5784271 1,66.8284271 1,66 L1,66 L1,60 C1,59.1715729 1.33578644,58.4215729 1.87867966,57.8786797 C2.42157288,57.3357864 3.17157288,57 4,57 L4,57 L9,57 L9,42.0620085 C9,40.5367663 9.43370002,39.0778985 10.2096472,37.8322203 C10.9855943,36.5865421 12.1037886,35.5540536 13.4727771,34.8815699 L13.4727771,34.8815699 L60.0532487,12 L142.868343,12 Z" id="Combined-Shape"></path>
                <rect id="Rectangle" x="61.5" y="1" width="80.5" height="10.8333333" rx="3"></rect>
            </g>
        </g>
    </g>
</svg>
