<?xml version="1.0" encoding="UTF-8"?>
<svg width="17px" height="17px" viewBox="0 0 17 17" version="1.1" xmlns="http://www.w3.org/2000/svg" xmlns:xlink="http://www.w3.org/1999/xlink">
    <title></title>
    <g id="Symbols" stroke="none" stroke-width="1" fill="none" fill-rule="evenodd">
        <g id="Big/-Ac-Mode" transform="translate(-370.000000, -18.000000)" fill="#9A9A9A" fill-rule="nonzero">
            <path d="M380.9,33.8 C381.344444,33.6611111 381.872222,33.4388889 382.483333,33.1333333 C382.233333,32.1055556 382.455556,31.2444444 383.15,30.55 C383.927778,29.7722222 384.788889,29.4944444 385.733333,29.7166667 C386.038889,29.1055556 386.261111,28.5777778 386.4,28.1333333 C385.372222,27.5222222 384.858333,26.7444444 384.858333,25.8 C384.858333,24.8555556 385.372222,24.0777778 386.4,23.4666667 C386.261111,23.0222222 386.038889,22.4944444 385.733333,21.8833333 C384.788889,22.1055556 383.927778,21.8277778 383.15,21.05 C382.483333,20.3833333 382.275,19.5222222 382.525,18.4666667 C381.941667,18.1888889 381.4,17.9666667 380.9,17.8 C380.288889,18.8277778 379.455556,19.3416667 378.4,19.3416667 C377.344444,19.3416667 376.511111,18.8277778 375.9,17.8 C375.4,17.9666667 374.858333,18.1888889 374.275,18.4666667 C374.525,19.5222222 374.316667,20.3833333 373.65,21.05 C372.872222,21.8277778 372.011111,22.1055556 371.066667,21.8833333 C370.816667,22.3277778 370.594444,22.8555556 370.4,23.4666667 C371.427778,24.0777778 371.941667,24.8555556 371.941667,25.8 C371.941667,26.8555556 371.427778,27.6888889 370.4,28.3 C370.566667,28.8 370.788889,29.3416667 371.066667,29.925 C372.122222,29.675 372.983333,29.8833333 373.65,30.55 C374.316667,31.2166667 374.525,32.0777778 374.275,33.1333333 C374.858333,33.4111111 375.4,33.6333333 375.9,33.8 C376.511111,32.7722222 377.344444,32.2583333 378.4,32.2583333 C379.455556,32.2583333 380.288889,32.7722222 380.9,33.8 Z M378.4,29.8 C377.311565,29.8 376.372789,29.4054422 375.583673,28.6163265 C374.794558,27.8272109 374.4,26.8884354 374.4,25.8 C374.4,24.7115646 374.794558,23.7727891 375.583673,22.9836735 C376.372789,22.1945578 377.311565,21.8 378.4,21.8 C379.488435,21.8 380.427211,22.1945578 381.216327,22.9836735 C382.005442,23.7727891 382.4,24.7115646 382.4,25.8 C382.4,26.8884354 382.005442,27.8272109 381.216327,28.6163265 C380.427211,29.4054422 379.488435,29.8 378.4,29.8 Z" id=""></path>
        </g>
    </g>
</svg>
