<?xml version="1.0" encoding="UTF-8"?>
<svg width="56px" height="56px" viewBox="0 0 56 56" version="1.1" xmlns="http://www.w3.org/2000/svg" xmlns:xlink="http://www.w3.org/1999/xlink">
    <!-- Generator: Sketch 52.3 (67297) - http://www.bohemiancoding.com/sketch -->
    <title>icon_generator_2</title>
    <desc>Created with Sketch.</desc>
    <g id="Zeplin" stroke="none" stroke-width="1" fill="none" fill-rule="evenodd">
        <g id="Style-Guide" transform="translate(-783.000000, -3942.000000)" fill="#FFFFFF">
            <g id="icon_generator_2" transform="translate(783.000000, 3942.000000)">
                <path d="M28,56 C12.536027,56 -3.55271368e-15,43.463973 -3.55271368e-15,28 C-3.55271368e-15,12.536027 12.536027,-3.55271368e-15 28,-3.55271368e-15 C43.463973,-3.55271368e-15 56,12.536027 56,28 C56,43.463973 43.463973,56 28,56 Z M40.25,19 L15.75,19 C14.7875,19 14,19.7875 14,20.75 L14,34.75 C14,35.7125 14.7875,36.5 15.75,36.5 L17.5,36.5 L17.5,38.25 C17.5,39.2125 18.2875,40 19.25,40 L22.75,40 C23.7125,40 24.5,39.2125 24.5,38.25 L24.5,36.5 L31.5,36.5 L31.5,38.25 C31.5,39.2125 32.2875,40 33.25,40 L36.75,40 C37.7125,40 38.5,39.2125 38.5,38.25 L38.5,36.5 L40.25,36.5 C41.2125,36.5 42,35.7125 42,34.75 L42,20.75 C42,19.7875 41.2125,19 40.25,19 Z M22.75,38.25 L19.25,38.25 L19.25,36.5 L22.75,36.5 L22.75,38.25 Z M36.75,38.25 L33.25,38.25 L33.25,36.5 L36.75,36.5 L36.75,38.25 Z M40.25,34.75 L36.75,34.75 L33.25,34.75 L22.75,34.75 L19.25,34.75 L15.75,34.75 L15.75,20.75 L33.25,20.75 L40.25,20.75 L40.25,34.75 Z M31.773,28.506 L28.847,27.5855 L33.25,20.75 L24.61025,28.41325 L27.5345,29.3355 L22.75,34.75 L31.773,28.506 Z" id="Oval-2-Copy-2"></path>
            </g>
        </g>
    </g>
</svg>