<svg width="34" height="29" viewBox="0 0 34 29" fill="none" xmlns="http://www.w3.org/2000/svg">
<path d="M32.75 26.8438L26.4375 15.9375C26.1667 15.4375 25.8229 14.8333 25.4062 14.125C24.9896 13.3958 24.6354 12.7812 24.3438 12.2812L18.0625 1.40625C17.9167 1.15625 17.75 0.96875 17.5625 0.84375C17.375 0.71875 17.1875 0.65625 17 0.65625C16.8125 0.65625 16.625 0.71875 16.4375 0.84375C16.25 0.96875 16.0833 1.15625 15.9375 1.40625L9.65625 12.2812C9.36458 12.7812 9.01042 13.3958 8.59375 14.125C8.17708 14.8333 7.83333 15.4375 7.5625 15.9375L1.25 26.8438C0.958333 27.3438 0.916667 27.7708 1.125 28.125C1.33333 28.4792 1.71875 28.6562 2.28125 28.6562H14.9062C15.4896 28.6562 16.1875 28.6562 17 28.6562C17.8333 28.6562 18.5312 28.6562 19.0938 28.6562H31.7188C32.2812 28.6562 32.6667 28.4792 32.875 28.125C33.0833 27.7708 33.0417 27.3438 32.75 26.8438ZM4 26.6562H3.6875L17 3.59375L30.375 26.6562H4ZM16 22.6562H18V24.6562H16V22.6562ZM16 10.6562H18V20.6562H16V10.6562Z" fill="#E5E5E5"/>
</svg>
